<svg xmlns="http://www.w3.org/2000/svg" width="1772" height="381" fill="none" viewBox="0 0 1772 381"><mask id="mask0_8_159" style="mask-type:alpha" width="158" height="158" x="195" y="139" maskUnits="userSpaceOnUse"><circle cx="274" cy="218" r="79" fill="#000"/></mask><g mask="url(#mask0_8_159)"><circle cx="274" cy="218" r="79" fill="#0F4C5C"/><path fill="#FFD8B3" d="M254.719 259.926L251.969 254.72L253.568 248.209L264.977 243.802L260.122 233.839L262.522 223.777L267.026 214.768L280.947 212.579L291.177 202.826L313.265 204.496L317.601 228.113L309.252 257.85L304.495 273.244L285.213 273.974L276.26 267.771L265.777 263.393L254.719 259.926Z"/><path fill="#FFD8B3" d="M288.539 259.758C288.539 259.758 285.873 260.979 281.326 260.698C280.007 258.93 270.787 258.102 270.787 258.102C270.787 258.102 269.637 257.751 267.602 258.593C265.553 259.421 263.616 259.323 261.806 259.772C259.996 260.221 258.2 257.864 256.81 257.372C255.421 256.853 253.583 255.604 253.583 255.604L249.696 255.225L241.893 251.928L229.502 239.579L226.134 244.855L225.096 251.38L228.842 259.113L238.932 268.304L258.607 273.3L270.268 269.862L284.876 263.687L288.539 259.758Z"/><path fill="#FFD8B3" d="M218.641 216.115L221.139 208.551L224.114 203.668L233.698 202.868L230.821 211.26L222.809 225.517L226.134 238.245L220.24 241.192L218.43 238.414L216.971 232.043L216.873 224.886L218.641 216.115Z"/><path fill="#FFD8B3" d="M229.39 259.239L227.552 256.671C227.552 256.671 227.06 255.45 227.341 254.383C227.622 253.303 227.58 253.233 227.439 252.826C227.299 252.419 226.12 251.016 226.19 249.809C226.26 248.588 226.092 248.181 226.99 247.213C227.93 246.272 227.65 244.644 227.65 244.644L228.871 245.402L229.151 244.981C229.151 244.981 229.6 245.332 229.6 245.879C229.699 245.122 229.292 241.613 230.218 240.813C231.158 240.014 232.786 244.56 232.786 244.56L231.775 237.965L229.179 231.201L224.562 225.026L224.282 218.22V217.631C224.282 217.631 222.163 220.886 221.573 223.455C221.152 225.223 222.163 227.37 221.952 229.91C221.784 232.436 221.573 232.239 222.191 233.236C222.808 234.232 224.31 236.295 223.72 237.782C223.201 239.059 221.433 238.161 221.433 238.161C221.433 238.161 221.082 239.2 220.605 239.579C220.437 238.961 220.254 238.568 219.918 238.189C219.889 238.428 219.819 238.751 219.819 238.751C219.819 238.751 219.511 237.782 219.202 236.561C218.781 234.934 218.332 232.787 217.925 231.636C217.756 232.295 217.335 234.302 217.335 234.302L217.574 237.389L218.725 241.627L219.833 244.406L220.914 247.802L221.854 250.089L222.612 251.829L223.271 255.745L226.457 259.113L228.155 259.87L229.39 259.239Z"/><path fill="#FFD8B3" d="M220.311 209.941C220.311 209.941 218.023 213.828 217.364 217.743C216.704 221.658 216.115 225.798 216.536 231.131C216.957 236.505 217.756 239.803 218.402 242.161C219.511 246.076 222.387 251.521 222.387 251.521L222.486 251.31C222.486 251.31 221.728 249.921 221.335 248.433C220.956 246.946 220.816 245.178 220.465 244.378C220.156 243.578 219.637 242.89 219.384 241.908C219.146 240.968 219.104 239.48 218.374 238.372C218.065 237.923 217.686 236.744 217.574 235.565C217.434 233.797 217.644 231.818 217.476 230.19C217.167 227.482 216.957 225.644 217.237 224.226C217.518 222.809 218.977 218.781 219.875 215.582C220.465 213.533 220.114 211.807 221.195 210.025C222.275 208.257 222.935 206.699 223.173 205.618C223.454 204.636 220.311 209.941 220.311 209.941Z"/><path fill="#FFD8B3" d="M231.158 208.383C231.158 208.383 229.979 208.734 229.418 209.351C228.856 209.941 228.618 210.432 227.86 211.428C227.102 212.439 227.06 213.238 226.443 214.487C225.825 215.708 224.464 217.547 224.295 218.206C224.127 218.866 223.846 221.953 223.496 223.412C223.187 224.872 223.846 226.668 223.846 226.668L224.646 226.5C224.646 226.5 224.646 227.538 225.446 228.24C226.246 228.927 226.386 225.91 226.386 225.91L229.375 215.821L233.88 212.761L234.371 210.291L231.158 208.383Z"/><path fill="#FFD8B3" d="M233.347 212.958C233.347 212.958 231.228 213.098 230.189 213.856C229.768 214.165 229.6 214.417 229.151 214.796C228.323 215.484 227.481 216.115 227.074 217.013C226.625 217.911 226.134 219.273 225.797 221.841C225.657 222.921 225.657 223.918 225.558 224.788C225.418 225.966 225.208 226.907 225.32 227.566C225.46 228.913 226.849 229.615 226.99 231.145L229.867 229.685L232.575 219.006L238.329 215.4L235.073 211.751L233.347 212.958Z"/><path fill="#FFD8B3" d="M233.796 308.285L220.956 308.593L214.15 308.074C214.15 308.074 214.571 303.078 214.669 301.9C214.908 301.17 215.707 299.093 215.946 298.714C216.114 298.153 216.325 296.735 215.848 294.995C216.156 294.504 217.125 294.237 218.205 284.555C218.626 280.948 218.696 278.212 219.005 276.5C219.454 274.072 219.763 273.174 219.693 272.262C219.595 270.802 219.482 269.736 219.623 268.613C219.833 267.126 221.293 265.357 221.25 264.136C221.222 263.168 220.731 262.537 220.31 261.947C219.889 261.358 219.552 260.867 219.552 260.867C219.552 260.867 222.429 258.888 222.401 250.917C222.499 250.945 222.57 250.987 222.57 250.987L223.987 255.015L224.955 256.194L228.674 263.126L233.459 267.771L240.532 272.528L244.966 277.356L245.415 290.224L239.62 297.746L233.796 308.285Z"/><path fill="#FFD8B3" d="M235.873 297.184C235.873 297.184 235.971 295.585 237.29 294.546C237.501 294.897 237.641 295.234 237.599 295.486C237.838 295.065 239.508 292.371 243.283 291.669C247.057 290.982 247.97 288.231 247.97 288.231L255.983 280.948L265.146 272.514L276.288 268.599L281.495 267.322C281.495 267.322 281.593 267.701 281.396 268.543C282.365 268.473 284.512 267.981 286.743 267.196C287.641 266.845 288.483 266.704 288.932 267.167C289.592 267.785 289.69 269.244 289.732 270.114C290.813 269.876 292.062 268.837 293.058 268.936C294.658 269.104 296.075 270.984 297.703 270.984C299.85 270.984 300.818 269.665 302.32 268.627C303.218 268.009 304.509 267.238 305.239 266.718C306.979 265.441 325.39 259.814 325.39 259.814L331.845 260.235L332.884 267.167L332.323 285.382L302.769 300.819L256.179 307.962L237.206 303.106L235.873 297.184Z"/><path fill="#FFD8B3" d="M216.171 308.327C216.171 308.327 217.869 304.482 218.669 298.924C219.328 294.378 218.739 293.339 218.907 291.88C219.146 289.691 221.616 285.425 221.826 284.597C221.994 286.295 222.486 292.708 224.254 294.139C223.875 294.7 223.243 296.637 225.503 298.125C225.124 298.924 224.352 299.893 224.843 301.352C225.334 302.812 225.924 304.888 225.643 307.176C224.843 307.344 223.973 307.695 223.285 308.355C222.598 308.972 216.171 308.327 216.171 308.327Z"/><path fill="#FFD8B3" d="M245.275 305.646L255.618 302.769L256.067 302.91C256.067 302.91 256.305 303.05 256.305 303.527C256.965 303.148 257.526 303.218 257.933 302.966C258.144 303.415 258.354 304.902 259.28 305.085C260.249 305.295 261.287 304.664 262.34 303.864C263.378 303.036 264.557 301.998 265.455 301.577C265.623 301.857 266.044 302.727 266.325 303.443C267.504 302.503 269.553 298.686 272.472 298.756C272.752 298.096 273.791 295.697 276.527 293.858C279.235 292.02 280.933 291.88 283.052 292.048C283.88 290.968 284.961 289.999 286.112 289.312C286.463 289.452 287.431 290.041 288.638 289.48C289.859 288.919 291.234 286.744 293.044 286.463C294.644 286.224 295.851 287.052 295.851 287.052C295.851 287.052 301.127 281.818 304.762 280.078C304.621 279.657 304.341 278.071 308.607 274.563C308.845 274.773 308.677 275.363 308.845 275.391C308.915 275.391 309.954 274.942 311.273 273.931C312.901 272.711 314.851 271.434 316.03 271.083C318.247 270.423 320.605 271.77 320.605 271.77C320.605 271.77 320.886 271.56 321.265 271.462C321.826 271.363 322.233 271.293 322.542 271.181C322.514 271.911 322.92 273.16 322.542 274.24C322.542 274.24 323.131 274.591 323.931 274.83C323.692 275.349 323.173 276.668 322.303 277.299C323.033 277.65 323.131 278.057 324.169 278.408C323.748 278.997 323.061 280.008 322.752 280.625C322.443 281.285 321.335 284.021 320.844 285.06C320.324 286.098 319.623 288.007 319.286 288.386C318.935 288.764 317.728 290.392 316.788 291.192C317.616 290.883 321.026 289.845 322.471 289.452C321.601 290.729 313.56 302.671 313.56 302.671L297.366 307.499L289.424 308.846L248.04 308.818L244.391 307.007L245.275 305.646Z"/><path fill="#FFD8B3" d="M233.698 212.579C233.698 212.579 232.477 212.579 232.238 212.747C232 212.916 233.459 213.266 233.908 213.435C234.357 213.603 235.326 214.375 235.578 214.992C235.817 215.582 244.349 219.02 244.349 219.02L250.383 218.711L252.46 215.834L248.503 212.368L251.281 204.187L247.605 204.776L238.764 210.053L234.329 211.751L233.698 212.579Z"/><path fill="#FFD8B3" d="M246.945 215.287C246.945 215.287 247.183 215.736 247.773 215.736C249.022 215.736 250.172 216.045 250.65 216.676C251.45 217.687 253.667 220.914 253.667 220.914L258.971 222.823L259.322 216.578L253.526 212.551L246.931 214.978V215.287H246.945Z"/><path fill="#FFD8B3" d="M245.906 217.603C245.906 217.603 246.875 217.673 248.096 217.224C249.316 216.775 251.323 215.806 252.193 216.185C253.414 216.705 253.161 218.332 254.481 219.792C255.28 220.69 256.74 220.662 257.568 221.63C258.396 222.598 261.245 222.149 261.245 222.149L262.325 227.973L257.989 233.53L256.572 240.435H250.706L245.345 238.316L242.707 231.93L244.026 225.475L245.906 217.603Z"/><path fill="#FFD8B3" d="M257.245 217.883C257.245 217.883 257.456 217.953 257.694 217.953C257.526 218.094 257.175 218.403 257.315 219.202C257.456 220.002 257.905 221.013 257.526 221.63C257.694 221.841 257.947 222.079 258.185 222.781C258.424 223.468 258.494 224.1 260.052 224.198C259.701 224.409 259.434 224.689 259.434 224.689C259.434 224.689 260.515 225.63 261.062 226.5C261.623 226.472 263.111 226.008 263.111 226.008L263.42 226.219L264.079 225.938C264.079 225.938 263.462 225.7 263.911 224.198C264.332 222.879 264.711 222.949 264.739 222.851C264.767 222.753 265.047 221.364 265.047 220.802C265.258 220.072 265.426 217.855 265.426 217.855L264.977 212.958L262.451 211.428L260.402 209.449L258.466 213.098L257.189 214.375L257.091 217.532L257.245 217.883Z"/><path fill="#FFD8B3" d="M263.322 213.786C263.322 213.786 263.771 215.063 263.939 216.045C264.037 215.736 264.037 215.456 264.037 215.456C264.037 215.456 264.388 217.392 264.458 218.192C264.599 218.164 264.739 218.122 264.767 218.262C264.795 218.403 265.118 219.96 265.048 220.83C265.216 220.522 266.016 219.301 267.405 218.473C267.967 218.122 268.626 217.743 269.314 217.715C270.394 217.687 271.18 218.403 272.471 218.403C275.587 218.403 278.407 216.115 280.484 215.414C282.014 214.894 283.333 214.515 284.259 213.673C284.708 213.295 285.508 212.453 286.238 211.204C287.206 209.534 288.216 208.088 289.227 207.906C288.427 208.046 287.838 208.004 287.838 208.004C287.838 208.004 288.146 207.695 288.665 207.274C289.185 206.853 289.816 206.334 290.714 206.334C292.314 206.334 293.114 206.573 294.012 206.573C294.91 206.545 295.429 206.334 295.429 206.334C295.429 206.334 296.37 206.994 298.489 206.994C300.608 207.022 302.025 207.204 303.134 207.302C304.242 207.401 307.961 206.994 309.027 207.022C310.136 207.05 311.034 207.513 311.034 207.513L307.596 197.521L295.247 186.73L287.894 191.936L276.583 203.247L265.637 207.302L263.35 209.871V213.786H263.322Z"/><path fill="#FFD8B3" d="M287.879 208.06C287.879 208.06 288.188 207.751 288.707 207.33C289.227 206.909 289.858 206.39 290.756 206.39C292.356 206.39 293.156 206.629 294.054 206.629C294.952 206.601 295.471 206.39 295.471 206.39C295.471 206.39 296.411 207.05 298.53 207.05C300.649 207.078 302.067 207.26 303.175 207.358C304.284 207.457 308.003 207.05 309.069 207.078C310.178 207.106 311.076 207.569 311.076 207.569L309.518 203.064L307.708 199.626L302.544 193.971C302.544 193.971 296.341 190.322 296.299 190.294C296.271 190.266 294.152 189.705 294.152 189.705L288.539 193.101L283.445 206.278L283.347 209.056L286.644 210.614C287.472 209.225 288.385 208.116 289.241 207.976C288.469 208.06 287.879 208.06 287.879 208.06Z"/><path fill="#FFD8B3" d="M287.809 209C287.318 209.029 286.911 208.93 286.799 208.579C286.378 207.401 286.041 207.232 285.69 207.232C285.34 207.232 284.863 207.99 284.582 208.06C284.301 208.13 283.964 207.19 283.964 207.19L283.656 207.05C283.656 207.05 281.845 208.229 280.568 209.618C279.291 211.007 277.2 213.365 276.26 213.786C275.32 214.207 272.092 214.347 270.984 214.586C269.875 214.824 268.654 215.624 268.486 215.806C268.318 215.989 268.977 216.185 269.075 216.368C269.174 216.536 267.995 216.466 267.897 216.648C267.826 216.789 268.177 217.589 268.346 217.996C268.654 217.855 268.963 217.757 269.314 217.757C270.394 217.729 271.18 218.445 272.471 218.445C275.587 218.445 278.407 216.157 280.484 215.456C282.014 214.936 283.333 214.558 284.259 213.716C284.708 213.337 285.508 212.495 286.238 211.246C286.771 210.39 287.29 209.59 287.809 209Z"/><path fill="#FFD8B3" d="M243.128 278.45C243.128 278.45 242.848 277.412 240.279 274.731C239.55 273.974 239.101 273.342 238.61 272.893C237.389 271.742 236.673 271.434 235.803 270.774C233.894 269.357 231.818 269.357 230.218 267.617C228.618 265.877 226.752 262.551 225.461 259.155C224.184 255.759 223.833 254.678 223.833 254.58C223.833 254.482 224.184 253.822 224.633 253.92C225.082 254.019 225.082 254.889 225.194 255.099C225.222 255.169 225.545 255.618 225.952 256.067C226.611 256.825 227.551 257.737 228.029 259.085C227.93 257.934 227.537 256.657 227.537 256.657C227.537 256.657 230.007 258.214 232.112 259.842C234.231 261.47 235.101 262.031 235.719 263.07C236.336 264.108 237.796 266.845 238.497 267.645C239.199 268.445 248.77 271.462 248.77 271.462L253.316 274.858L255.576 279.811L253.807 282.59L250.411 283.32L244.896 280.85L243.128 278.45Z"/><path fill="#FFD8B3" d="M230.877 261.386C230.877 261.386 232.028 263.224 234.834 264.964C237.36 266.494 241.36 267.883 244.924 268.711C246.973 269.202 249.022 269.581 250.86 269.609C255.814 269.679 259.224 268.262 263.448 267.799C265.735 267.56 268.542 267.378 271.461 266.69C275.208 265.792 277.425 264.782 280.442 263.365C282.631 262.354 284.638 261.596 286.266 260.628C288.553 259.281 290.223 257.779 292.16 257.33C291.921 257.99 291.668 259.169 289.76 260.39C290.77 260.361 292.16 260.291 292.16 260.291C292.16 260.291 290.812 261.091 288.441 262.887C286.981 263.996 285.045 265.876 283.066 267.125C281.789 267.925 280.4 268.515 279.488 268.992C277.27 270.213 276.372 270.83 274.913 272.318C275.432 272.29 275.474 272.318 275.474 272.318C275.474 272.318 273.636 272.556 272.317 273.258C272.036 273.258 271.559 273.16 270.717 273.398C270.057 273.609 269.187 274.086 268.289 274.338C267.012 274.717 266.591 274.549 266.591 274.549L266.802 274.97C266.802 274.97 265.132 274.942 264.585 274.998C264.683 275.026 264.655 275.068 264.655 275.068C264.655 275.068 264.585 275.068 264.374 275.166C264.206 275.265 263.925 275.447 263.504 275.545C263.336 275.573 263.195 275.573 262.985 275.615C263.055 275.784 263.602 276.724 263.855 277.285C263.644 277.426 260.487 279.811 260.487 279.811C260.487 279.811 260.627 280.022 260.725 280.302C260.824 280.611 260.866 281.06 260.964 281.271C261.203 281.692 261.343 281.762 261.343 281.762C261.343 281.762 260.964 281.832 260.304 282C259.743 282.141 259.056 282.379 258.087 282.52C257.807 282.548 257.498 282.59 257.189 282.59C257.329 282.899 257.947 284.077 256.81 285.439C255.66 286.786 255.323 286.996 254.972 287.866C254.874 287.796 254.691 287.656 254.411 287.516C254.032 287.347 253.512 287.094 253.33 286.758C253.302 286.898 253.162 287.445 252.909 288.077C252.558 289.017 252.039 289.943 251.941 290.645C251.562 290.224 250.86 289.396 249.892 289.564C248.924 289.733 248.152 291.052 247.983 291.431C247.983 291.192 247.815 291.01 247.773 291.29C247.745 291.599 247.212 294.827 244.237 297.437C244.209 296.777 244.209 295.318 244.138 294.841C243.858 295.121 243.521 295.528 241.5 296.398C239.521 297.269 239.83 298.139 239.83 298.139C239.83 298.139 239.662 296.749 240.728 295.29C241.809 293.83 242.468 293.143 242.468 293.031C242.468 293.002 242.44 292.862 242.328 292.722C242.188 292.581 241.907 292.413 241.907 292.301C242.075 292.231 243.745 291.431 243.647 289.775C243.549 288.287 242.917 287.515 242.468 286.968C242.398 286.898 243.128 286.379 243.03 286.21C242.96 286.112 242.061 285.453 241.949 285.102C241.977 284.933 242.019 284.653 242.09 284.484C242.188 284.176 242.258 283.965 242.23 283.755C242.16 283.404 241.781 282.436 241.669 282.337C241.767 282.365 242.468 282.337 242.468 282.337C242.468 282.337 241.907 281.439 241.809 281.018C241.711 280.597 241.5 279.489 241.388 279.278C241.626 279.306 242.216 279.348 242.216 279.278C242.244 279.068 241.697 278.717 241.935 278.45C242.104 278.478 242.426 278.619 242.735 279.011C242.567 278.562 242.286 277.692 241.697 277.342C241.977 277.243 242.917 276.991 243.745 277.482C244.573 277.973 244.854 278.661 244.854 278.661C244.854 278.661 245.345 279.04 246.103 279.601C246.973 280.288 248.082 281.271 249.85 281.958C250.229 282.169 251.197 282.169 251.899 282.029C252.32 281.93 252.558 281.79 252.769 281.678C252.937 281.579 253.077 281.537 253.077 281.537C253.077 281.537 252.797 280.976 252.558 280.667C252.797 280.667 253.077 280.695 253.077 280.695C253.077 280.695 253.246 280.317 252.488 279.587C252.656 279.418 252.867 279.306 252.867 279.025C252.628 278.997 252.207 278.647 252.109 278.506C252.249 278.408 252.46 278.085 252.699 277.987C252.488 277.819 251.969 277.117 251.73 277.047C251.969 276.977 252.39 276.738 252.39 276.738C252.39 276.738 251.211 276.429 250.832 276.177C250.453 275.896 249.892 275.419 249.555 275.279C249.204 275.138 248.587 275.068 248.334 274.787C248.573 274.858 248.952 274.787 249.232 274.787C249.443 274.787 249.541 274.816 249.611 274.816C249.583 274.717 249.583 274.507 250.13 274.437C250.65 274.338 250.888 274.198 250.888 274.198C250.888 274.198 250.369 274.17 249.78 273.609C249.19 273.047 248.699 272.598 248.362 272.528C248.011 272.458 247.352 272.767 246.945 272.739C246.384 272.668 246.145 272.388 246.145 272.388C246.145 272.388 244.279 272.556 240.139 270.03C236.56 267.841 235.003 265.905 235.003 265.905C235.003 265.905 234.582 265.764 234.035 265.455C232.687 264.754 230.821 263.294 230.877 261.386Z"/><path fill="#FFD8B3" d="M282.505 177.159C282.505 177.159 282.996 177.3 283.333 177.721C283.992 178.478 284.413 179.91 282.912 181.439C283.501 181.65 283.74 181.72 284.259 181.65C283.74 182.267 282.561 183.587 282.491 184.737C282.421 185.677 283.01 185.958 283.01 185.958C283.01 185.958 282.112 186.997 282.07 188.737C282.28 188.498 282.757 187.979 283.459 187.418C284.497 186.59 285.929 185.649 286.897 185.06C286.869 185.439 286.995 185.79 286.995 185.79C286.995 185.79 288.806 184.302 290.321 184.962C291.009 185.27 290.7 186.239 290.7 186.239C290.7 186.239 291.64 185.888 292.3 186.548C292.959 187.207 293.9 188.905 294.377 189.565C294.587 189.873 295.134 190.463 295.696 191.375C296.355 192.455 297.085 193.943 297.604 195.402C297.632 194.673 297.815 193.536 299.892 194.252C301.969 194.981 304.326 196.511 306.305 199.528C308.284 202.545 308.775 205.941 309.771 207.232C310.781 208.481 311.82 210.558 311.89 211.428C311.96 212.298 311.581 215.105 313.658 222.697C314.248 220.339 315.146 215.105 315.146 215.105L315.637 210.488L316.198 196.202L301.281 183.811L289.619 175.349L282.028 176.079L282.505 177.159Z"/><path fill="#FFD8B3" d="M310.22 198.419C310.22 198.419 310.01 197.03 306.502 194.673C302.993 192.343 300.257 192.343 297.731 190.364C295.794 188.807 293.774 185.228 292.454 184.05C291.177 182.885 290.967 179.517 290.967 179.517L295.275 175.91L301.688 166.649L307.105 160.685L309.701 164.291L313.308 168.529L315.314 177.033L316.044 189.48L310.22 198.419Z"/><path fill="#FFD8B3" d="M314.556 213.337C314.556 213.337 314.795 210.628 313.869 207.751C312.943 204.875 310.922 199.767 309.982 197.858C309.603 195.739 309.883 195.571 310.29 195.332C310.711 195.094 312.227 194.224 313.069 191.164C313.897 188.105 316.507 188.007 316.507 188.007L318.107 186.828L320.534 192.904L322.653 198.391L323.313 202.587L323.804 206.166L322.653 213.73L316.97 218.866L314.556 213.337Z"/><path fill="#FFD8B3" d="M233.796 308.285C233.796 308.285 232.519 305.927 232.449 304.917C232.421 303.948 232.8 303.317 232.8 303.317C232.8 303.317 232.309 302.587 231.86 302.419C231.958 301.928 232.14 301.338 232.519 300.931C232.898 300.482 233.628 299.893 233.768 299.682C233.908 299.472 233.979 299.191 234.386 299.121C234.807 299.051 235.256 299.051 235.256 298.503V297.493C235.256 297.493 235.424 297.395 235.564 297.212C235.663 297.072 235.733 296.904 235.803 296.862C235.943 296.791 236.603 296.581 236.954 296.651C237.304 296.721 238.231 297.1 238.722 297.072C239.732 297.044 240.911 296.272 242.777 296.623C245.584 297.142 246.244 299.051 247.871 300.131C248.98 300.889 250.131 300.552 250.299 300.552H250.678C250.748 300.552 251.267 299.963 251.548 299.991C252.109 300.019 252.166 300.482 252.516 300.51C253.344 300.608 254.944 300.089 255.744 300.3C256.123 300.398 256.614 300.791 256.754 301.31C256.923 301.829 256.782 302.489 256.375 302.868C255.505 303.668 254.677 304.425 254.509 305.085C254.748 305.253 255.169 305.646 255.169 305.646C255.169 305.646 254.79 305.997 254.088 306.334C253.779 306.474 253.288 306.713 252.741 306.783C251.702 306.881 250.411 307.022 249.654 308.13C248.896 309.239 246.286 308.621 246.286 308.621L233.796 308.285Z"/><path fill="#FFD8B3" d="M309.982 269.609C309.982 269.609 312.171 266.69 312.929 265.245C313.687 263.758 310.529 244.883 310.529 244.883L316.872 224.1L316.704 217.336C316.704 217.336 317.013 211.091 317.742 208.383C318.612 209.941 321.321 211.821 321.91 212.817C322.191 210.909 323.131 206.881 322.991 202.587C323.51 203.387 324.759 211.428 324.759 211.428L326.008 216.845L327.636 222.598L329.446 228.675L330.526 232.871L331.144 233.881L331.663 235.649L332.154 237.558L333.572 242.034L334.4 245.711L335.059 252.377C335.059 252.377 335.298 253.205 335.368 253.934C335.396 254.664 335.27 255.085 335.27 255.211C335.27 255.352 335.508 256.811 335.41 257.92C335.27 259.028 335.27 259.898 334.4 260.698C333.53 261.498 332.982 266.255 332.982 266.255L331.425 265.217C331.425 265.217 331.733 263.8 331.004 262.509C330.274 261.232 328.857 260.951 328.057 261.161C327.257 261.33 325.657 261.582 325.138 262.031C324.647 262.48 323.44 263.87 322.331 264.501C320.942 265.329 318.683 265.399 317.476 265.68C316.255 265.961 314.908 266.789 313.49 267.757C312.017 268.711 310.529 269.399 309.982 269.609Z"/><path fill="#FFD8B3" d="M309.982 300.272C309.982 300.272 311.203 301.072 313.448 301.619C315.693 302.166 321.433 305.464 321.433 305.464L326.26 308.411L332.224 308.86L337.459 308.13C337.459 308.13 337.627 305.913 337.29 297.647C336.94 289.354 336.673 288.175 336.673 287.558C336.673 286.94 336.462 276.415 336.224 274.128C335.985 271.841 336.154 269.511 336.084 268.164C336.013 266.817 335.256 261.33 334.905 259.913C334.526 258.495 333.796 257.794 333.684 257.794C333.586 257.822 332.996 260.46 332.996 261.119C332.996 261.779 332.856 263.379 332.856 263.786C332.758 263.758 332.716 263.505 332.716 263.407C332.575 263.758 332.407 264.375 332.337 264.445C332.267 264.515 332.435 263.856 332.337 263.715C332.238 263.575 332.056 263.645 332.098 263.294C332.126 262.944 332.196 262.677 332.196 262.677C332.196 262.677 331.775 263.294 331.467 264.866C331.158 266.424 331.158 266.466 331.046 266.606C330.947 266.775 330.386 267.336 330.358 267.547C330.33 267.925 330.877 268.304 330.919 268.515C330.947 268.866 330.428 270.493 330.26 271.293C330.091 272.093 330.162 273.651 329.979 274.451C329.839 275.181 329.699 275.602 329.221 275.91C329.572 275.98 329.909 276.079 329.909 276.079C329.909 276.079 330.4 278.156 329.151 279.924C328.702 280.541 328.59 280.822 328.113 281.383C327.173 282.422 326.443 283.6 326.373 284.372C326.302 284.092 326.274 283.685 326.274 283.685C326.274 283.685 324.815 285.383 324.198 286.351C323.398 287.6 322.289 287.53 321.98 287.838C321.672 288.147 321.601 288.708 321.7 289.157C321.419 289.228 320.9 289.326 320.549 290.406C320.381 290.968 319.96 291.515 319.3 291.894C318.64 292.273 317.841 292.385 317.434 292.483C317.784 292.582 317.925 292.582 318.093 292.694C317.883 293.045 316.914 293.592 315.834 294.294C314.753 294.953 314.234 295.921 313.967 296.553C313.687 297.142 313.28 297.521 312.62 297.591C312.901 297.76 313.308 298.153 313.518 298.279C313.21 298.349 312.69 298.349 311.75 299.149C310.768 299.963 310.431 300.202 309.982 300.272Z"/><path fill="#FFD8B3" d="M289.129 308.046C289.129 308.046 289.999 306.699 292.188 305.857C294.377 304.987 296.693 304.818 297.605 304.538C298.475 304.257 299.162 303.878 300.243 303.668C300.145 304.496 300.103 305.155 299.864 305.716C300.664 305.857 302.671 304.299 303.751 303.948C304.832 303.597 307.288 303.078 307.498 302.91C307.709 302.741 308.158 301.731 308.298 301.689C308.438 301.661 308.817 301.899 309.056 301.899C309.505 301.899 312.662 298.981 315.16 299.023C317.63 299.051 320.437 301.1 320.016 302.938C320.675 302.559 321.363 302.208 321.924 302.349C321.854 302.587 321.826 302.868 321.826 302.868C321.826 302.868 323.173 302.559 323.524 303.008C323.903 303.457 323.692 303.878 324.604 304.945C325.334 305.843 325.124 306.053 324.983 306.362C325.334 306.46 327.06 307.05 328.66 308.551C330.26 310.039 315.89 309.112 315.89 309.112L289.381 308.874L289.129 308.046Z"/><path fill="#FFD8B3" d="M330.821 249.205C330.821 249.205 330.372 251.633 329.572 253.163C328.772 254.692 327.902 256.811 327.902 256.811C327.902 256.811 327.902 256.053 328.071 255.394C327.06 255.983 324.604 257.401 323.903 258.032C323.243 258.621 322.135 259.66 321.854 260.151C322.513 258.214 323.201 256.474 323.313 255.674C322.303 256.404 317.588 260.291 315.132 262.859L307.484 269.048C307.484 269.048 306.305 269.708 304.776 270.325C303.457 270.886 301.899 271.363 300.748 271.813C301.057 270.985 301.548 270.255 302.236 269.553C302.965 268.866 305.155 266.494 305.491 265.385C305.8 264.235 305.87 263.547 305.463 262.579C305.084 262.677 304.214 262.719 303.625 262.887C303.036 263.056 302.404 263.687 302.404 263.687C302.404 263.687 302.853 261.119 303.821 258.692C303.092 258.72 301.843 258.93 301.843 258.93C301.843 258.93 303.583 256.011 306.558 253.976C306.067 254.075 304.958 254.355 303.892 254.804C302.151 255.534 300.243 256.615 298.826 257.204C299.626 256.095 305.239 248.083 308.579 240.617C311.904 233.165 313.153 231.257 313.883 227.257C314.262 225.279 314.164 222.36 314.262 219.736C314.36 217.14 314.683 214.81 314.473 213.252C315.343 214.333 318.598 217.378 318.711 224.184C318.809 230.99 315.595 240.182 312.185 245.136C313.013 245.374 315.174 245.655 317.391 241.81C319.609 237.965 319.581 236.884 320.38 235.284C320.479 236.084 320.451 236.365 320.451 236.365C320.451 236.365 323.678 232.45 325.208 227.524C325.517 229.643 326.429 231.51 324.997 235.397C323.72 238.905 322.05 239.761 322.05 239.761C322.05 239.761 322.878 239.621 324.099 238.891C324.31 239.41 324.268 240 324.618 240.21C324.969 240.421 325.446 240.771 325.517 241.108C325.895 240.547 326.485 239.831 326.667 239.298C326.527 240.406 326.429 245.262 326.948 247.732C328.029 247.634 329.137 247.563 329.895 245.613C329.376 247.521 329.376 248.672 329.727 250.3C330.302 249.907 330.821 249.205 330.821 249.205Z"/><path fill="#FFD8B3" d="M294.363 171.855C294.363 171.855 293.283 172.304 291.444 172.304C289.844 172.304 290.294 171.686 287.796 171.686C283.951 171.686 270.521 173.904 268.163 173.876C266.634 173.848 273.328 174.535 273.328 174.535L290.434 174.774L293.872 174.493L295.149 171.897L294.363 171.855Z"/><path fill="#FFD8B3" d="M250.004 205.296C250.004 205.296 247.815 206.966 246.889 208.243C245.949 209.52 245.472 210.362 244.419 211.4C244.77 211.428 245.149 211.302 245.149 211.302C245.149 211.302 245.149 211.582 244.981 211.653C245.331 211.625 245.598 211.751 245.78 211.933C245.472 212.102 244.63 212.944 245.289 213.94C245.78 214.698 246.819 214.768 246.819 214.768C246.819 214.768 246.58 215.456 247.577 215.385C249.724 215.287 252.123 214.347 253.232 214.586C254.341 214.866 254.972 214.964 255.758 216.326C256.586 217.673 257.316 217.883 257.316 217.883C257.316 217.883 257.807 216.634 257.694 214.768C258.354 213.168 258.354 211.611 258.354 211.611L257.624 206.236L254.439 202.208L250.313 204.496L250.004 205.296Z"/><path fill="#FFD8B3" d="M253.919 204.496C253.919 204.496 254.228 205.225 255.519 205.296C255.379 205.604 255.379 205.646 255.421 205.885C255.449 206.124 255.491 206.474 255.491 206.474C255.491 206.474 255.66 206.404 255.87 206.194C255.94 206.502 255.8 206.994 255.87 207.344C255.94 207.695 256.081 207.962 256.081 207.962C256.081 207.962 256.109 207.892 256.151 207.822C256.179 207.751 256.431 208.579 257.119 209.211C257.119 209.042 257.189 208.93 257.189 208.93C257.189 208.93 257.189 209.169 257.358 209.421C257.287 209.393 257.217 209.323 257.217 209.323C257.217 209.323 257.287 211.54 257.666 212.691C257.765 212.551 257.807 212.523 257.835 212.452C257.835 212.382 257.807 213.07 257.736 213.561C257.638 214.052 257.708 214.74 257.708 214.74C257.708 214.74 258.087 214.431 258.536 214.249C258.957 214.08 259.645 213.561 260.066 212.41C260.487 211.26 260.627 210.404 260.627 210.404C260.627 210.404 260.866 210.853 260.908 211.232C260.936 211.582 261.596 211.4 261.596 211.4L261.736 209.87L262.564 206.404L263.322 204.257L266.97 198.574L273.566 193.508L279.319 194.827L284.175 188.231L275.811 183.208L267.896 184.035L260.711 193.985L254.958 203.008L253.919 204.496Z"/><path fill="#FFD8B3" d="M295.373 190.098C295.373 190.098 294.882 190.196 293.465 190.926C292.048 191.655 291.065 191.894 290.518 192.975C289.957 194.055 289.929 194.911 289.929 194.911C289.929 194.911 290.897 194.49 291.458 194.35C292.048 194.209 292.707 194.252 292.637 194.49C292.567 194.701 292.356 194.939 292.356 194.939C292.356 194.939 293.465 194.911 293.437 195.458C293.409 196.02 293.226 196.609 293.016 196.876C292.805 197.156 291.935 197.563 291.837 197.886C291.599 198.546 291.935 198.574 291.809 199.107C291.711 199.626 291.248 200.637 289.732 202.405C288.174 204.173 287.515 205.422 287.515 205.422C287.515 205.422 286.757 204.005 286.364 202.784C286.084 202.924 284.596 203.752 284.596 203.752L281.144 191.726L281.214 190.926C281.214 190.926 281.523 190.547 281.593 189.845C281.074 189.677 281.004 189.536 280.316 188.877C279.628 188.217 279.067 187.417 277.916 186.87C277.748 186.561 277.537 186.14 276.695 185.972C275.867 185.804 275.348 185.663 275.348 185.663C275.348 185.663 275.797 185.495 276.008 185.144C275.489 185.214 275.068 185.383 273.931 185.355C272.78 185.327 272.654 185.284 272.022 185.383C271.391 185.481 270.633 185.762 270.352 184.793C270.044 184.555 269.384 184.765 268.823 185.593C268.261 186.421 268.065 187.081 266.984 187.403C266.956 187.614 266.844 188.161 266.493 188.751C266.185 189.27 265.693 189.789 265.034 190.561C263.995 191.782 264.164 193.788 262.508 195.318C260.838 196.848 262.789 191.08 262.789 191.08L265.455 184.695L273.047 177.272L284.835 176.472L285.985 182.576L291.739 184.555L295.373 190.098Z"/><path fill="#FFD8B3" d="M297.24 191.445L292.286 184.302L288.82 181.636C288.82 181.636 286.35 177.089 286.182 176.949C286.041 176.851 283.712 176.598 282.224 176.5L282.505 177.187C282.505 177.187 282.996 177.328 283.333 177.749C283.992 178.507 284.413 179.938 282.912 181.468C283.501 181.678 283.74 181.748 284.259 181.678C283.74 182.295 282.561 183.615 282.491 184.765C282.421 185.706 283.01 185.986 283.01 185.986C283.01 185.986 282.112 187.025 282.07 188.765C282.28 188.526 282.758 188.007 283.459 187.446C284.498 186.618 285.929 185.677 286.897 185.088C286.869 185.467 286.996 185.818 286.996 185.818C286.996 185.818 288.806 184.33 290.321 184.99C291.009 185.299 290.7 186.267 290.7 186.267C290.7 186.267 291.641 185.916 292.3 186.576C292.96 187.235 293.9 188.933 294.377 189.593C294.587 189.901 295.135 190.491 295.696 191.403C296.356 192.483 297.085 193.971 297.605 195.43C297.633 194.869 297.745 194.083 298.713 194.083L297.24 191.445Z"/><path fill="#FFD8B3" d="M222.976 211.737C222.976 211.737 222.626 210.867 222.976 209.169C223.327 207.471 223.875 206.671 224.057 204.173C224.225 201.675 225.867 198.56 225.867 198.56L230.372 196.511L233.557 197.381L234.498 201.647L230.47 203.864C230.47 203.864 230.26 204.805 229.123 205.562C227.972 206.32 226.415 206.909 226.036 207.681C225.657 208.481 225.544 209.169 225.544 209.169C225.544 209.169 224.394 208.93 223.706 209.688C222.976 210.46 223.005 211.147 222.976 211.737Z"/><path fill="#FFD8B3" d="M232.07 210.6C232.07 210.6 231.691 210.839 231.41 211.428C231.13 210.979 230.47 208.313 230.442 205.913C230.414 203.513 230.274 202.924 230.821 202.096C231.382 201.268 233.557 200.398 233.249 198.911C232.94 197.493 231.649 196.904 230.063 197.311C228.955 197.592 228.127 199.949 226.976 201.128C226.106 202.026 225.067 201.886 224.787 202.377C224.408 203.036 224.759 203.696 224.646 204.117C224.618 204.257 224.268 205.015 223.636 205.927C222.359 207.766 220.198 210.362 219.917 212.691C220.016 211.372 219.945 211.344 220.296 209.885L220.086 209.534L221.475 204.987L222.373 201.24L224.38 194.967L227.916 188.554L231.354 184.709L234.933 184.948L235.354 190.322L237.403 200.412L241.711 205.717L234.806 210.362L232.07 210.6Z"/><path fill="#FFD8B3" d="M234.217 212.509C234.217 212.509 233.628 212.649 233.417 212.537C233.207 212.438 232.996 212.298 233.067 212.158C233.137 212.017 233.516 211.779 233.516 211.667C233.516 211.568 233.488 211.288 233.165 211.246C232.842 211.204 232.744 211.414 232.744 211.414C232.744 211.414 232.435 211.175 232.182 211.133C232.393 211.105 232.632 211.105 232.632 211.105C232.632 211.105 232.042 210.825 231.411 210.754C231.761 210.544 232.449 209.927 232.898 209.927C233.347 209.927 233.628 209.856 233.558 209.618C233.488 209.379 233.137 209.028 232.758 208.888C232.898 208.72 232.996 208.467 232.66 207.779C232.309 207.092 232.449 206.629 232.561 206.46C232.66 206.25 233.01 205.871 233.179 205.632C233.347 205.394 233.488 205.071 233.768 204.903C233.909 204.804 234.358 204.622 234.807 204.454C235.298 204.285 235.705 204.075 235.985 204.285C236.294 204.496 236.154 204.776 236.154 204.776C236.154 204.776 237.122 204.426 237.992 204.875C238.862 205.296 240.981 205.562 240.981 205.562L241.739 207.092L236.715 211.4L234.638 212.438L234.217 212.509Z"/><path fill="#FFD8B3" d="M241.192 205.464C241.192 205.464 239.634 206.503 239.283 206.881C239.494 206.909 239.845 207.05 239.704 207.26C239.536 207.471 238.525 208.201 237.964 208.888C237.375 209.576 236.813 210.446 236.617 210.867C236.406 211.246 234.807 212.354 234.259 212.495C235.41 212.495 237.726 211.077 238.596 211.077C238.568 211.498 238.834 211.975 239.325 212.018C239.816 212.046 241.234 212.326 243.142 211.147C245.051 209.997 244.419 209.141 245.219 208.579C246.749 207.569 247.366 206.671 248.208 206.11C249.036 205.548 249.485 205.422 249.485 205.422C249.485 205.422 249.513 205.001 249.766 205.043C250.004 205.071 250.075 205.282 250.075 205.282C250.075 205.282 251.534 204.243 253.4 203.963C253.33 203.934 253.302 203.864 253.302 203.864C253.302 203.864 253.443 203.794 253.471 203.724C253.471 203.724 253.569 203.584 253.639 203.654C253.709 203.724 253.807 204.243 253.948 204.454C254.257 204.313 254.846 202.994 254.846 202.994L256.263 198.939V195.234L255.155 195.444L246.833 198.981L241.781 204.215L241.192 205.464Z"/><path fill="#FFD8B3" d="M265.16 187.291C265.16 187.291 265.89 187.123 266.437 186.772C266.269 187.221 266.269 187.712 265.539 188.779C264.809 189.859 264.781 190 264.192 191.108C263.603 192.259 263.532 193.915 262.971 194.645C263.42 194.434 263.771 194.406 263.771 194.406C263.771 194.406 263.21 194.897 262.971 195.416C262.732 195.936 262.311 197.016 261.273 197.676C260.235 198.335 258.915 198.756 257.498 200.314C256.081 201.843 254.621 203.78 253.892 204.482C254.271 203.822 254.79 202.503 254.93 201.633C255.07 200.763 254.902 199.724 255.141 198.574C255.379 197.423 255.379 196.595 256.53 194.588C257.681 192.582 259.645 185.607 259.645 185.607L263.883 184.26L265.16 187.291Z"/><path fill="#FFD8B3" d="M262.101 184.723C262.101 184.723 260.824 186.561 260.473 188.189C260.123 189.817 260.445 189.677 260.235 190.477C260.024 191.277 260.235 191.964 260.235 191.964C260.235 191.964 260.796 190.954 262.003 190.224C263.21 189.494 264.192 188.975 264.781 188.358C265.371 187.698 265.862 186.618 267.139 185.79C266.62 185.719 265.89 185.481 265.75 185.509C266.269 184.92 267.827 184.021 269.398 182.941C270.956 181.832 270.858 181.383 273.384 180.275C272.556 180.415 272.163 180.204 271.475 180.275C271.756 179.685 272.724 179.405 273.693 178.436C274.661 177.468 273.075 176.037 273.075 176.037L265.68 180.513L262.101 184.723Z"/><path fill="#FFD8B3" d="M242.019 181.383L242.188 180.036L244.307 176.64L246.524 170.676V162.523L246.356 157.808L246.707 154.72L246.973 153.738L247.254 153.359L249.064 154.299L251.562 157.695L251.801 164.249L249.373 174.591L242.44 182.155L242.019 181.383Z"/><path fill="#FFD8B3" d="M247.535 152.98C247.535 152.98 246.426 153.008 246.188 157.625C245.949 162.242 245.837 164.67 245.668 166.957C245.5 169.245 245.107 170.634 244.911 171.981C244.7 173.328 244.602 175.167 243.97 176.289C243.69 176.808 243.1 178.436 241.711 179.657C240.153 181.004 237.824 181.945 237.473 182.015C236.856 182.155 233.726 182.464 232.449 183.165C232 183.404 231.228 183.685 230.372 184.485C228.674 186.014 226.415 188.751 224.787 192.048C222.289 196.974 219.791 210.881 219.791 210.881L220.353 209.941C220.353 209.941 220.423 208.692 221.672 206.503C222.893 204.313 222.542 201.858 224.24 197.662C224.899 196.062 225.727 193.985 226.738 192.217C228.338 189.34 230.274 186.87 232.225 185.523C235.41 183.334 238.919 182.857 238.919 182.857L242.693 180.359C242.693 180.359 243.353 179.082 244.223 177.622C245.444 175.574 247.002 173.286 247.338 169.96C247.858 165.035 246.609 161.807 246.679 158.888C246.749 155.969 246.777 153.822 247.366 153.303C247.956 152.784 247.535 152.98 247.535 152.98Z"/><path fill="#FFD8B3" d="M247.534 175.012C247.534 175.012 249.204 170.915 249.962 167.28C250.102 166.55 250.383 165.821 250.453 165.231C250.804 161.793 250.902 160.376 250.453 158.495C250.102 157.106 248.755 155.857 248.054 154.889C247.366 153.878 247.043 153.5 247.184 153.289C247.324 153.079 247.871 152.728 248.404 152.77C248.924 152.798 250.271 152.91 251.393 154.159C252.474 155.408 253.33 159.646 253.33 159.646L254.228 165.231L256.516 172.276L247.534 175.012Z"/><path fill="#FFD8B3" d="M263.182 170.746C263.182 170.746 262.873 170.886 262.311 170.746C262.34 171.027 262.283 171.574 261.75 171.925C261.161 171.686 255.646 172.163 255.646 172.163C255.646 172.163 253.078 171.714 252.278 168.318C251.717 166.059 252.699 162.944 252.376 160.895C251.885 157.878 251.197 157.288 251.127 156.348C251.057 155.408 250.987 155.169 250.987 154.58C250.678 154.51 250.496 154.412 250.187 154.412C250.117 154.131 250.257 153.892 249.948 153.401C250.117 153.471 251.267 153.612 252.615 154.889C253.723 155.927 253.723 156.306 253.892 156.517C254.102 156.727 255.8 158.187 256.53 159.632C257.26 161.077 258.677 165.708 259 166.466C259.098 166.775 259.308 167.083 259.828 167.785C260.642 168.796 261.834 170.465 263.182 170.746Z"/><path fill="#FFD8B3" d="M254.088 156.587C254.607 157.415 255.575 159.085 256.375 160.853C257.203 162.719 257.694 164.249 258.733 165.498C258.171 163.87 257.175 160.67 256.586 159.534C255.926 158.327 254.579 157.036 254.088 156.587Z"/><path fill="#FFD8B3" d="M244.545 179.657C244.545 179.657 243.128 180.008 240.49 181.397C239.62 181.846 238.792 182.225 237.992 182.576C235.915 183.516 233.684 184.386 231.916 184.864C232.056 185.032 232.126 185.102 232.126 185.102C232.126 185.102 232.126 185.79 232.505 186.183C232.295 186.393 229.488 188.302 230.316 194.687C230.877 194.476 231.537 194.196 231.635 194.196C231.803 194.224 231.845 194.687 232.056 194.687C232.266 194.687 232.954 194.406 233.684 193.466C233.656 193.845 233.235 197.662 235.494 200.23C235.915 199.739 236.982 198.111 236.982 198.111L237.01 197.592C237.01 197.592 237.108 195.781 237.697 194.125C238.287 192.455 239.437 191.249 239.437 191.249L245.444 182.674L244.545 179.657Z"/><path fill="#FFD8B3" d="M238.932 192.245C238.932 192.245 238.511 192.554 238.034 192.694C237.936 192.343 237.795 191.136 238.623 189.957C239.591 188.54 241.71 186.702 242.3 185.242C242.679 184.302 242.51 181.945 245.878 178.927C249.246 175.91 250.565 174.872 250.565 174.872L256.01 172.135L262.704 174.774L259.378 187.81L256.796 193.915L246.524 191.978L238.932 192.245Z"/><path fill="#FFD8B3" d="M242.848 188.709L244.125 187.109V185.972C244.125 185.972 245.542 185.593 247.072 184.036C248.601 182.478 250.72 179.489 252.587 179.671C254.453 179.882 254.636 183.727 254.706 184.807C254.776 185.888 255.014 188.344 255.393 189.663C255.814 190.982 250.847 195.978 250.847 195.978L247.479 198.546L242.848 188.709Z"/><path fill="#FFD8B3" d="M246.804 202.026C246.804 202.026 247.843 200.398 247.085 200.047C247.534 199.037 248.362 197.97 248.362 197.97C248.362 197.97 248.951 196.511 250.86 194.715C252.768 192.904 253.947 191.726 254.256 190.519C254.565 189.298 254.565 188.119 254.565 188.119C254.565 188.119 254.944 188.428 255.224 188.568C255.533 188.708 256.992 189.915 256.782 192.343C256.571 194.771 255.673 195.781 255.673 195.781C255.673 195.781 254.803 196.651 254.186 197.1C253.526 197.549 253.288 198.069 252.179 198.111C252.347 197.97 252.558 197.9 252.558 197.9C252.558 197.9 251.407 197.76 250.79 198.321C250.172 198.882 248.853 200.608 248.194 201.128C247.534 201.549 246.804 202.026 246.804 202.026Z"/><path fill="#FFD8B3" d="M293.465 174.732C293.465 174.732 291.248 173.833 288.301 173.721C285.354 173.623 281.046 173.791 276.822 173.819C272.275 173.847 268.149 172.262 262.424 171.981C261.483 171.42 259.098 168.964 251.632 174.17C252.081 174.142 257.049 173.019 258.775 175.181C260.515 177.328 260.024 180.976 259.785 181.846C259.336 183.783 257.877 186.604 257.288 188.582C256.698 190.561 256.839 191.599 256.418 192.989C255.997 194.378 255.07 195.065 255.618 196.665C256.347 196.216 256.726 196.216 257.947 193.48C259.168 190.743 258.915 188.793 260.936 186.477C262.915 184.148 266.213 180.962 267.462 180.162C268.711 179.362 278.66 174.198 289.073 179.124C291.584 178.857 293.465 174.732 293.465 174.732Z"/><path fill="#FFD8B3" d="M255.828 172.823C255.828 172.823 255.8 172.584 255.758 172.514C255.589 172.164 255.379 171.953 255.379 171.953C255.379 171.953 252.909 171.504 251.66 171.644C249.471 171.883 247.492 174.591 246.566 175.981C245.626 177.37 244.489 179.517 243.24 180.625C243.268 180.457 243.17 180.317 243.17 180.317C243.17 180.317 243.24 180.415 243.1 180.555C242.959 180.696 242.959 180.766 243.03 180.836L243.24 181.046C243.31 181.046 245.247 180.176 247.885 177.721C250.692 175.153 252.839 173.833 253.961 173.384C254.817 172.991 255.828 172.823 255.828 172.823Z"/><path fill="#FFD8B3" d="M303.737 162.27C303.737 162.27 303.288 162.832 302.727 163.449C301.478 164.768 299.85 166.256 298.461 167.785C297.141 169.245 295.654 170.381 293.984 172.29C292.314 174.198 290.377 176.317 289.886 176.935C289.437 177.552 289.086 178.563 289.086 179.082C288.848 178.914 288.567 178.731 288.567 178.731C288.567 178.731 288.708 179.012 288.988 179.349C289.339 179.84 289.886 180.457 290.167 180.836C290.616 181.453 290.855 182.183 290.897 182.436C291.065 182.464 292.146 182.674 293.493 180.457C294.84 178.24 296.608 175.812 296.608 175.812L299.415 171.644L301.183 168.108L303.4 164.151L303.737 162.27Z"/><path fill="#FFD8B3" d="M306.614 159.435C306.614 159.435 304.916 160.825 304.256 161.653C303.597 162.481 302.039 164.67 302.039 164.67L302.601 164.6L305.449 162.074L306.558 160.095L306.614 159.435Z"/><path fill="#FFD8B3" d="M306.095 270.956C306.095 270.956 306.067 269.806 306.712 269.118C307.372 268.43 309.042 267.42 310.669 263.631C312.297 259.856 312.48 258.986 312.48 258.986C312.48 258.986 309.561 261.484 307.765 262.073C308.186 261.203 308.424 260.586 308.635 260.137C308.396 259.926 307.386 259.688 307.287 259.576C307.849 259.014 308.157 257.639 309.294 256.727C310.754 255.618 313.42 253.71 315.497 252.012C317.574 250.314 321.643 246.356 322.162 245.206C322.471 245.655 322.541 245.935 322.541 245.935C322.541 245.935 320.493 248.602 319.426 250.3C318.486 251.759 318.556 252.587 318.556 252.587L320.493 251.759C320.493 251.759 321.054 253.836 318.514 256.993C319.622 256.573 320.072 256.825 320.703 256.474C319.665 257.134 318.233 258.032 316.886 260.502C315.567 262.972 313.771 265.848 310.74 267.645C307.793 269.539 306.095 270.956 306.095 270.956Z"/><path fill="#FFD8B3" d="M298.489 176.191C298.489 176.191 297.338 178.591 297.17 180.457C297.142 180.906 297.03 181.257 297.03 181.776C297.001 183.446 297.128 185.313 296.749 186.183C296.609 185.832 296.538 185.593 296.398 185.453C296.188 186.042 295.809 187.881 295.5 188.568C295.36 188.119 295.051 186.562 295.079 184.723C295.107 182.885 295.149 182.534 295.149 182.155C295.079 182.716 294.7 183.474 294.56 183.923C294.349 183.544 294.111 183.053 293.83 182.646C293.662 182.927 293.451 183.334 293.269 183.544C293.241 183.376 293.17 182.927 293.128 182.296C293.1 181.566 293.058 180.626 293.1 180.429C293.17 180.05 293.76 178.563 295.009 177.201C296.496 175.574 298.026 172.444 298.475 171.476C298.924 170.508 300.832 166.48 300.832 166.48H302.292L300.173 171.308C300.173 171.308 298.896 173.946 298.236 174.914C297.577 175.882 296.188 178.661 295.57 179.741C296.019 179.152 296.398 178.843 296.847 178.282C297.282 177.889 298.489 176.191 298.489 176.191Z"/><path fill="#FFD8B3" d="M306.642 159.253C306.642 159.253 306.361 160.263 305.533 161.26C304.663 162.298 302.797 163.688 301.885 164.796C301.057 165.877 299.387 168.824 300.144 172.318C300.425 171.56 300.944 170.059 302.334 168.361C303.723 166.663 305.21 164.712 305.94 163.196C306.67 161.667 306.768 160.46 306.768 160.46L307.049 160.109L306.88 159.309L306.642 159.253Z"/><path fill="#FFD8B3" d="M335.059 252.335C335.059 252.335 334.497 250.805 334.329 249.416C334.16 248.026 334.609 247.746 334.09 246.16C333.782 245.192 333.22 245.332 333.08 245.192C332.94 245.051 332.841 243.592 332.869 242.792C332.897 241.992 332.841 240.954 332.701 240.505C332.49 240.336 332.35 240.196 332.041 239.157C331.691 238.119 331.522 237.6 331.354 237.291C331.185 236.982 330.694 236.702 330.694 236.393C330.694 235.775 331.256 235.453 331.256 235.284C331.227 234.933 330.806 235.214 330.694 235.116C330.554 234.948 331.045 233.937 330.863 233.797C330.792 233.727 330.301 234.316 330.175 234.148C330.035 233.979 329.866 232.309 329.614 231.201C329.375 230.12 329.123 229.334 329.094 229.012C329.066 228.703 327.158 223.258 326.695 221.939C326.246 220.62 325.895 219.202 325.755 218.543C325.614 217.883 325.516 216.536 325.446 216.676C325.376 216.817 325.418 217.504 325.306 217.476C325.207 217.448 324.856 215.049 324.744 214.67C324.646 214.291 324.057 213 323.916 212.074C323.776 211.133 323.467 208.678 323.257 207.008C323.046 205.338 322.948 204.65 322.948 204.229C322.948 204.019 323.018 202.812 322.78 201.17C322.499 199.402 321.952 197.255 321.46 196.006C320.52 193.648 318.022 187.614 317.573 186.112C317.573 185.733 318.064 185.944 318.064 185.944C318.064 185.944 319.285 189.003 320.183 191.361C321.054 193.718 321.881 195.795 322.092 196.006C322.26 196.216 323.579 198.532 324.169 202.321C324.758 206.11 324.969 209.604 325.32 211.933C325.488 213.042 325.628 214.221 325.979 215.399C326.358 216.676 326.947 217.996 327.719 220.016C328.379 221.714 328.87 223.132 329.137 224.353C329.445 225.91 329.445 227.089 329.628 227.861C329.796 228.52 330.049 229.839 330.638 231.748C331.227 233.656 332.098 236.112 332.687 237.642C333.838 240.701 334.357 243.255 334.525 244.616C334.68 246.02 335.199 250.875 335.059 252.335Z"/><path fill="#FFD8B3" d="M306.712 159.085L306.642 159.253C306.642 159.253 306.852 159.323 306.81 159.604C306.81 159.744 306.81 160.292 306.74 160.755C306.67 161.246 306.529 161.625 306.501 161.933C306.501 162.593 306.6 163.351 305.673 165.231C305.393 165.75 305.224 166.199 305.084 166.508C304.733 167.266 304.663 167.378 304.354 167.729C304.845 167.448 306.614 166.34 307.512 166.508C306.894 166.859 305.954 167.547 305.365 168.445C305.505 168.473 306.094 168.585 307.035 168.445C308.592 168.206 310.332 167.645 311.862 167.757C313.532 167.855 312.872 165.75 312.872 165.75L310.936 161.512L307.287 158.944L306.712 159.085Z"/><path fill="#FFD8B3" d="M316.227 190.828C316.227 190.828 314.599 189.2 313.939 183.615C313.28 178.001 313.42 169.736 313.42 169.736L312.101 166.508C312.101 166.508 311.82 164.361 311.133 163.561C310.445 162.761 309.084 161.414 308.466 160.755C307.849 160.095 307.147 159.197 306.726 159.057C306.937 158.706 307.877 156.727 311.483 156.699C315.09 156.671 316.198 158.678 316.577 159.407C316.956 160.137 318.654 163.295 319.286 169.301C319.875 175.307 319.903 175.756 319.805 177.833C319.735 178.984 319.356 181.65 318.696 184.499C318.093 186.912 317.433 189.607 316.227 190.828Z"/><path fill="#FFD8B3" d="M311.119 195.613C311.119 195.613 311.876 195.711 312.676 195.262C313.196 195.234 315.076 195.472 316.521 193.634C316.62 194.055 316.872 195.192 316.213 196.202C316.563 195.851 317.083 195.711 317.153 195.613C317.181 196.132 317.672 197.732 315.595 201.619C316.156 201.002 316.816 201.03 317.405 200.959C317.434 201.689 317.826 204.145 316.788 205.464C316.1 206.362 314.978 206.081 314.978 206.081C314.978 206.081 315.006 205.773 314.978 205.492C314.95 205.113 314.809 204.734 314.908 204.482C314.767 204.412 314.178 204.173 313.448 203.471C312.227 202.321 310.641 200.356 310.529 198.897C310.389 197.269 311.848 196.918 311.848 196.918C311.848 196.918 311.68 196.778 311.54 196.539C311.469 196.3 311.399 195.922 311.119 195.613Z"/><path fill="#FFD8B3" d="M300.299 177.959C300.299 177.959 300.229 177.861 299.85 178.31C299.92 177.861 299.99 177.44 300.018 177.033C300.159 176.724 300.397 176.345 300.706 175.995C300.496 176.416 300.355 176.794 300.355 176.794C300.355 176.794 300.874 175.826 301.632 175.237C302.151 174.816 302.811 174.619 303.092 174.226C303.4 173.805 303.33 173.735 303.4 173.665C303.4 173.665 304.088 173.216 305.141 171.897C305.281 171.728 305.491 171.546 305.632 171.378C305.87 171.279 306.432 171.027 307.091 170.69C307.779 170.311 308.551 169.792 309.028 169.581C309.968 169.16 310.964 169.203 311.427 168.543C311.778 168.445 312.157 167.392 312.087 166.494C312.606 166.705 315.272 168.361 316.185 171.981C316.844 174.549 315.665 178.506 315.174 180.415C314.683 182.323 314.613 183.741 313.925 184.611C313.055 185.762 310.249 187.389 309.561 188.189C308.972 188.849 307.203 190.519 307.274 191.726C307.344 192.624 308.452 193.115 308.691 193.283C308.929 193.452 308.929 193.662 309.379 193.564C309.828 193.466 309.996 193.255 310.178 193.255C310.389 193.283 310.389 193.325 310.487 193.325C310.585 193.325 310.698 193.297 310.698 193.297C310.698 193.297 310.627 194.574 307.638 194.967C307.428 194.995 307.217 195.066 306.951 195.108C307.302 194.939 307.512 194.939 307.891 194.42C307.47 194.35 306.263 194.28 305.954 194.181C306.053 194.013 306.375 193.564 306.642 193.353C306.881 193.143 306.614 193.073 306.403 193.185C306.305 193.255 305.842 193.564 305.365 193.985C305.014 194.294 304.705 194.715 304.144 195.094C303.976 194.532 304.004 193.466 304.663 192.694C304.495 192.722 304.172 193.213 303.864 193.115C303.835 192.904 303.793 192.217 303.962 191.585C304.13 190.954 305.042 189.845 305.042 189.845L309.449 181.973L310.389 176.009L300.299 177.959Z"/><path fill="#FFD8B3" d="M300.06 178.296C300.06 178.296 299.822 178.464 300.299 178.787C300.229 178.885 300.06 179.236 299.85 179.475C299.611 179.756 299.359 179.924 299.26 180.162C299.05 180.654 298.882 180.99 298.882 181.201C298.882 181.411 298.811 182.759 298.222 183.629C298.012 183.937 297.773 184.457 297.605 184.807C297.254 185.425 296.945 185.916 296.875 186.197C296.735 186.688 296.636 188.035 296.636 188.035C296.636 188.035 296.945 187.656 297.057 187.516C296.889 187.867 296.706 188.246 296.44 188.526C296.608 188.386 297.099 188.035 297.927 187.305C299.078 186.337 300.874 184.709 303.063 183.418C302.404 183.657 301.843 183.657 301.394 183.727C301.744 183.376 304.902 179.671 306.558 179.321C306.726 179.11 306.698 178.871 306.698 178.871L305.281 178.731L302.404 179.349L301.983 177.131L300.06 178.296Z"/><path fill="#FFD8B3" d="M304.635 190.926C304.635 190.926 304.257 191.305 303.906 192.245C303.808 192.147 303.485 191.796 303.218 191.305C302.699 190.435 301.899 189.326 300.033 189.958C300.005 189.368 299.962 189.059 300.033 188.638C300.341 188.568 301.282 187.81 302.222 186.702C302.881 185.944 303.499 185.074 303.92 183.965C304.2 183.755 304.678 183.404 305.309 182.997C306.207 182.38 307.288 181.538 307.456 180.597C307.035 180.766 306.137 181.187 304.79 181.117C305.309 180.878 306.109 180.626 306.011 179.587C306.221 179.447 306.39 179.348 306.39 179.348C306.39 179.348 306.221 179.278 305.898 179.278C305.87 179.18 305.828 179.04 305.59 179.11C305.351 179.18 305.309 179.18 305.281 179.278C305.183 179.306 304.86 179.278 304.621 179.447C304.383 179.615 303.723 180.176 303.471 180.275C303.569 180.106 303.709 179.854 303.709 179.854C303.709 179.854 303.022 179.924 302.53 180.134C301.632 180.443 300.594 181.004 299.541 181.552C299.64 181.383 299.682 181.271 299.752 181.243C299.822 181.215 299.991 181.173 299.991 181.145C299.991 181.117 299.92 180.864 299.962 180.766C299.991 180.668 300.58 179.517 301.071 178.857C301.562 178.198 301.66 177.258 301.66 177.258L303.808 176.177L309.842 174.788L313.757 175.026L313.266 177.735L310.95 182.464L308.972 186.772L306.712 189.41L304.635 190.926Z"/><path fill="#FFD8B3" d="M314.416 179.208C314.416 179.208 312.059 182.127 311.399 182.576C311.82 181.678 314.416 176.331 315.356 174.844C315.146 174.676 314.865 174.676 315.525 172.065C314.963 173.384 314.767 174.072 314.304 174.423C313.855 174.774 313.785 174.661 313.476 174.661C313.574 174.493 313.546 174.311 313.546 174.311C313.546 174.311 311.567 174.072 310.22 174.072C308.873 174.072 306.193 174.802 304.705 175.391C303.526 175.882 302.867 175.882 302.446 176.191C302.025 176.542 301.786 176.921 301.576 177.019C301.407 177.117 300.608 177.37 300.425 177.636C300.257 177.917 299.976 178.226 299.976 178.296C299.976 178.366 299.906 178.464 300.116 178.394C300.187 178.366 300.706 178.086 301.295 177.735C302.095 177.286 303.063 176.766 303.765 176.458C305.772 175.658 306.403 175.798 307.301 175.63C308.242 175.461 309.589 175.068 310.487 175.068C311.385 175.04 313.083 175.068 313.476 175.139C313.308 175.279 313.167 175.447 313.237 176.037C313.237 176.205 313.097 176.388 312.957 176.795C312.536 177.945 311.736 179.854 311.287 180.822C310.669 182.141 309.968 183.25 309.617 183.937C309.266 184.625 308.508 186.435 307.75 187.404C306.993 188.372 306.6 188.961 306.361 189.172C306.123 189.382 304.425 190.631 304.551 191.08C304.86 190.982 306.81 190.252 308.228 188.652C309.645 187.053 309.926 186.084 311.034 185.214C312.143 184.344 313.013 182.885 313.532 181.678C313.967 180.555 313.869 180.205 314.416 179.208Z"/><path fill="#FFD8B3" d="M263.603 200.987C263.603 200.987 263.294 202.264 262.592 202.896C261.905 203.513 260.684 204.047 260.543 205.085C260.375 206.124 261.764 206.643 261.764 206.643C261.764 206.643 261.007 207.892 261.007 208.832C261.007 209.8 260.978 209.983 261.077 210.909C260.908 211.007 260.796 211.189 260.796 211.189C260.796 211.189 260.866 212.088 261.554 212.649C262.241 213.21 262.831 213.547 263.182 213.407C263.252 213.547 263.322 213.758 263.322 213.758C263.322 213.758 263.841 212.438 264.192 211.288C264.543 210.109 264.852 210.277 264.992 208.692C265.132 207.092 266.662 204.383 266.662 204.383L267.7 202.054L266.002 200.735L263.603 200.987Z"/><path fill="#FFD8B3" d="M266.76 203.275C266.76 203.275 266.241 203.794 265.792 204.426C265.343 205.043 264.992 205.604 264.332 205.843C263.673 206.082 263.252 206.082 263.294 206.741C263.336 207.401 263.953 207.681 264.304 208.018C264.683 208.369 264.992 208.958 264.823 209.618C265.034 209.52 265.413 209.407 265.764 208.65C266.115 207.892 268.57 203.275 268.57 203.275H266.76Z"/><path fill="#FFD8B3" d="M276.429 192.624C276.429 192.624 276.639 192.062 276.429 191.656C276.218 191.235 274.941 191.094 274.31 190.617C273.65 190.126 272.85 189.789 272.191 190C272.289 189.761 272.682 189.242 272.359 189.13C272.05 189.031 270.9 189.551 270.591 189.789C270.282 190.028 269.581 190.308 269.44 190.477C269.3 190.645 269.061 190.968 268.921 190.828C268.781 190.729 268.711 190.477 268.472 190.617C268.233 190.757 267.083 191.698 266.872 192.245C266.662 192.792 266.185 194.013 264.753 195.402C263.336 196.792 262.704 197.69 263.125 198.209C263.546 198.728 263.743 198.349 263.813 198.798C263.841 199.009 263.883 199.556 263.743 200.117C263.574 200.847 263.294 201.535 263.673 201.675C264.641 201.984 265.581 201.394 265.792 201.577C266.213 201.956 265.553 203.317 266.549 203.584C267.56 203.864 268.556 203.345 268.556 203.345L272.233 201.366L275.769 199.5L277.579 195.922L276.611 192.933L276.429 192.624Z"/><path fill="#FFD8B3" d="M272.962 201.17C272.962 201.17 272.345 200.23 273.103 199.402C273.86 198.574 274.941 198.223 275.362 197.704C275.222 197.535 275.053 197.493 275.053 197.493C275.053 197.493 275.432 196.735 276.274 196.342C276.064 196.132 275.783 195.964 275.474 195.964C274.787 195.964 274.366 196.385 273.734 196.385C273.117 196.385 273.046 196.076 273.046 196.076C273.046 196.076 274.085 195.978 273.987 195.514C273.888 195.023 273.706 195.023 273.706 195.023C273.706 195.023 275.713 194.195 276.064 193.746C276.414 193.297 276.372 192.778 276.442 192.568C276.681 192.568 278.07 191.838 278.632 192.147C279.193 192.455 278.8 193.297 278.8 193.297C278.8 193.297 280.498 192.02 281.368 190.771C282.126 190.841 282.477 190.252 283.038 190.252C283.726 190.252 284.806 191.192 285.017 193.199C285.157 194.35 285.367 195.009 285.157 197.044C285.059 198.195 285.087 200.651 285.438 201.871C285.676 202.84 286.238 202.742 286.238 202.742C286.238 202.742 286.139 203.163 285.746 203.499C285.368 203.85 285.325 204.776 285.367 205.127C285.438 205.478 285.578 205.885 285.578 205.885C285.578 205.885 285.129 206.404 285.017 206.755C284.918 207.106 284.455 207.344 284.119 207.344C283.768 207.344 283.95 207.316 283.501 207.344C283.052 207.372 282.912 207.443 282.631 207.344C282.35 207.246 282.14 207.134 282.252 206.236C282.35 205.338 278.786 203.247 278.786 203.247L272.962 201.17Z"/><path fill="#FFD8B3" d="M266.268 210.039C266.268 210.039 267.545 211.737 272.794 211.737C275.292 211.737 276.162 211.498 276.681 211.358C277.242 211.218 279.347 210.39 281.466 207.892C283.375 205.632 282.954 204.706 282.954 204.706L281.845 204.538L278.239 205.029L267.559 209.576L266.268 210.039Z"/><path fill="#FFD8B3" d="M270.184 210.46C270.184 210.46 265.637 211.47 265.637 208.593C265.637 205.787 268.444 202.84 269.146 202.321C269.875 201.801 271.615 201.212 271.615 201.212H275.811L276.611 203.331L276.26 207.906L270.184 210.46Z"/><path fill="#FFD8B3" d="M274.38 202.068C274.38 202.068 273.51 201.268 271.531 202.349C269.553 203.429 267.953 205.674 267.855 207.723C267.756 209.534 269.342 210.881 271.812 210.951C273.65 211.021 274.759 210.811 275.32 210.67C275.18 210.502 274.45 209.59 274.45 209.59L274.38 202.068Z"/><path fill="#FFD8B3" d="M273.524 202.517C273.524 202.517 273.313 202.349 272.696 202.686C272.177 202.966 271.419 203.696 270.829 204.215C270.45 204.524 270.212 204.664 270.001 204.903C269.131 205.941 268.402 207.639 268.823 208.481C269.244 209.309 270.633 210.291 274.169 209.632L273.524 202.517Z"/><path fill="#FFD8B3" d="M272.373 204.257C272.373 204.257 271.812 205.127 271.812 206.516C271.812 207.934 272.611 210.193 275.558 210.362C277.818 210.502 279.333 207.106 280.975 205.787C282.224 204.776 282.982 204.748 282.982 204.748C282.982 204.748 281.705 203.359 278.295 201.563C274.927 199.753 271.152 199.514 269.103 202.293C270.071 202.222 273.201 201.422 273.201 201.422L274.73 201.914L272.373 204.257Z"/><path fill="#FFD8B3" d="M276.779 206.096C276.681 205.885 276.611 205.604 277.018 205.534C277.439 205.464 277.607 205.506 277.747 205.815C277.888 206.124 278.028 206.376 277.818 206.503C277.607 206.615 277.06 206.503 276.779 206.096ZM276.12 204.117C276.12 204.117 275.979 204.215 276.049 204.019C276.077 203.78 276.26 203.359 276.709 203.457C277.158 203.556 277.06 204.047 276.99 204.187C276.919 204.327 276.541 204.566 276.26 204.468C275.979 204.369 276.12 204.117 276.12 204.117Z"/><path fill="#FFD8B3" d="M238.132 205.015C238.132 205.015 239.241 205.843 240.532 205.815C241.809 205.787 243.451 204.468 244.209 203.626C244.658 203.134 245.037 202.615 245.458 202.208C245.809 201.857 246.047 201.689 246.216 201.451C246.454 201.17 246.707 200.651 246.833 200.482C246.524 200.721 246.075 201.142 245.612 201.422C245.163 201.703 244.195 202.222 243.802 202.363C243.423 202.503 239.494 204.58 239.494 204.58L238.132 205.015Z"/><path fill="#FFD8B3" d="M239.83 194.645C239.83 194.645 240.448 194.224 241.641 193.957C242.791 193.676 245.107 193.466 245.107 193.466L247.015 194.294L247.773 197.171L246.384 200.16L244.616 201.268L242.609 198.041L239.83 194.645Z"/><path fill="#FFD8B3" d="M237.333 197.213L236.673 197.704C236.673 197.704 236.841 197.395 236.982 196.455C237.122 195.515 237.852 193.227 238.918 191.908C239.985 190.589 239.957 190.659 239.957 190.659C239.957 190.659 239.648 190.589 239.395 190.8C239.536 190.491 240.434 189.382 241.332 188.821C242.23 188.26 242.581 188.091 243.521 188.54C244.461 188.989 244.7 189.228 245.388 189.2C246.075 189.172 246.665 188.442 246.665 188.442C246.665 188.442 246.805 188.891 246.286 189.929C245.766 190.968 243.718 193.087 243.718 193.087L239.452 196.006L237.333 197.213Z"/><path fill="#FFD8B3" d="M240.49 194.294C240.49 194.294 243.577 194.715 244.517 193.845C244.545 193.943 244.658 193.943 244.658 194.013C244.658 194.083 244.587 194.153 244.587 194.153C244.587 194.153 244.756 194.125 244.896 194.125C245.037 194.153 245.135 194.195 245.275 194.195C245.415 194.195 245.584 194.167 245.584 194.167C245.584 194.167 245.556 194.406 245.373 194.518C245.514 194.518 245.654 194.546 245.654 194.659C245.654 194.771 245.682 195.108 245.514 195.178C245.303 195.248 245.093 195.15 245.093 195.15C245.093 195.15 245.093 195.529 245.303 195.907C245.584 196.427 246.173 197.016 246.973 196.848C246.973 196.848 247.394 197.858 245.626 200.103C245.387 200.412 245.135 200.833 244.826 201.184C244.587 201.745 244.545 202.012 244.545 202.012C244.545 202.012 247.534 200.861 248.39 198.237C249.261 195.599 249.429 193.003 249.261 190.575C249.232 189.887 249.12 189.396 248.952 189.045C248.531 188.175 247.352 188.316 246.875 188.807C246.187 189.494 245.037 191.206 243.437 192.385C241.809 193.564 241.739 193.774 240.49 194.294Z"/><path fill="#FFD8B3" d="M236.785 198.083C236.785 198.083 236.196 198.433 235.887 199.753C235.579 201.1 236.168 202.742 236.505 203.261C236.856 203.78 237.613 205.197 239.213 205.268C239.564 205.268 239.971 205.197 240.364 205.029C240.925 204.79 241.472 204.412 241.922 204.061C242.609 203.542 243.17 203.092 243.1 203.05C242.932 202.98 238.862 199.612 238.862 199.612L237.333 197.9L236.785 198.083Z"/><path fill="#FFD8B3" d="M240.63 203.668C240.63 203.668 241.458 203.598 241.95 203.289C242.441 202.98 239.073 199.64 239.073 199.64L239.311 203.247L240.63 203.668Z"/><path fill="#FFD8B3" d="M237.052 197.83C237.052 197.83 236.631 198.63 236.631 198.84C236.56 199.528 236.771 201.689 236.939 202.377C237.108 203.106 238.02 204.215 239.199 204.215C239.928 204.215 240.939 203.766 240.939 203.654C240.939 203.513 239.9 203.373 239.62 202.854C239.451 202.573 239.381 201.886 239.339 201.184C239.311 200.735 239.311 200.244 239.479 200.075C239.858 199.654 239.928 198.447 239.928 198.447L241.276 195.95H239.507L237.388 197.269L237.052 197.83Z"/><path fill="#FFD8B3" d="M236.533 198.602C236.533 198.602 237.922 196.764 239.171 196.343C240.42 195.922 240.981 196.174 240.981 196.174L240.251 198.041L239.213 199.191L239.283 199.781C239.283 199.781 239.115 201.338 240.153 202.419C241.192 203.499 241.963 203.457 242.412 203.457C242.862 203.457 244.153 203.078 244.812 201.521C245.402 200.061 245.893 198.195 244.714 196.314C243.563 194.448 241.528 194.378 241.135 194.378C240.743 194.392 237.655 194.532 236.533 198.602Z"/><path fill="#FFD8B3" d="M272.162 204.847C271.643 204.608 272.134 203.149 272.654 202.7C273.173 202.25 273.832 201.731 274.983 201.661C275.404 201.633 275.811 201.9 275.741 202.18C275.643 202.7 274.913 203.429 274.253 203.948C273.341 204.664 272.752 205.113 272.162 204.847Z"/><path fill="#FFD8B3" d="M244.096 196.89C244.475 196.862 244.966 197.17 245.065 197.577C245.163 198.026 244.826 198.925 244.096 198.925C243.507 198.925 243.198 198.195 243.198 197.984C243.198 197.774 243.296 197.563 243.338 197.493C243.367 197.451 243.437 196.96 244.096 196.89Z"/><path fill="#FFD8B3" d="M238.623 197.213C238.623 197.213 237.655 197.662 237.206 198.602C236.757 199.542 236.855 200.468 236.925 200.819C236.995 201.17 237.346 202.04 237.585 202.349C237.823 202.657 238.146 202.868 238.385 202.84C238.623 202.812 239.114 202.18 239.114 201.801C239.114 201.422 239.143 199.823 239.606 198.953C240.013 198.083 238.623 197.213 238.623 197.213Z"/><path fill="#FFD8B3" d="M238.764 197.142C238.595 197.241 238.315 197.381 238.385 197.563C238.455 197.732 239.044 197.844 239.255 198.251C239.493 198.672 239.493 199.121 239.423 199.332C239.493 199.304 239.704 199.191 239.914 198.981C240.223 198.63 240.602 198.153 240.925 198.153C241.135 198.153 241.346 198.251 241.542 198.251C241.851 198.251 242.16 198.153 242.202 197.83C242.272 197.409 241.612 197.03 241.234 197.1C241.304 196.82 241.402 196.413 241.093 196.132C240.784 195.851 239.816 196.343 239.606 196.483C239.381 196.623 238.764 197.142 238.764 197.142Z"/><path fill="#FFD8B3" d="M261.063 226.626L263.14 226.008L263.729 226.429C263.729 226.429 264.15 227.328 264.81 227.44C264.599 227.889 264.052 228.268 264.08 228.591C264.108 228.913 264.389 229.152 264.389 229.152C264.389 229.152 262.522 232.239 266.199 235.355C265.329 235.705 264.22 236.182 263.631 236.463C264.052 236.561 264.95 236.744 265.329 237.081C265.708 237.431 265.708 237.53 266.059 237.74C266.409 237.951 266.62 238.231 266.55 238.358C266.311 238.217 265.511 237.796 265.371 238.189C265.231 238.568 261.905 238.428 261.905 238.428L256.292 239.508C256.292 239.508 256.502 238.947 255.913 238.428C255.225 237.81 254.383 238.456 253.485 237.768C252.306 236.87 252.264 235.832 251.885 235.439C252.264 235.2 253.036 234.849 254.874 234.611C254.804 234.47 254.565 234.049 254.706 233.671C254.874 233.179 255.576 232.871 255.365 232.281C255.674 232.211 255.814 232.211 256.586 231.243C257.316 230.275 257.765 230.064 258.326 229.994C258.888 229.924 259.224 229.994 260.263 229.026C260.993 228.338 260.754 227.749 260.754 227.749C260.754 227.749 261.231 227.594 261.063 226.626Z"/><path fill="#FFD8B3" d="M254.93 226.935C254.958 226.794 255.07 226.724 255.828 226.794C256.586 226.865 261.385 226.345 262.69 226.275C264.009 226.177 268.654 226.247 270.913 226.724C273.173 227.201 275.46 227.763 276.569 228.043C277.677 228.352 278.028 228.464 277.986 228.605C277.958 228.745 277.705 228.885 277.565 228.843C277.425 228.815 273.748 227.692 272.611 227.454C271.475 227.215 267.545 226.584 265.398 226.626C263.392 226.654 262.592 226.598 260.894 226.794C259.196 227.005 256.389 227.286 255.547 227.173C254.719 227.075 254.888 227.075 254.93 226.935Z"/><path fill="#FFD8B3" d="M266.227 237.937C266.227 237.937 269.103 239.494 270.142 241.403C270.9 242.82 269.693 243.522 269.693 243.522C269.693 243.522 271.321 243.522 271.11 244.42C271.012 244.981 268.304 246.497 266.493 247.297C264.655 248.097 264.725 248.055 263.827 248.195C262.957 248.335 260.571 247.914 260.08 248.616C259.589 249.303 259.799 250.033 259.94 250.145C260.08 250.244 261.217 250.384 261.217 250.384C261.217 250.384 260.978 251.044 258.621 251.114C256.263 251.184 255.674 251.352 255.533 251.605C255.393 251.843 255.982 251.703 257.063 251.886C258.144 252.054 259.659 252.166 259.659 252.166C259.659 252.166 259.168 252.587 257.891 252.924C256.432 253.303 254.144 253.654 253.457 254.075C253.807 254.313 254.327 254.664 254.565 254.692C253.976 254.832 253.148 255.141 253.007 255.253C253.218 255.394 253.499 255.562 253.499 255.562C253.499 255.562 252.32 256.98 251.632 257.33C250.945 257.681 246.987 259.52 245.626 259.169C242.23 258.271 241.809 254.552 240.981 254.271C239.732 253.85 239.143 254.692 238.034 254.103C238.525 253.752 238.792 253.541 239.311 253.303C238.75 253.022 235.845 251.184 235.845 251.184C235.845 251.184 235.494 250.384 234.835 249.247C234.273 248.279 233.445 246.988 232.828 245.851C231.481 243.353 231.411 242.203 230.19 240.785C230.4 240.505 231.13 240.547 231.13 240.547L241.36 243.915L259.505 244.434L264.22 237.698L266.227 237.937Z"/><path fill="#FFD8B3" d="M239.353 248.209C239.353 248.209 239.494 248.377 239.732 248.518C240.083 248.756 240.602 249.037 240.953 249.458C241.094 249.247 241.444 248.868 242.062 249.458C242.679 250.047 243.451 249.626 243.928 249.767C244.419 249.935 244.447 250.005 244.447 250.005C244.447 250.005 244.728 249.767 245.346 249.514C245.725 249.374 246.174 249.275 246.665 249.135C247.114 249.037 247.605 248.896 247.942 248.896C248.25 249.107 249.359 250.286 253.808 248.546C258.003 246.918 258.972 246.735 259.673 246.988C259.744 246.82 259.814 246.497 260.894 246.539C260.894 246.09 259.996 244.56 259.996 244.56L255.042 242.862H252.334L244.209 244.35L239.704 246.918L239.353 248.209Z"/><path fill="#FFD8B3" d="M236.645 245.36C236.645 245.36 236.743 246.118 237.865 246.918C238.974 247.718 239.325 248.195 239.325 248.195C239.325 248.195 239.535 247.914 239.704 247.634C239.872 247.325 240.013 246.974 240.293 246.876C240.855 246.637 242.132 247.086 242.412 247.016C242.651 246.946 242.581 246.455 242.833 246.455C243.423 246.427 243.801 246.834 244.012 246.834C244.222 246.834 244.742 246.806 244.812 246.693C244.882 246.581 244.91 245.416 245.71 244.855C246.58 244.237 247.647 244.504 247.927 244.644C247.927 244.855 247.955 245.374 248.517 245.402C249.078 245.43 249.134 245.332 249.625 245.5C250.116 245.669 250.706 245.472 250.972 246.3C251.211 246.23 251.772 246.16 251.632 245.36C251.913 245.15 252.151 245.009 252.741 244.181C252.881 243.971 253.119 243.732 253.302 243.424C253.793 243.424 254.382 243.325 255.168 244.013C254.93 244.181 254.789 244.294 254.719 244.462C254.789 244.532 255.07 244.813 255.281 245.122C255.491 245.402 255.631 245.739 255.898 245.809C256.487 245.978 257.456 245.739 258.536 245.809C259.575 245.879 260.445 246.258 260.824 246.497C260.964 246.427 260.964 246.399 261.315 246.469C261.666 246.539 261.932 246.567 261.553 246.118C261.764 246.216 262.002 246.427 262.213 246.216C262.423 246.006 262.592 245.697 263.181 245.627C263.771 245.557 263.981 245.655 264.22 245.037C264.528 244.28 263.462 244.28 263.462 244.28C263.462 244.28 263.953 243.831 264.5 243.241C265.16 242.624 265.918 241.824 266.1 240.841C266.409 239.031 264.641 238.793 264.641 238.793L256.066 241.431L245.584 240.912L236.645 245.36Z"/><path fill="#FFD8B3" d="M228.941 220.592C228.941 220.592 228.66 220.943 228.492 221.771C228.324 222.598 228.394 222.5 228.253 223.09C228.113 223.679 226.387 229.545 227.032 231.523C227.678 233.502 228.801 234.232 229.502 235.832C229.643 236.182 229.783 236.393 229.853 236.702C230.092 237.74 229.881 238.54 230.162 239.578C230.26 239.929 230.513 240.336 230.892 240.757C231.72 241.627 233.081 242.455 233.67 243.045C234.498 243.915 235.677 245.683 237.178 245.851C237.978 245.95 239.115 245.613 240.055 245.051C240.883 244.532 241.402 243.802 242.272 243.381C242.89 243.073 243.549 242.96 244.139 242.82C245.36 242.582 246.468 242.539 247.128 242.68C248.138 242.89 250.524 243.62 251.843 243.62C252.362 243.62 253.583 243.55 254.902 243.199C256.909 242.61 259.337 241.599 260.936 241.15C261.877 240.87 262.634 240.799 263.406 240.631C264.725 240.322 265.834 239.901 266.465 239.101C266.044 238.61 265.525 237.852 262.719 237.88C259.533 237.951 255.856 239.719 254.046 239.999C252.236 240.28 251.45 240.519 249.429 239.789C247.451 239.059 247.38 238.568 247.38 238.568C247.38 238.568 245.304 237.109 244.434 233.404C243.563 229.685 244.434 226.991 246.693 224.423C247.282 223.763 247.142 223.174 247.142 223.174C247.142 223.174 248.629 221.167 248.222 219.287C247.773 217.42 244.897 217.799 244.897 217.799L228.941 220.592Z"/><path fill="#FFD8B3" d="M231.34 226.836C231.34 226.836 231.13 227.215 231.172 227.594C231.2 227.973 231.312 228.464 232.449 229.573C233.417 230.541 233.207 231.622 233.207 231.622C233.207 231.622 233.698 231.72 235.017 231.102C236.056 230.611 236.406 231.481 236.406 231.481C236.406 231.481 236.827 231.243 237.375 231.173C237.936 231.102 238.245 230.892 238.245 230.892C238.245 230.892 239.466 232.141 240.532 232.73C241.5 233.25 242.062 233.6 242.539 233.25C242.988 232.941 242.988 232.309 242.96 232.029C242.96 232.029 242.819 231.678 242.539 231.299C242.23 230.85 241.739 230.331 241.711 229.91C241.641 228.941 242.441 227.791 242.272 227.51C242.104 227.229 241.472 227.159 239.915 227.72C238.301 228.254 231.34 226.836 231.34 226.836Z"/><path fill="#FFD8B3" d="M235.017 233.109C235.017 233.109 234.217 232.351 234.498 228.675C234.919 228.647 235.508 228.773 235.508 228.773C235.508 228.773 235.943 231.622 235.017 233.109Z"/><path fill="#FFD8B3" d="M229.32 217.785C229.32 217.785 229.46 217.687 229.628 217.504C229.348 218.024 228.071 220.101 229.109 223.37C230.148 226.626 232.758 229.054 235.971 229.166C239.185 229.278 240.869 227.706 242.805 225.349C243.563 224.409 244.433 223.23 245.205 222.43C246.356 221.181 247.254 220.83 247.254 219.623C247.254 217.154 244.728 216.045 241.009 214.936C237.29 213.828 233.937 213.968 232.196 214.726C230.498 215.554 229.769 216.424 229.32 217.785Z"/><path fill="#FFD8B3" d="M241.261 234.218L241.542 234.077C241.542 234.077 241.612 232.969 242.061 232.997C242.51 233.067 242.721 233.656 242.679 233.867C242.651 234.077 242.538 234.428 242.089 234.386C241.5 234.4 241.261 234.218 241.261 234.218Z"/><path fill="#FFD8B3" d="M240.012 229.503C240.012 229.503 240.293 229.405 240.63 229.741C240.911 229.741 242.117 229.601 242.496 229.84C242.875 230.078 242.987 230.289 242.987 230.289C242.987 230.289 241.57 230.597 240.798 230.289C240.012 230.022 240.012 229.503 240.012 229.503Z"/><path fill="#FFD8B3" d="M246.258 229.713C246.258 229.643 245.5 229.124 244.7 228.955C244.56 228.927 244.531 229.026 244.419 229.026C244.349 228.997 244.321 228.787 244.321 228.787L243.872 229.026C243.872 229.026 243.802 229.124 244.04 229.306C244.251 229.475 244.602 229.615 244.7 229.896C244.798 230.176 244.798 230.275 244.84 230.317C244.868 230.345 245.359 230.317 245.598 230.176C245.837 230.022 246.286 229.811 246.258 229.713Z"/><path fill="#FFD8B3" d="M239.171 232.562C239.171 232.562 239.311 231.594 240.251 231.552C241.22 231.481 241.402 232.422 241.402 232.422L240.841 232.983C240.841 232.969 240.42 232.38 239.171 232.562Z"/><path fill="#FFD8B3" d="M245.275 228.394C245.275 228.394 244.756 228.955 243.605 229.124C243.507 228.983 243.297 228.703 243.605 228.254C243.914 227.805 244.265 227.664 244.616 227.805C244.966 227.875 245.205 228.113 245.275 228.394Z"/><path fill="#FFD8B3" d="M247.394 229.082C247.423 228.941 247.324 228.913 247.394 228.843C247.465 228.773 247.844 228.633 247.914 228.703C247.942 228.731 247.914 228.843 247.914 228.984C247.914 229.124 247.914 229.264 247.844 229.362C247.745 229.503 247.465 229.573 247.324 229.531C247.184 229.503 247.156 229.292 247.156 229.25C247.226 229.222 247.394 229.152 247.394 229.082ZM249.794 227.566C249.794 227.496 250.033 227.356 250.173 227.356C250.384 227.356 250.384 227.524 250.412 227.566C250.482 227.594 250.482 227.538 250.552 227.664C250.622 227.805 250.72 228.015 250.65 228.156C250.58 228.296 250.299 228.394 250.229 228.366C250.131 228.296 249.822 227.664 249.794 227.566Z"/><path fill="#FFD8B3" d="M244.967 229.404C244.967 229.404 245.275 229.475 245.696 229.825C245.556 229.924 245.346 230.036 245.346 230.036C245.346 230.036 245.318 229.713 244.967 229.404Z"/><path fill="#FFD8B3" d="M244.279 226.317C244.209 226.247 244.489 226.079 244.658 226.107C244.826 226.135 244.896 226.247 245.079 226.275C245.261 226.303 245.289 226.205 245.359 226.135C245.43 226.065 245.668 226.107 245.71 226.135C245.738 226.163 245.78 226.233 245.78 226.233C245.78 226.233 245.78 226.065 245.921 225.952C246.061 225.854 246.201 225.854 246.3 225.882C246.328 225.98 246.468 226.331 246.44 226.401C246.412 226.472 245.991 226.57 245.921 226.5C245.991 226.668 246.3 227.019 246.342 227.089C246.37 227.159 246.033 227.328 245.893 227.3C245.696 227.285 244.489 226.584 244.279 226.317ZM246.117 223.988C246.117 223.988 246.089 223.889 245.977 223.819C245.879 223.791 245.556 223.819 245.556 223.988C245.556 224.156 245.836 225.096 246.145 225.587C246.496 226.079 246.735 226.486 246.973 226.598C247.212 226.696 247.352 226.528 247.394 226.458C247.422 226.387 247.492 225.868 247.464 224.647C247.436 223.426 247.394 222.248 247.324 222.177C247.254 222.107 246.973 222.107 246.875 222.248C246.777 222.388 246.145 223.777 246.117 223.988Z"/><path fill="#FFD8B3" d="M244.868 231.173C244.868 231.173 244.377 230.864 243.9 231.074C243.451 231.285 243.479 232.113 243.479 232.113C243.479 232.113 243.787 232.253 244.096 232.043C244.405 231.832 244.798 231.481 244.868 231.173Z"/><path fill="#FFD8B3" d="M245.794 232.281C245.766 232.001 245.514 232.001 245.514 231.86C245.542 231.72 245.682 231.622 245.822 231.622C245.963 231.622 246.103 231.79 246.272 231.902C246.44 232.001 246.693 232.183 246.721 232.394C246.749 232.604 246.44 233.193 246.103 233.193C245.766 233.179 245.865 232.562 245.794 232.281ZM248.503 231.902C248.503 231.902 247.941 232.071 247.984 231.902C248.012 231.734 248.152 231.692 248.334 231.692C248.405 231.622 248.545 231.524 248.685 231.524C248.826 231.524 248.896 231.594 248.896 231.594C248.896 231.594 249.275 231.425 249.387 231.524C249.485 231.622 249.415 231.622 249.485 231.734C249.555 231.832 249.654 232.043 249.654 232.155C249.654 232.267 249.233 232.506 248.896 232.464C248.503 232.38 248.573 231.973 248.503 231.902ZM251.773 231.271C251.773 231.271 251.941 231.369 251.801 231.481C251.702 231.58 251.211 231.762 250.79 231.79C250.369 231.79 249.99 231.86 249.99 231.72C249.99 231.58 250.341 231.299 250.552 231.229C250.622 231.131 250.762 231.06 250.902 231.06C251.071 231.06 251.73 230.99 251.913 230.962C252.081 230.934 252.222 231.032 252.123 231.173C252.081 231.271 251.773 231.271 251.773 231.271ZM252.741 226.935C252.741 226.935 252.53 227.384 252.292 227.384C252.053 227.356 252.053 227.286 252.053 227.215C252.053 227.117 252.292 226.865 252.264 226.794C252.194 226.794 252.025 226.794 252.053 226.626C252.053 226.486 252.292 226.317 252.502 226.345C252.572 226.275 252.811 226.135 253.064 226.135C253.302 226.135 253.513 226.205 253.513 226.345C253.513 226.486 253.232 226.794 253.134 226.865C253.021 226.977 252.881 227.047 252.741 226.935ZM249.541 235.228C249.541 235.228 249.261 235.256 249.261 235.397C249.261 235.467 249.331 235.467 249.429 235.425C249.499 235.425 249.597 235.397 249.597 235.397C249.625 235.425 249.625 235.565 249.836 235.565C249.934 235.565 250.145 235.495 250.327 235.397C250.495 235.326 250.636 235.256 250.636 235.116C250.566 234.877 250.425 234.765 250.215 234.765C250.004 234.765 249.906 234.835 249.906 234.835C249.906 234.835 249.836 234.695 249.597 234.835C249.359 234.976 249.387 234.976 249.457 235.046C249.583 235.158 249.541 235.228 249.541 235.228ZM247.956 236.688C247.956 236.618 248.306 236.477 248.405 236.519C248.503 236.547 248.783 237.081 248.783 237.137C248.783 237.207 248.433 237.375 248.292 237.375C248.152 237.375 247.913 237.137 247.913 237.095C247.913 237.067 248.082 237.024 248.082 236.996C248.124 236.926 247.956 236.758 247.956 236.688ZM246.847 234.639C246.917 234.611 246.917 234.541 247.015 234.47C247.114 234.4 247.226 234.442 247.226 234.442C247.226 234.442 247.296 234.302 247.464 234.274C247.633 234.246 247.773 234.274 247.745 234.344C247.745 234.555 247.885 234.695 247.885 234.863C247.885 235.032 247.787 235.242 247.436 235.383C247.085 235.481 246.608 235.481 246.538 235.453C246.468 235.425 246.398 235.144 246.468 235.004C246.524 234.849 246.735 234.709 246.847 234.639Z"/><path fill="#FFD8B3" d="M247.296 234.737C247.296 234.737 247.058 234.877 247.058 234.948C247.029 235.018 247.029 235.116 247.029 235.158C247.029 235.2 247.338 235.13 247.38 235.088C247.394 235.06 247.296 234.807 247.296 234.737Z"/><path fill="#FFD8B3" d="M245.205 234.077C245.345 234.106 245.584 234.077 245.766 234.148C245.907 234.218 246.005 234.358 245.865 234.527C245.724 234.695 245.584 234.948 245.275 234.905C244.924 234.877 244.588 234.695 244.588 234.555C244.56 234.386 244.658 234.176 244.756 234.063C244.896 233.951 244.967 234.021 245.205 234.077Z"/><path fill="#FFD8B3" d="M245.037 234.218C245.037 234.218 244.587 234.569 244.475 234.737C244.335 234.905 243.647 235.776 243.437 235.958C243.507 235.818 243.675 235.607 243.675 235.607C243.675 235.607 243.254 235.846 243.086 236.365C242.918 236.884 244.026 237.165 244.756 237.375C245.486 237.586 245.766 237.656 245.766 237.656C245.766 237.656 245.345 237.039 245.079 236.379C244.798 235.719 244.658 235.649 244.84 235.34C244.98 235.032 245.191 234.821 245.191 234.583C245.107 234.358 245.037 234.218 245.037 234.218Z"/><path fill="#FFD8B3" d="M229.039 235.326C229.039 235.326 229.137 235.354 229.348 235.326C229.558 235.298 231.747 234.498 234.035 234.639C235.045 234.709 236.841 234.849 239.101 235.467C241.977 236.225 245.556 237.726 247.871 238.582C248.489 238.821 249.092 239.242 249.541 239.41C251.309 240.098 251.379 240.098 252.418 240.28C253.639 240.449 254.888 240.042 256.193 239.761C257.793 239.41 260.529 239.242 262.929 238.891C264.178 238.722 265.216 238.372 265.216 238.372C265.216 238.372 263.308 240.28 258.733 240.968C256.445 241.319 254.565 241.206 253.148 241.038C251.688 240.898 250.72 240.687 249.99 240.477C249.162 240.238 247.464 239.607 245.373 239.087C243.914 238.708 242.286 238.428 240.42 238.077C235.817 237.235 230.821 236.267 229.039 235.326Z"/><path fill="#FFD8B3" d="M226.653 217.533L214.964 206.615L226.653 217.533Z"/><path fill="#FFD8B3" d="M226.653 216.705C226.162 216.256 225.643 215.806 225.166 215.357C224.675 214.908 224.197 214.459 223.706 214.01L222.247 212.621C222.008 212.382 221.756 212.172 221.517 211.933C221.279 211.723 220.998 211.484 220.759 211.274C218.823 209.435 216.872 207.597 214.964 205.759C216.942 207.569 218.879 209.365 220.858 211.204L221.545 211.891C221.784 212.13 222.036 212.34 222.275 212.579L223.734 213.926C224.225 214.375 224.703 214.824 225.194 215.315C225.685 215.806 226.162 216.256 226.653 216.705ZM200.945 216.424C200.945 216.424 207.989 217.154 211.427 217.645C214.613 218.094 224.576 219.623 224.576 219.623L200.945 216.424ZM200.945 216.424C202.923 216.592 204.902 216.803 206.881 217.013C207.891 217.112 208.859 217.224 209.828 217.322L211.315 217.49C211.806 217.561 212.283 217.631 212.774 217.701L218.668 218.641L221.615 219.132C222.584 219.301 223.552 219.483 224.562 219.652C223.594 219.553 222.584 219.413 221.615 219.273L218.668 218.852L212.774 217.982C212.283 217.911 211.806 217.813 211.315 217.743L209.828 217.575C208.859 217.476 207.849 217.336 206.881 217.224C204.902 216.985 202.923 216.733 200.945 216.424ZM223.875 221.462C223.875 221.462 216.353 223.37 213.813 224.1C211.315 224.788 203.751 227.089 203.751 227.089"/><path fill="#FFD8B3" d="M223.875 221.462C222.205 221.953 220.549 222.43 218.851 222.879L213.827 224.226C212.157 224.717 210.501 225.195 208.831 225.686L206.333 226.373C205.505 226.612 204.663 226.822 203.807 227.061C204.635 226.78 205.477 226.5 206.305 226.261L208.803 225.461C210.473 224.942 212.129 224.451 213.799 223.932C215.497 223.511 217.167 223.062 218.865 222.655C220.479 222.248 222.177 221.841 223.875 221.462ZM204.804 231.72C205.631 231.411 215.174 226.963 217.391 225.924C218.5 225.405 221.727 224.254 221.727 224.254"/><path fill="#FFD8B3" d="M204.804 231.72C205.533 231.439 206.221 231.102 206.923 230.78L209 229.811L213.167 227.805C214.557 227.145 215.904 226.415 217.335 225.798C218.065 225.489 218.795 225.237 219.524 224.998L220.633 224.647C221.012 224.549 221.363 224.437 221.742 224.339C220.352 224.998 218.893 225.559 217.504 226.205C216.114 226.893 214.697 227.454 213.266 228.071L209.028 229.938C207.61 230.513 206.221 231.131 204.804 231.72ZM205.73 235.607C205.73 235.607 214.374 230.541 217.349 228.913C218.907 228.043 223.945 225.545 223.945 225.545"/><path fill="#FFD8B3" d="M205.73 235.607C207.189 234.709 208.677 233.797 210.165 232.871L212.382 231.523C213.14 231.074 213.869 230.653 214.641 230.204C215.399 229.755 216.129 229.306 216.9 228.885C217.279 228.647 217.658 228.464 218.051 228.296L219.23 227.707C220.788 226.949 222.345 226.177 223.987 225.517C222.5 226.458 220.97 227.257 219.44 228.085C218.683 228.506 217.911 228.885 217.153 229.306C216.395 229.727 215.666 230.176 214.894 230.583C214.136 231.032 213.406 231.453 212.634 231.86L210.347 233.109C208.789 233.951 207.26 234.779 205.73 235.607ZM223.875 226.654C223.875 226.654 218.5 230.78 216.76 232.099C215.02 233.418 209.898 237.123 209.898 237.123"/><path fill="#FFD8B3" d="M223.875 226.654C222.766 227.594 221.587 228.492 220.436 229.362L216.97 232.029C215.792 232.899 214.641 233.797 213.462 234.667C212.283 235.537 211.104 236.365 209.856 237.165C210.964 236.225 212.143 235.354 213.322 234.498C214.5 233.642 215.721 232.8 216.858 231.93L220.324 229.264C221.517 228.394 222.668 227.496 223.875 226.654ZM217.742 236.477C217.742 236.477 218.991 235.439 220.549 233.979C222.485 232.169 224.857 229.854 225.615 229.433"/><path fill="#FFD8B3" d="M217.742 236.477C218.36 235.86 219.019 235.256 219.679 234.667L220.689 233.797C220.998 233.516 221.349 233.207 221.657 232.899C222.275 232.281 222.878 231.622 223.496 230.99C223.804 230.681 224.113 230.373 224.464 230.092C224.632 229.952 224.815 229.811 225.025 229.713C225.194 229.615 225.376 229.433 225.615 229.404C225.474 229.615 225.306 229.713 225.166 229.896C224.997 230.036 224.857 230.204 224.717 230.345C224.408 230.653 224.057 230.934 223.748 231.215C223.089 231.776 222.401 232.323 221.741 232.913C221.082 233.502 220.464 234.134 219.805 234.723C219.089 235.326 218.43 235.916 217.742 236.477ZM226.134 230.864C226.134 230.864 221.559 235.34 220.619 236.07L226.134 230.864Z"/><path fill="#FFD8B3" d="M226.134 230.864C225.713 231.355 225.264 231.804 224.815 232.211L223.426 233.53C222.977 233.979 222.556 234.428 222.079 234.877C221.587 235.298 221.138 235.705 220.619 236.098L221.966 234.779C222.415 234.33 222.907 233.951 223.384 233.502L224.731 232.183C225.194 231.72 225.643 231.271 226.134 230.864ZM226.345 233.292C226.345 233.292 225.825 234.821 224.857 236.73C223.678 239.087 221.91 242.034 221.138 243.536"/><path fill="#FFD8B3" d="M226.345 233.292C226.345 233.811 226.204 234.26 226.036 234.709C225.867 235.158 225.685 235.607 225.474 236.028C225.264 236.449 225.025 236.898 224.787 237.305C224.548 237.726 224.268 238.133 224.057 238.554L222.64 241.052C222.149 241.88 221.671 242.722 221.152 243.522C221.503 242.624 221.98 241.782 222.429 240.954C222.92 240.126 223.369 239.284 223.819 238.428C224.029 238.007 224.24 237.558 224.408 237.109C224.618 236.66 224.829 236.239 224.997 235.832C225.208 235.383 225.376 234.962 225.587 234.555C225.825 234.12 226.022 233.699 226.345 233.292Z"/><path fill="#FFD8B3" d="M231.34 244.799C231.34 244.799 229.951 246.637 230.091 248.967C230.47 247.746 230.947 245.879 231.34 244.799ZM232.659 246.637C232.659 246.637 232.168 251.633 231.761 254.089C232.336 251.254 232.449 251.493 232.659 246.637ZM241.851 254.383C241.851 254.383 239.774 260.488 239.732 262.186C240.181 260.446 241.051 256.881 241.851 254.383Z"/><path fill="#FFD8B3" d="M246.706 244.42C246.706 244.42 250.074 249.977 252.6 254.72C251.913 252.335 250.341 247.956 246.706 244.42Z"/><path fill="#FFD8B3" d="M255.758 252.601C255.758 252.601 258.396 257.148 260.754 262.691C260.473 260.305 259.716 256.222 255.758 252.601Z"/><path fill="#FFD8B3" d="M282.364 260.796C282.926 260.446 284.034 258.537 285.003 258.06C285.971 257.569 286.701 257.471 287.571 256.502C288.441 255.492 288.679 254.875 290.588 254.075C293.254 252.924 291.416 251.436 291.416 251.436C291.416 251.436 291.865 250.987 292.356 250.637C293.044 250.117 293.843 249.486 293.773 248.377C293.675 246.511 293.324 243.802 291.795 242.231C293.282 241.922 296.131 241.711 297.899 241.262C299.948 240.743 300.888 240.013 300.888 240.013C300.888 240.013 299.709 238.007 301.618 235.986C303.526 233.979 305.084 232.758 306.235 230.499C304.916 230.331 302.909 229.629 297.773 231.58C298.152 231.748 298.573 232.029 298.573 232.029C298.573 232.029 295.415 232.899 294.264 233.867C292.258 235.565 292.005 236.954 289.83 237.993C287.641 239.031 285.466 238.751 283.655 239.592C281.845 240.42 281.579 241.15 280.919 241.459C281.059 241.627 280.891 241.908 281.158 242.147C280.989 242.385 280.007 243.985 279.01 243.985C279.109 244.364 279.951 244.644 279.951 244.644C279.951 244.644 279.333 245.093 277.762 245.206C278.561 246.034 279.319 246.946 281.41 248.265C281.242 248.616 280.54 249.135 280.821 249.795C281.129 250.454 281.929 251.352 285.129 252.082C283.501 252.152 281.593 252.531 279.025 252.18C276.456 251.871 276.035 251.689 274.45 252.082C274.618 252.25 275.067 252.25 275.46 252.699C275.039 252.727 272.401 252.391 271.503 253.569C270.563 254.79 270.156 256.797 270.226 258.144C269.735 258.383 269.257 258.804 269.496 259.674C269.735 260.544 270.984 260.825 271.783 261.372C272.583 261.961 272.653 262.172 273.411 262.031C274.211 261.863 275.39 261.063 276.078 261.063C276.765 261.063 277.256 261.582 277.256 261.582C277.256 261.582 279.123 260.684 279.305 260.853C279.474 261.021 279.333 262.102 279.516 262.27C279.698 262.396 281.803 261.147 282.364 260.796Z"/></g><path fill="#0F4C5C" d="M120.96 293V273.704C116.16 279.848 109.824 284.744 101.952 288.392C94.272 292.04 86.016 293.864 77.184 293.864C68.16 293.864 59.616 291.944 51.552 288.104C43.488 284.072 36.48 278.696 30.528 271.976C24.768 265.064 20.16 257 16.704 247.784C13.248 238.568 11.52 228.776 11.52 218.408C11.52 208.04 13.248 198.344 16.704 189.32C20.352 180.104 25.248 172.136 31.392 165.416C37.728 158.696 45.12 153.416 53.568 149.576C62.016 145.544 71.04 143.528 80.64 143.528C88.32 143.528 95.616 145.064 102.528 148.136C109.44 151.208 115.392 155.624 120.384 161.384V87.08L167.04 79.88V293H120.96ZM57.312 218.696C57.312 229.064 60.672 237.8 67.392 244.904C74.304 251.816 82.752 255.272 92.736 255.272C98.304 255.272 103.392 254.312 108 252.392C112.608 250.28 116.736 247.304 120.384 243.464V193.352C116.736 189.704 112.512 186.92 107.712 185C103.104 182.888 98.112 181.832 92.736 181.832C82.56 181.832 74.112 185.384 67.392 192.488C60.672 199.4 57.312 208.136 57.312 218.696ZM447.872 292.712C438.848 292.712 430.304 290.792 422.24 286.952C414.176 282.92 407.168 277.544 401.216 270.824C395.456 264.104 390.848 256.232 387.392 247.208C383.936 237.992 382.208 228.2 382.208 217.832C382.208 207.464 383.936 197.768 387.392 188.744C391.04 179.72 395.936 171.848 402.08 165.128C408.416 158.408 415.808 153.128 424.256 149.288C432.704 145.448 441.728 143.528 451.328 143.528C459.2 143.528 466.592 145.16 473.504 148.424C480.608 151.688 486.656 156.296 491.648 162.248V144.392H537.44V295.016C537.44 314.984 530.624 330.344 516.992 341.096C503.552 351.848 484.256 357.224 459.104 357.224C447.968 357.224 437.12 356.072 426.56 353.768C416 351.464 406.304 348.2 397.472 343.976L411.872 310.28C420.128 314.12 428 317 435.488 318.92C442.976 320.84 450.272 321.8 457.376 321.8C468.32 321.8 476.672 319.496 482.432 314.888C488.192 310.28 491.072 303.464 491.072 294.44V273.128C486.272 279.08 480.032 283.88 472.352 287.528C464.672 290.984 456.512 292.712 447.872 292.712ZM428 218.12C428 228.488 431.36 237.224 438.08 244.328C444.992 251.24 453.44 254.696 463.424 254.696C468.992 254.696 474.08 253.736 478.688 251.816C483.296 249.704 487.424 246.728 491.072 242.888V193.352C487.424 189.704 483.2 186.92 478.4 185C473.792 182.888 468.8 181.832 463.424 181.832C453.248 181.832 444.8 185.288 438.08 192.2C431.36 199.112 428 207.752 428 218.12ZM707.821 271.976C698.221 280.424 688.525 286.568 678.733 290.408C668.941 294.056 657.805 295.88 645.325 295.88C634.381 295.88 624.109 293.96 614.509 290.12C605.101 286.088 596.845 280.616 589.741 273.704C582.637 266.792 577.069 258.632 573.037 249.224C569.005 239.816 566.989 229.736 566.989 218.984C566.989 208.04 568.909 197.864 572.749 188.456C576.589 179.048 581.773 170.888 588.301 163.976C595.021 157.064 602.989 151.688 612.205 147.848C621.421 143.816 631.309 141.8 641.869 141.8C652.621 141.8 662.413 143.816 671.245 147.848C680.269 151.688 687.949 157.064 694.285 163.976C700.813 170.888 705.901 179.24 709.549 189.032C713.197 198.632 715.021 209.192 715.021 220.712V230.792H612.781C614.893 239.048 619.117 245.768 625.453 250.952C631.789 256.136 639.181 258.728 647.629 258.728C653.773 258.728 659.341 257.672 664.333 255.56C669.517 253.448 673.741 250.376 677.005 246.344L707.821 271.976ZM641.581 178.088C634.285 178.088 628.141 180.392 623.149 185C618.157 189.608 614.701 196.04 612.781 204.296H671.821C669.901 196.232 666.253 189.896 660.877 185.288C655.501 180.488 649.069 178.088 641.581 178.088ZM848.273 293V273.704C843.473 279.848 837.137 284.744 829.265 288.392C821.585 292.04 813.329 293.864 804.497 293.864C795.473 293.864 786.929 291.944 778.865 288.104C770.801 284.072 763.793 278.696 757.841 271.976C752.081 265.064 747.473 257 744.017 247.784C740.561 238.568 738.833 228.776 738.833 218.408C738.833 208.04 740.561 198.344 744.017 189.32C747.665 180.104 752.561 172.136 758.705 165.416C765.041 158.696 772.433 153.416 780.881 149.576C789.329 145.544 798.353 143.528 807.953 143.528C815.633 143.528 822.929 145.064 829.841 148.136C836.753 151.208 842.705 155.624 847.697 161.384V87.08L894.353 79.88V293H848.273ZM784.625 218.696C784.625 229.064 787.985 237.8 794.705 244.904C801.617 251.816 810.065 255.272 820.049 255.272C825.617 255.272 830.705 254.312 835.313 252.392C839.921 250.28 844.049 247.304 847.697 243.464V193.352C844.049 189.704 839.825 186.92 835.025 185C830.417 182.888 825.425 181.832 820.049 181.832C809.873 181.832 801.425 185.384 794.705 192.488C787.985 199.4 784.625 208.136 784.625 218.696ZM953.847 121.352C946.551 121.352 940.311 118.856 935.127 113.864C930.135 108.68 927.639 102.536 927.639 95.432C927.639 88.328 930.231 82.184 935.415 77C940.599 71.816 946.743 69.224 953.847 69.224C960.951 69.224 967.095 71.816 972.279 77C977.655 82.184 980.343 88.328 980.343 95.432C980.343 102.536 977.751 108.68 972.567 113.864C967.575 118.856 961.335 121.352 953.847 121.352ZM977.175 144.392V293H930.519V144.392H977.175ZM1001.39 277.736L1021.84 246.632C1032.4 252.2 1041.23 256.136 1048.34 258.44C1055.44 260.552 1062.54 261.608 1069.65 261.608C1076.18 261.608 1081.36 260.552 1085.2 258.44C1089.04 256.136 1090.96 253.16 1090.96 249.512C1090.96 246.632 1089.81 244.328 1087.5 242.6C1085.39 240.872 1081.94 239.624 1077.14 238.856L1048.62 233.672C1034.22 230.984 1023.28 225.992 1015.79 218.696C1008.5 211.4 1004.85 201.992 1004.85 190.472C1004.85 175.304 1010.32 163.4 1021.26 154.76C1032.4 146.12 1047.66 141.8 1067.06 141.8C1077.42 141.8 1087.7 143.24 1097.87 146.12C1108.05 149 1117.94 153.224 1127.54 158.792L1106.22 188.456C1098.74 184.232 1091.44 181.064 1084.34 178.952C1077.42 176.84 1070.51 175.784 1063.6 175.784C1058.03 175.784 1053.62 176.744 1050.35 178.664C1047.28 180.392 1045.74 182.888 1045.74 186.152C1045.74 189.224 1046.8 191.528 1048.91 193.064C1051.22 194.6 1055.25 195.848 1061.01 196.808L1088.94 201.992C1103.54 204.68 1114.67 209.768 1122.35 217.256C1130.03 224.552 1133.78 233.768 1133.58 244.904C1133.58 252.2 1131.95 259.016 1128.69 265.352C1125.62 271.496 1121.2 276.872 1115.44 281.48C1109.68 285.896 1102.86 289.448 1094.99 292.136C1087.12 294.632 1078.67 295.88 1069.65 295.88C1056.21 295.88 1043.63 294.344 1031.92 291.272C1020.21 288.2 1010.03 283.688 1001.39 277.736ZM1235.14 255.56C1241.28 255.56 1246.85 254.312 1251.84 251.816C1257.03 249.32 1261.44 245.672 1265.09 240.872L1292.74 268.232C1285.64 276.872 1276.71 283.688 1265.96 288.68C1255.4 293.48 1244.16 295.88 1232.26 295.88C1221.51 295.88 1211.43 293.96 1202.02 290.12C1192.61 286.088 1184.45 280.616 1177.54 273.704C1170.63 266.792 1165.16 258.632 1161.12 249.224C1157.28 239.816 1155.36 229.736 1155.36 218.984C1155.36 208.232 1157.28 198.152 1161.12 188.744C1165.16 179.336 1170.63 171.176 1177.54 164.264C1184.45 157.352 1192.61 151.976 1202.02 148.136C1211.43 144.104 1221.51 142.088 1232.26 142.088C1244.36 142.088 1255.78 144.488 1266.53 149.288C1277.48 153.896 1286.69 160.616 1294.18 169.448L1265.67 197.96C1260.87 192.392 1255.97 188.36 1250.98 185.864C1245.99 183.176 1240.32 181.832 1233.99 181.832C1224.77 181.832 1217.09 185.384 1210.95 192.488C1204.8 199.592 1201.73 208.424 1201.73 218.984C1201.73 229.352 1204.9 238.088 1211.24 245.192C1217.57 252.104 1225.54 255.56 1235.14 255.56ZM1362.74 144.392V231.08C1362.74 239.336 1364.95 246.056 1369.37 251.24C1373.97 256.232 1380.02 258.728 1387.51 258.728C1392.5 258.728 1397.01 257.768 1401.05 255.848C1405.27 253.736 1409.01 250.568 1412.28 246.344V144.392H1458.93V293H1412.28V268.808C1406.52 277.448 1399.61 284.072 1391.54 288.68C1383.67 293.096 1374.93 295.304 1365.33 295.304C1350.93 295.304 1339.13 290.6 1329.91 281.192C1320.69 271.592 1316.09 259.4 1316.09 244.616V144.392H1362.74ZM1483.17 277.736L1503.62 246.632C1514.18 252.2 1523.01 256.136 1530.12 258.44C1537.22 260.552 1544.33 261.608 1551.43 261.608C1557.96 261.608 1563.14 260.552 1566.98 258.44C1570.82 256.136 1572.74 253.16 1572.74 249.512C1572.74 246.632 1571.59 244.328 1569.29 242.6C1567.17 240.872 1563.72 239.624 1558.92 238.856L1530.41 233.672C1516.01 230.984 1505.06 225.992 1497.57 218.696C1490.28 211.4 1486.63 201.992 1486.63 190.472C1486.63 175.304 1492.1 163.4 1503.05 154.76C1514.18 146.12 1529.45 141.8 1548.84 141.8C1559.21 141.8 1569.48 143.24 1579.65 146.12C1589.83 149 1599.72 153.224 1609.32 158.792L1588.01 188.456C1580.52 184.232 1573.22 181.064 1566.12 178.952C1559.21 176.84 1552.29 175.784 1545.38 175.784C1539.81 175.784 1535.4 176.744 1532.13 178.664C1529.06 180.392 1527.53 182.888 1527.53 186.152C1527.53 189.224 1528.58 191.528 1530.69 193.064C1533 194.6 1537.03 195.848 1542.79 196.808L1570.73 201.992C1585.32 204.68 1596.45 209.768 1604.13 217.256C1611.81 224.552 1615.56 233.768 1615.37 244.904C1615.37 252.2 1613.73 259.016 1610.47 265.352C1607.4 271.496 1602.98 276.872 1597.22 281.48C1591.46 285.896 1584.65 289.448 1576.77 292.136C1568.9 294.632 1560.45 295.88 1551.43 295.88C1537.99 295.88 1525.41 294.344 1513.7 291.272C1501.99 288.2 1491.81 283.688 1483.17 277.736ZM1630.27 277.736L1650.71 246.632C1661.27 252.2 1670.11 256.136 1677.21 258.44C1684.31 260.552 1691.42 261.608 1698.52 261.608C1705.05 261.608 1710.23 260.552 1714.07 258.44C1717.91 256.136 1719.83 253.16 1719.83 249.512C1719.83 246.632 1718.68 244.328 1716.38 242.6C1714.27 240.872 1710.81 239.624 1706.01 238.856L1677.5 233.672C1663.1 230.984 1652.15 225.992 1644.67 218.696C1637.37 211.4 1633.72 201.992 1633.72 190.472C1633.72 175.304 1639.19 163.4 1650.14 154.76C1661.27 146.12 1676.54 141.8 1695.93 141.8C1706.3 141.8 1716.57 143.24 1726.75 146.12C1736.92 149 1746.81 153.224 1756.41 158.792L1735.1 188.456C1727.61 184.232 1720.31 181.064 1713.21 178.952C1706.3 176.84 1699.39 175.784 1692.47 175.784C1686.91 175.784 1682.49 176.744 1679.23 178.664C1676.15 180.392 1674.62 182.888 1674.62 186.152C1674.62 189.224 1675.67 191.528 1677.79 193.064C1680.09 194.6 1684.12 195.848 1689.88 196.808L1717.82 201.992C1732.41 204.68 1743.55 209.768 1751.23 217.256C1758.91 224.552 1762.65 233.768 1762.46 244.904C1762.46 252.2 1760.83 259.016 1757.56 265.352C1754.49 271.496 1750.07 276.872 1744.31 281.48C1738.55 285.896 1731.74 289.448 1723.87 292.136C1715.99 294.632 1707.55 295.88 1698.52 295.88C1685.08 295.88 1672.51 294.344 1660.79 291.272C1649.08 288.2 1638.91 283.688 1630.27 277.736Z"/></svg>