<svg xmlns="http://www.w3.org/2000/svg" width="24" height="24" fill="none" viewBox="0 0 24 24"><path stroke="#fff" stroke-linecap="round" stroke-linejoin="round" stroke-width="1.5" d="M17 16C17 14.6193 15.8807 13.5 14.5 13.5H9.5C8.11929 13.5 7 14.6193 7 16"/><circle cx="12" cy="8.5" r="2.5" stroke="#fff" stroke-linecap="round" stroke-linejoin="round" stroke-width="1.5"/><path fill-rule="evenodd" stroke="#fff" stroke-linecap="round" stroke-linejoin="round" stroke-width="1.5" d="M12.5708 19L8.99011 21.8645C8.80607 22.0117 8.55394 22.0404 8.34152 21.9383C8.1291 21.8362 7.99401 21.6214 7.99402 21.3857V19H5.993C4.33614 19 2.993 17.6569 2.993 16V6C2.993 4.34315 4.33614 3 5.993 3H17.993C19.6499 3 20.993 4.34315 20.993 6V16C20.993 17.6569 19.6499 19 17.993 19H12.5708Z" clip-rule="evenodd"/></svg>