<?xml version="1.0" ?><svg height="255px" version="1.1" viewBox="0 0 256 255" width="256px" xmlns="http://www.w3.org/2000/svg" xmlns:xlink="http://www.w3.org/1999/xlink"><title/><desc/><defs/><g fill="none" fill-rule="evenodd" id="Classic" stroke="none" stroke-width="1"><g id="Dogecoin" transform="translate(-2176.000000, -3280.000000)"><g transform="translate(2176.000000, 3279.000000)"><path d="M115.94195,1.99532165 C142.985478,-0.594030372 170.840312,5.67081126 194.045404,19.7732218 C215.915766,32.8937639 233.624915,52.7309808 244.189339,75.8787452 C255.356571,100.069202 258.321763,127.796122 253.078808,153.863424 C247.8533,180.008928 233.96514,204.312343 214.179746,222.264025 C194.385629,240.467691 168.615764,252.067641 141.8165,254.900288 C124.52609,256.507771 106.860559,255.212226 90.2593227,249.96401 C61.8723422,241.293156 36.8265459,222.31616 20.792351,197.421886 C7.30548191,176.750516 0.13458517,152.056091 0.474810198,127.396423 C0.544599947,99.2002916 10.5943239,71.1866308 28.3296439,49.2292732 C49.5544514,22.5624231 81.8932765,5.05388511 115.94195,1.99532165" fill="#988430" id="Fill-2"/><path d="M125.512044,5.37512116 C148.193713,4.98411163 171.014961,10.7449854 190.573538,22.2580439 C211.66749,34.5965669 229.018966,53.2868226 239.5136,75.313693 C250.844838,98.2876753 254.186895,124.893702 249.781417,150.048648 C244.006315,183.754539 223.200246,214.504398 194.105772,232.621173 C173.963578,245.481911 149.912285,252.145582 126.009296,251.624236 C102.664625,251.467832 79.5031521,244.221122 60.0492594,231.413388 C40.1330097,218.328471 24.0028539,199.480942 14.6074089,177.601787 C3.77255033,152.977744 1.4694886,124.763365 8.06461991,98.6960631 C14.5027243,72.298575 30.2839314,48.4209262 51.7006607,31.66834 C72.5416246,15.1677377 98.9221498,5.91384541 125.512044,5.37512116" fill="#7A6A2A" id="Fill-4"/><path d="M78.5347321,18.478372 C99.8380531,8.85953745 123.99403,5.80966309 147.07699,9.4417072 C171.180624,13.1780205 194.001872,24.4912297 211.606337,41.3046396 C233.144326,61.6371353 246.728028,90.0939402 248.769378,119.593437 C251.456283,153.229815 239.077327,187.734234 215.436049,211.916001 C215.104548,204.903028 214.999863,197.882235 214.869007,190.861441 C214.816665,185.65667 213.656411,180.565726 213.211501,175.403531 C213.307462,173.596198 213.515959,171.797554 213.577897,169.998911 C213.830885,165.124325 211.23994,160.580794 211.902943,155.670583 C212.548498,148.771437 208.919431,142.515285 207.122345,136.050594 C205.333983,131.507063 205.446519,126.509961 203.711371,121.956873 C202.463879,104.370133 195.624484,86.6182999 182.224852,74.6707864 C182.661038,74.0625494 183.515963,72.8286971 183.952148,72.2117709 C184.484295,73.3587322 185.086232,74.462248 185.688168,75.5657638 C188.802536,72.0553671 189.282341,67.2242271 190.207055,62.8275421 C191.943075,54.9899733 190.739202,46.8917314 189.395749,39.097608 C188.357626,35.1006217 187.528873,30.469331 184.170241,27.7061969 C180.583921,25.6034346 174.373505,25.5686782 172.288537,29.7394465 C172.218747,29.9827413 172.078295,30.469331 172.009378,30.7039367 C170.447832,33.406247 168.28435,35.7436151 165.571273,37.3163424 C160.755781,40.2706366 158.129941,45.8751066 152.982947,48.4644586 C149.772619,49.5071507 146.509948,47.7345741 143.238553,48.0995164 C137.079608,48.7338207 130.824702,49.0553175 124.840231,50.7670703 C119.178537,49.8720929 113.490673,48.9771155 107.863874,47.8475324 C107.881322,47.4391447 107.92494,46.6310583 107.951111,46.2226706 C105.377614,43.7375878 103.030934,40.904941 102.097496,37.3858552 C100.378924,30.8342732 96.3223944,24.5259861 90.2070676,21.3110188 C89.3434195,20.9721439 88.4797713,20.641958 87.6161232,20.3291504 C87.0752526,20.9200093 86.5518295,21.5195572 86.0371301,22.1191052 C85.8364846,22.5796275 85.4351935,23.5006722 85.234548,23.9525054 C83.8736479,26.9850016 84.178978,30.3650618 84.0830171,33.5974072 C83.99578,41.947633 83.1234081,50.4977082 79.5815783,58.1701841 C73.8762663,58.1528059 68.179678,58.1093604 62.4830897,58.1788732 C61.3490063,60.7334688 61.7502974,63.5661157 61.6892313,66.268426 C52.520603,74.722921 48.8566412,87.1830915 47.1467923,99.130605 C47.1380686,100.05165 47.1729635,100.981383 47.2514769,101.902428 C47.2689244,102.26737 47.2950955,102.997255 47.312543,103.353508 C43.2821849,108.64517 42.5755637,115.561694 41.5374412,121.913427 C43.0117497,121.826536 44.4860581,121.739645 45.9690903,121.678821 C44.6081902,121.826536 43.2472901,121.956873 41.8951137,122.087209 C41.6334021,123.538289 41.4240329,124.989369 41.2582822,126.449138 C42.5842874,125.962548 43.901569,125.45858 45.2275742,124.971991 L45.9429191,125.006747 C44.363926,125.64974 42.8198278,126.397003 41.2844534,127.152955 C41.3193482,128.074 41.389138,129.924778 41.4153091,130.845823 C43.2123952,129.924778 45.0269287,129.055868 46.8240147,128.134823 L46.1697358,128.865577 C44.643085,129.855265 42.6889721,130.386169 41.4850989,131.792935 C41.5199938,135.129549 41.9910746,138.448786 42.4447079,141.751513 C43.62241,149.258027 46.2656967,156.565561 50.1303041,163.117143 C50.0168957,167.904837 48.9787732,172.727288 46.1435647,176.680829 C46.9374231,178.176223 48.2634283,179.556921 48.3419418,181.31212 C47.8446898,184.29335 45.4369434,186.812321 45.9429191,189.976022 C46.5884743,197.647629 43.7619895,204.972541 40.4208052,211.723972 C23.0867762,193.780979 11.6325336,170.303029 8.1692173,145.634672 C4.88037536,122.608555 8.32624424,98.617948 18.2974547,77.5555679 C30.4059762,51.5230221 52.2152728,30.1391451 78.5347321,18.478372" fill="#BA9F33" id="Fill-6"/><path d="M86.0372174,22.1190183 C86.5519168,21.5194703 87.0753399,20.9199224 87.6162104,20.3290635 C88.4798586,20.6418712 89.3435067,20.972057 90.2071549,21.3109319 C91.6640159,25.8727098 93.923459,30.4344877 93.4611019,35.3525187 C93.2953513,38.6369988 92.5800064,42.1647737 94.2375129,45.2233371 C94.9528578,46.9611573 96.6888779,47.8648238 98.1631863,48.8640703 C97.273367,49.5505093 96.3922714,50.2369483 95.4588335,50.8538744 C91.6029499,52.3831561 88.5322009,55.2331812 85.64465,58.1092735 C84.528014,58.1092735 83.411378,58.1179626 82.294742,58.1179626 C88.4013451,50.8104289 91.0969742,41.1829053 91.070803,31.7812983 C91.1929351,27.8798921 88.1919759,25.029867 86.0372174,22.1190183" fill="#C79C3B" id="Fill-8"/><path d="M90.2069804,21.3111926 C96.3223072,24.5261599 100.378836,30.834447 102.097409,37.3860289 C103.030847,40.9051147 105.377527,43.7377616 107.951024,46.2228444 C107.924853,46.6312321 107.881234,47.4393185 107.863787,47.8477062 C104.670906,46.8050141 100.745233,46.1446425 98.1630118,48.864331 C96.6887034,47.8650844 94.9526834,46.961418 94.2373384,45.2235978 C92.5798319,42.1650343 93.2951768,38.6372595 93.4609275,35.3527794 C93.9232846,30.4347484 91.6638414,25.8729705 90.2069804,21.3111926" fill="#B58634" id="Fill-10"/><path d="M86.0372174,22.1190183 C88.1919759,25.029867 91.1929351,27.8798921 91.070803,31.7812983 C91.0969742,41.1829053 88.4013451,50.8104289 82.294742,58.1179626 C81.8760036,58.1266517 81.0472503,58.1440299 80.6285118,58.1440299 C83.2717985,54.1122872 85.8976379,49.7416695 86.1767969,44.7975712 C86.6740488,37.8202233 84.5192903,30.9471446 85.2346352,23.9524185 C85.4352808,23.5005853 85.8365718,22.5795406 86.0372174,22.1190183" fill="#DFC068" id="Fill-12"/><path d="M84.0829299,33.5973204 C84.1788908,30.3649749 83.8735607,26.9849147 85.2344608,23.9524185 C84.5191158,30.9471446 86.6738743,37.8202233 86.1766224,44.7975712 C85.8974634,49.7416695 83.2716241,54.1122872 80.6283373,58.1440299 L79.5814911,58.1700972 C83.1233208,50.4976213 83.9956927,41.9475462 84.0829299,33.5973204" fill="#A78F33" id="Fill-14"/><path d="M172.288362,29.7393596 C174.374203,25.5685913 180.584619,25.6033477 184.170067,27.7061101 C187.529571,30.4692441 188.357452,35.1005348 189.395574,39.0975211 C190.739027,46.8916445 191.9429,54.9898864 190.20688,62.8274552 C189.282166,67.2241402 188.803234,72.0552802 185.687994,75.5656769 C185.086057,74.4621611 184.484121,73.3586453 183.951974,72.211684 C183.358761,70.4912421 182.861509,68.7360437 182.303191,66.9982236 C184.449226,62.2279073 185.539691,57.0144468 186.106732,51.8357428 C186.622304,47.2131412 183.534108,43.4073151 180.453763,40.3661298 C178.822427,36.0737141 175.516138,32.876125 172.288362,29.7393596" fill="#A17C34" id="Fill-16"/><path d="M172.009727,30.7041974 C172.078644,30.4695916 172.218223,29.983002 172.288013,29.7397072 C175.516661,32.8764726 178.822951,36.0740616 180.454286,40.3664774 C180.366177,41.626397 180.079166,42.9992749 178.752289,43.4858646 C174.974919,45.3887776 170.744787,46.7703446 167.979369,50.1504048 C166.086322,52.5399075 162.395316,53.9040963 162.099582,57.2320219 C162.500873,57.5274513 163.303455,58.1096211 163.703874,58.4050505 C163.329626,58.8916402 162.587238,59.8648194 162.21299,60.3514091 C162.691923,60.8466878 163.181323,61.3332775 163.668979,61.8198671 C165.68503,59.7257938 168.781951,59.5433227 171.390343,58.622278 C170.979455,59.6302137 170.570313,60.6468385 170.160298,61.6634633 C171.267338,61.4201685 172.392698,61.1768736 173.510206,60.950957 C172.131859,62.5236843 170.586888,63.9486968 168.965149,65.2781292 C168.781951,65.17386 168.415554,64.9826998 168.232356,64.8871197 C166.243348,63.9052513 164.306683,62.584508 162.021069,62.497617 C161.90766,62.158742 161.689567,61.4983704 161.576159,61.1594954 C160.319944,61.0899826 159.072452,60.8553769 157.886026,60.4556783 C158.216655,59.6302137 158.879658,57.9879737 159.211159,57.1711982 C158.522857,57.501384 157.134914,58.1704448 156.44574,58.5006306 C158.322212,55.4333781 160.144597,52.3313691 161.97745,49.2380492 C162.107433,49.0121326 162.369145,48.5602994 162.500873,48.3343828 C165.021156,43.6770248 168.728736,39.7929967 171.267338,35.161706 C172.15803,33.8235845 172.123135,32.2334791 172.009727,30.7041974" fill="#B89844" id="Fill-18"/><path d="M172.009727,30.7041974 C172.123135,32.2334791 172.15803,33.8235845 171.267338,35.161706 C168.728736,39.7929967 165.021156,43.6770248 162.500873,48.3343828 C162.457255,44.4242874 162.971954,40.4273011 165.57075,37.316603 C168.283826,35.7438758 170.448181,33.4065077 172.009727,30.7041974" fill="#CBA94C" id="Fill-20"/><path d="M152.98286,48.4646324 C158.129854,45.8752804 160.755693,40.2708104 165.571186,37.3165161 C162.971518,40.4272142 162.456818,44.4242005 162.500437,48.3342959 C162.369581,48.5602125 162.10787,49.0120457 161.977886,49.2379623 C162.081699,47.7347479 161.933395,46.2402226 161.715302,44.7543864 C159.281385,49.7593084 156.603203,54.6773394 152.921794,58.9002424 C150.793207,58.3267617 148.586106,58.1182233 146.379005,58.1182233 C147.600326,55.7895443 149.170595,53.6694037 150.828101,51.6448433 C142.278857,49.6463501 133.485349,51.5840195 124.840144,50.7672441 C130.825487,49.0554912 137.080393,48.7339945 143.238466,48.0996902 C146.509861,47.7347479 149.772531,49.5073245 152.98286,48.4646324" fill="#AC8132" id="Fill-22"/><path d="M180.454024,40.3661298 C183.533497,43.4073151 186.621694,47.2131412 186.106122,51.8357428 C185.539952,57.0144468 184.449488,62.2279073 182.303453,66.9982236 C180.72446,68.2842105 179.084401,69.5006846 177.461789,70.743226 C176.693229,70.1784344 175.908967,69.622332 175.131684,69.0662296 L174.748712,68.8055565 C177.243696,63.4617596 181.273182,58.4394594 181.535766,52.3657779 C176.781339,52.53956 172.026912,53.3128899 167.49843,54.7552806 C165.632426,55.215803 164.681541,56.9275558 163.704485,58.404703 C163.303194,58.1092735 162.500611,57.5271038 162.09932,57.2316744 C162.395927,53.9037488 166.08606,52.53956 167.979107,50.1500573 C170.744526,46.7699971 174.975529,45.38843 178.752899,43.485517 C180.078905,42.9989273 180.365915,41.6260494 180.454024,40.3661298" fill="#927238" id="Fill-24"/><path d="M161.715041,44.7543864 C161.933134,46.2402226 162.081437,47.7347479 161.977625,49.2379623 C160.144771,52.3312822 158.321514,55.4332912 156.445915,58.5005437 C157.135088,58.1703579 158.523032,57.5012971 159.211333,57.1711113 C158.879832,57.9878868 158.216829,59.6301268 157.885328,60.4555914 C156.237418,59.899489 154.597359,59.3433865 152.921532,58.9002424 C156.603814,54.6773394 159.281123,49.7593084 161.715041,44.7543864" fill="#8C6228" id="Fill-26"/><path d="M98.1630991,48.864331 C100.74532,46.1446425 104.670993,46.8050141 107.863874,47.8477062 C113.490673,48.9772893 119.178537,49.8722667 124.840231,50.7672441 C133.485436,51.5840195 142.278944,49.6463501 150.828189,51.6448433 C149.170682,53.6694037 147.600413,55.7895443 146.379092,58.1182233 C132.394971,58.1008451 118.402126,58.179047 104.418005,58.1269124 C103.833516,56.1457974 103.755003,53.6780928 101.923022,52.3573495 C100.056146,51.019228 97.6396759,51.0974299 95.4587463,50.8541351 C96.3921842,50.2372089 97.2732798,49.55077 98.1630991,48.864331" fill="#D2A83E" id="Fill-28"/><path d="M85.6444755,58.1091866 C88.5320264,55.2330943 91.6027754,52.3830693 95.458659,50.8537875 C97.6395887,51.0970823 100.056059,51.0188804 101.922935,52.3570019 C103.754915,53.6777453 103.833429,56.1454499 104.417918,58.1274337 C98.1630118,58.1091866 91.8993818,58.1178757 85.6444755,58.1091866" fill="#DCBA5A" id="Fill-30"/><path d="M167.498779,54.7553675 C172.026389,53.3129768 176.781688,52.5396468 181.536115,52.3658648 C181.273531,58.4395462 177.244045,63.4618465 174.749061,68.8056434 C172.898761,67.5022783 170.962968,66.3379388 168.965236,65.2778685 C170.586975,63.9484361 172.131946,62.5234236 173.510293,60.9506964 C172.392785,61.176613 171.267425,61.4199078 170.160385,61.6632026 C170.5704,60.6465778 170.979543,59.629953 171.39043,58.6220174 C168.782038,59.543062 165.685118,59.7255332 163.669066,61.8196064 C163.18141,61.3330168 162.69201,60.8464271 162.212205,60.3511484 C162.587325,59.8645588 163.329714,58.8913795 163.703961,58.4047898 C164.68189,56.9276427 165.631903,55.2158899 167.498779,54.7553675" fill="#543E26" id="Fill-32"/><path d="M62.483177,58.1787863 C68.1797652,58.1092735 73.8763535,58.152719 79.5816655,58.1700972 L80.6285118,58.1440299 C81.0472503,58.1440299 81.8760036,58.1266517 82.294742,58.1179626 C83.411378,58.1179626 84.528014,58.1092735 85.64465,58.1092735 C91.8995563,58.1179626 98.1631863,58.1092735 104.418093,58.1266517 C118.402214,58.1787863 132.395058,58.1005844 146.378307,58.1179626 C148.58628,58.1179626 150.793381,58.326501 152.921096,58.8999817 C154.596922,59.3431258 156.236981,59.8992283 157.885764,60.4553307 C159.07219,60.8550294 160.319682,61.0896351 161.575897,61.1591479 C161.689306,61.4980228 161.907399,62.1583945 162.020807,62.4972694 C164.306421,62.5841604 166.243087,63.9049037 168.232095,64.8867721 C166.940984,68.2060086 164.315145,70.656335 161.881227,73.1501069 C164.018539,74.3318246 166.138402,75.5656769 168.083791,77.0515131 C170.570051,74.5142957 172.864389,71.7946072 175.131684,69.0662296 C175.908967,69.622332 176.693229,70.1784344 177.461789,70.743226 C179.110572,71.9770783 180.707012,73.2804434 182.224939,74.6706995 C195.624571,86.618213 202.463094,104.370046 203.711458,121.956786 C203.877209,124.259397 203.912104,126.570698 203.981894,128.87331 C203.929551,138.023802 203.100798,147.23338 200.693052,156.088442 C199.026822,162.230768 196.662694,168.208869 193.426194,173.700381 C191.158027,177.18471 188.723237,180.590837 185.79294,183.56251 C183.890297,185.543625 181.892566,187.447407 179.677614,189.088778 C178.68311,188.576121 177.697329,188.072153 176.702825,187.568185 C175.010424,188.506608 173.440155,189.992444 171.398805,190.03589 C168.658684,190.218361 166.120955,191.408768 163.424453,191.877979 C166.041569,187.986131 171.390081,185.065724 170.526433,179.678482 C169.052124,179.747995 167.586539,179.817508 166.120955,179.88702 C166.618207,178.001485 167.097139,176.098572 167.551645,174.196528 C167.062244,173.874163 166.103507,173.231169 165.623703,172.909672 C167.272486,171.077141 168.956163,169.251561 170.508985,167.322581 C167.193972,168.078532 164.201737,169.712083 161.061198,170.945936 C167.080564,162.213389 172.375861,152.968186 176.80751,143.340663 C179.337389,137.372119 182.713468,131.453973 182.791981,124.798122 C183.017925,120.549151 180.288274,116.873662 180.157418,112.659448 C179.781426,107.81093 179.791022,102.197771 175.75194,98.7481977 C168.781689,100.17321 161.724201,98.8437778 154.771397,98.0356914 C152.904521,97.7663293 151.028921,98.087826 149.188217,98.3919445 C148.865439,98.000935 148.524342,97.6359928 148.184989,97.2710505 C146.021507,95.1074645 143.735893,92.8482983 140.778552,91.8316735 C138.055879,91.3885293 135.290461,91.7447825 132.552085,91.7708498 L132.176965,91.6752697 C129.148963,90.3632155 126.000573,88.6514626 122.580875,89.2596997 C119.736943,89.5551291 118.044541,92.1271029 115.776374,93.5434263 C113.438418,95.0205735 111.117909,96.5672334 109.346994,98.7221304 C111.68495,102.701739 115.881059,104.882703 120.225471,106.003597 C120.077168,108.601638 119.876522,111.19099 119.649705,113.780342 C116.980247,114.66663 114.485264,115.987374 112.190926,117.603546 C110.969605,114.970749 110.39384,112.094656 109.216138,109.45317 C107.959922,107.784862 106.215179,106.559699 104.636186,105.212889 C104.269789,106.333783 103.912117,107.463366 103.545721,108.592949 C102.743139,109.010026 101.940556,109.435792 101.137974,109.861558 C101.024566,107.897821 100.972224,105.925395 100.614551,103.987725 C99.8294166,100.46864 97.3082619,97.6881274 95.9735329,94.3949582 C96.1916259,91.0235871 97.2210247,87.739107 97.3082619,84.3503577 C95.6158605,85.0281076 93.8972879,85.6450338 92.2397813,86.3922964 C89.9716145,87.2872738 88.8549785,89.6680874 86.9095892,90.9975198 C85.0165423,91.8316735 82.9577447,92.1444811 80.9687368,92.6658272 L81.2217247,91.9446318 C82.9926395,90.3979719 83.4986152,88.1214275 83.9435249,85.9317741 C82.8181652,86.4704983 81.7015292,87.0092226 80.5848932,87.5566359 C79.1803745,85.5928992 81.3176856,84.2721558 82.5390062,82.9861689 C80.7331964,81.3178616 78.2992789,80.0231856 75.7955716,80.9268521 C71.599463,82.386621 69.7500346,87.0266008 69.3225724,91.1104781 C67.6039998,91.1539236 65.8854272,91.2321255 64.1668547,91.1973691 C64.838581,89.9635168 65.5015836,88.7296645 66.1820337,87.4958122 C65.335833,85.6276556 63.4340623,84.9238384 61.6282525,84.3069122 C61.7242134,79.6495543 61.6457,75.0008854 61.6369762,70.3522165 C61.6544237,68.9880276 61.6893186,67.6325279 61.6893186,66.2683391 C61.7503846,63.5660288 61.3490935,60.7333819 62.483177,58.1787863" fill="#F3EBDB" id="Fill-34"/><path d="M168.232356,64.8869459 C168.415554,64.982526 168.781951,65.1736862 168.965149,65.2779554 C170.96288,66.3380257 172.899546,67.5023652 174.748974,68.8057303 L175.131945,69.0664033 C172.864651,71.794781 170.570313,74.5144695 168.084053,77.0516869 C166.138664,75.5658507 164.0188,74.3319984 161.881489,73.1502807 C164.315407,70.6565088 166.941246,68.2061824 168.232356,64.8869459" fill="#DCDAD7" id="Fill-36"/><path d="M47.1468795,99.1308657 C48.8567284,87.1833522 52.5206902,74.7231817 61.6893186,66.2686867 C61.6893186,67.6328755 61.6544237,68.9883752 61.6369762,70.352564 C55.5652681,76.6869185 52.0583332,85.1327244 50.4008266,93.639354 C49.7552714,96.5328245 48.4554373,99.2177567 47.2515642,101.902689 C47.1730507,100.981644 47.1381558,100.05191 47.1468795,99.1308657" fill="#A78E32" id="Fill-38"/><path d="M177.462051,70.743226 C179.08379,69.5006846 180.723849,68.2842105 182.303715,66.9982236 C182.86116,68.7360437 183.359285,70.4912421 183.951625,72.211684 C183.515439,72.8286102 182.661387,74.0624625 182.225201,74.6706995 C180.707274,73.2804434 179.110834,71.9770783 177.462051,70.743226" fill="#B59544" id="Fill-40"/><path d="M50.4007394,93.6390933 C52.0582459,85.1324637 55.5651808,76.6866578 61.636889,70.3523034 C61.6456127,75.0009722 61.7241262,79.6496411 61.6281653,84.3069991 C58.7493381,86.7486364 57.4669515,90.763001 53.7593711,92.231459 C53.2621191,94.7686764 52.2501677,97.1668682 50.7496881,99.2783197 C49.6592233,100.685954 48.4727975,102.006697 47.312543,103.353508 C47.2950955,102.997255 47.2689244,102.26737 47.2514769,101.902428 C48.4553501,99.217496 49.7551842,96.5325639 50.4007394,93.6390933" fill="#EBCC73" id="Fill-42"/><path d="M75.7953972,80.9270258 C78.2991044,80.0233594 80.7330219,81.3180354 82.5388317,82.9863427 C81.3175111,84.2723296 79.1802,85.5930729 80.5847187,87.5568097 C81.7013547,87.0093964 82.8179907,86.4706721 83.9433504,85.9319479 C83.4984408,88.1216012 82.9924651,90.3981456 81.2215502,91.9448056 C78.9359359,91.6146197 76.6154267,91.5798633 74.3210887,91.8231582 C74.4606682,90.4589693 74.5566291,89.0774023 74.8968541,87.7479699 C75.9437004,86.6183868 77.4529037,86.1317972 78.778909,85.4453582 C77.9763268,84.6372719 77.3307717,83.5945798 76.2839254,83.0906119 C73.7802182,83.7596727 71.2765109,85.6538966 70.901391,88.3475179 C70.962457,89.5813702 71.1631026,90.8065334 71.3463006,92.0403857 C70.9362859,92.0230075 70.1075326,91.9882511 69.6975178,91.979562 L69.1828184,91.9621838 L69.3223979,91.1106519 C69.7498601,87.0267746 71.5992885,82.3867948 75.7953972,80.9270258" fill="#D7D7D5" id="Fill-44"/><path d="M179.65153,82.6126245 C181.771393,81.88274 183.908704,81.1963011 186.063463,80.588064 C187.677351,83.8117204 187.13648,87.313428 185.496421,90.3980588 C186.281556,90.3980588 187.075414,90.4067479 187.869273,90.415437 C188.008852,93.1264364 187.973957,96.9235734 184.772352,97.8098617 C183.001438,93.9258337 178.770434,91.6666675 177.688693,87.400319 C177.818676,85.6451206 178.892566,84.1505953 179.65153,82.6126245" fill="#E6DED7" id="Fill-46"/><path d="M70.9014782,88.3475179 C71.2765981,85.6538966 73.7803054,83.7596727 76.2840127,83.0906119 C77.3308589,83.5945798 77.9764141,84.6372719 78.7789962,85.4453582 C77.452991,86.1317972 75.9437876,86.6183868 74.8969414,87.7479699 C74.5567164,89.0774023 74.4607554,90.4589693 74.321176,91.8231582 C73.5796599,91.8752928 72.087904,91.979562 71.3463879,92.0403857 C71.1631898,90.8065334 70.9625443,89.5813702 70.9014782,88.3475179" fill="#F5F2E6" id="Fill-48"/><path d="M92.2396941,86.3924702 C93.8972006,85.6452075 95.6157732,85.0282814 97.3081746,84.3505315 C97.2209375,87.7392808 96.1915386,91.0237609 95.9734457,94.395132 C97.3081746,97.6883012 99.8293293,100.468813 100.614464,103.987899 C100.972136,105.925569 101.024479,107.897995 101.137887,109.861731 C101.940469,109.435965 102.743051,109.010199 103.545633,108.593123 C103.91203,107.463539 104.269702,106.333956 104.636098,105.213062 C106.215091,106.559873 107.959835,107.785036 109.216051,109.453344 C110.393753,112.09483 110.969518,114.970923 112.190839,117.60372 C114.485177,115.987547 116.98016,114.666804 119.649618,113.780516 C119.876435,111.191164 120.07708,108.601812 120.225384,106.003771 C120.234107,105.725719 120.242831,105.169617 120.251555,104.891566 C118.707457,103.605579 116.282263,102.780114 116.072893,100.486192 C115.880972,97.5666537 117.7304,95.0294363 119.797921,93.1612797 C120.373687,93.2829271 120.958176,93.4219527 121.551389,93.5088437 C122.676749,93.4219527 123.226343,92.761581 123.191448,91.5103505 C124.700651,91.4495268 126.209855,91.5190396 127.719058,91.6059306 C126.192407,93.708693 124.247018,95.6637407 121.568836,96.1068848 C121.560113,97.5145191 121.595007,98.9221535 121.673521,100.329788 C121.586284,101.746111 121.43798,103.162435 121.350743,104.578758 L121.324572,105.551937 C121.34202,108.897241 121.34202,112.251234 121.368191,115.596538 C121.385638,132.323057 121.307125,149.040887 121.403086,165.767405 C121.481599,166.088902 121.64735,166.740585 121.734587,167.062081 C129.298051,166.558114 137.908361,168.921549 144.468598,164.012207 C153.663397,157.434558 157.440767,145.930188 158.391653,135.129636 C159.46467,122.382725 157.179056,108.740837 149.18813,98.3921183 C151.028834,98.0879998 152.904434,97.7665031 154.771309,98.0358652 C161.724113,98.8439516 168.781602,100.173384 175.751853,98.7483714 C179.790935,102.197944 179.782211,107.811104 180.157331,112.659622 C180.288187,116.873836 183.018711,120.549325 182.791894,124.798295 C182.71338,131.454147 179.337301,137.371424 176.807423,143.340836 C172.375774,152.96836 167.080477,162.213563 161.061111,170.946109 C164.201649,169.712257 167.193885,168.078706 170.508898,167.322754 C168.956076,169.251735 167.272398,171.076446 165.623616,172.909846 C166.10342,173.231343 167.063029,173.874336 167.551557,174.195833 C167.097924,176.098746 166.618119,178.001659 166.120867,179.887194 C167.586452,179.817681 169.052037,179.748169 170.526345,179.678656 C171.389994,185.065898 166.042354,187.985436 163.425238,191.878153 C166.120867,191.408942 168.65947,190.218535 171.398717,190.036064 C173.440067,189.992618 175.010337,188.506782 176.702738,187.568359 C177.697242,188.072327 178.683022,188.576295 179.677526,189.088952 C169.139274,197.065546 155.853051,201.366651 142.619169,201.071222 C131.103861,201.036465 119.588552,201.123356 108.073243,201.027776 C103.083276,201.045154 98.0845856,201.036465 93.0946185,201.045154 C89.4306567,201.045154 85.7579711,201.045154 82.0940093,201.062533 C81.0209919,201.053844 79.9479745,201.045154 78.8749571,201.045154 C73.9809509,201.027776 69.078221,201.218936 64.1929386,201.010398 C62.474366,201.149424 61.7851922,199.246511 61.7764685,197.856254 C61.5583755,193.989605 61.7590211,190.122955 61.697955,186.256305 C61.7415736,181.842242 61.7677448,177.41949 61.6543364,173.005426 C61.636889,171.076446 61.9422192,169.182222 62.3958525,167.314065 C68.5547979,166.68845 74.7399144,167.487847 80.9163073,167.062081 C80.9163073,164.959319 80.925031,162.856557 80.925031,160.762483 C80.925031,159.146311 80.925031,157.530138 80.9424784,155.922654 C81.3175983,157.330289 81.7799554,158.711856 82.2335888,160.102112 C85.1473108,159.563387 88.3838104,158.824814 90.5821875,161.396788 C95.7204578,156.861077 103.292646,157.078305 109.434144,154.567155 C110.768873,151.108892 113.88324,148.319691 113.473225,144.331394 C113.228961,144.279259 112.722986,144.166301 112.478721,144.105477 C106.049341,142.089606 100.038699,146.234307 93.7576211,146.712208 C89.5789599,146.321198 85.5486019,144.305327 82.8616965,141.08167 C83.0885132,140.160626 83.3415011,139.239581 83.5857652,138.327225 C82.9663812,137.814568 82.3469971,137.301911 81.7276131,136.789254 C81.6578234,134.929787 81.6316522,133.070319 81.7363368,131.219541 C82.3033785,129.029888 83.7689633,127.318135 85.7841423,126.310199 C86.4296975,123.025719 86.9618443,119.723861 87.5376097,116.430691 C85.8190372,114.267105 83.498528,112.755202 80.9163073,111.80809 L80.9163073,111.556106 C80.8988598,109.349074 80.8988598,107.150732 80.9163073,104.9437 C80.9599259,101.137874 80.9163073,97.332048 80.8988598,93.5262219 C80.9163073,93.3089944 80.9512021,92.8745394 80.9686496,92.6660009 C82.9576574,92.1446549 85.016455,91.8318473 86.909502,90.9976936 C88.8548913,89.6682612 89.9715272,87.2874476 92.2396941,86.3924702" fill="#F8F3E4" id="Fill-50"/><path d="M53.7594583,92.2317197 C57.4670387,90.7632617 58.7494254,86.7488971 61.6282525,84.3072598 C61.6631474,86.4969132 61.706766,88.6865666 61.767832,90.87622 C62.3697686,90.9544219 63.5649181,91.1195148 64.1668547,91.1977167 C65.8854272,91.2324731 67.6039998,91.1542712 69.3225724,91.1108257 L69.1829929,91.9623576 C66.8363126,91.9189121 64.4896323,91.910223 62.1429519,91.8667774 C61.8550692,93.1788317 61.6544237,94.499575 61.5846339,95.8376965 C57.0046816,97.610273 54.2567103,101.79842 50.5142349,104.709268 C50.5491298,102.893246 50.5927484,101.085913 50.7497754,99.2785804 C52.250255,97.1671289 53.2622063,94.7689371 53.7594583,92.2317197" fill="#F4EFC8" id="Fill-52"/><path d="M61.6283398,84.3071729 C63.4341495,84.9240991 65.3359202,85.6279162 66.1821209,87.4960729 C65.5016709,88.7299252 64.8386682,89.9637775 64.1669419,91.1976298 C63.5650053,91.1194279 62.3698559,90.954335 61.7679193,90.8761331 C61.7068532,88.6864797 61.6632346,86.4968263 61.6283398,84.3071729" fill="#FCFCF4" id="Fill-54"/><path d="M115.776287,93.5436001 C118.044454,92.1272767 119.736855,89.5553029 122.580788,89.2598734 C126.000485,88.6516364 129.149748,90.3633892 132.176878,91.6754435 C130.685122,91.640687 129.20209,91.6667543 127.719058,91.6059306 C126.209855,91.5190396 124.700651,91.4495268 123.191448,91.5103505 C121.961404,91.5798633 121.411809,92.2489241 121.551389,93.5088437 C120.958176,93.4219527 120.373687,93.2829271 119.797921,93.1612797 C117.7304,95.0294363 115.880972,97.5666537 116.072893,100.486192 C116.282263,102.780114 118.707457,103.605579 120.251555,104.891566 C120.242831,105.169617 120.234107,105.725719 120.225384,106.003771 C115.880972,104.882877 111.684863,102.701912 109.346906,98.7223041 C111.117821,96.5674072 113.43833,95.0207472 115.776287,93.5436001" fill="#D7D7D5" id="Fill-56"/><path d="M62.1428647,91.8664299 C64.489545,91.9098754 66.8362253,91.9185645 69.1829057,91.96201 L69.6976051,91.9793882 C70.631043,93.8301667 71.9221533,95.4810958 73.762858,96.5150988 C74.3298997,96.9582429 74.8882177,97.4187653 75.4378119,97.8879767 C73.605831,100.685867 70.9189257,102.901588 69.6016442,106.029664 C68.2930864,106.559699 67.001976,107.124491 65.6846945,107.602391 C65.4055355,107.41992 64.8472175,107.063667 64.5680585,106.881196 C64.8384938,106.420674 65.3619169,105.508318 65.6236284,105.047796 C64.6291245,104.81319 63.6258969,104.578584 62.6313929,104.343979 C62.1079698,101.52871 61.7328499,98.6960631 61.5845467,95.8373489 C61.6543364,94.4992274 61.854982,93.1784841 62.1428647,91.8664299" fill="#E5C66B" id="Fill-58"/><path d="M69.6977795,91.9797358 C70.1077943,91.9884249 70.9365476,92.0231813 71.3465624,92.0405595 C71.1371931,95.5509562 75.1675511,95.1425684 77.5229552,94.7776262 C76.4673852,93.7696905 75.4118153,92.779133 74.3213504,91.8233319 C76.6156884,91.5800371 78.9361976,91.6147935 81.2218119,91.9449794 L80.968824,92.6661747 C80.9513766,92.8747131 80.9164817,93.3091682 80.8990343,93.5263957 C78.2906424,94.0564308 76.5458987,96.7848085 73.7630324,96.5154463 C71.9223278,95.4814434 70.6312174,93.8305142 69.6977795,91.9797358" fill="#242110" id="Fill-60"/><path d="M71.3462134,92.0403857 C72.0877295,91.979562 73.5794854,91.8752928 74.3210015,91.8231582 C75.4114663,92.7789592 76.4670363,93.7695167 77.5226062,94.7774524 C75.1672022,95.1423946 71.1368442,95.5507824 71.3462134,92.0403857" fill="#938357" id="Fill-62"/><path d="M121.551476,93.5088437 C121.411897,92.2489241 121.961491,91.5798633 123.191535,91.5103505 C123.22643,92.761581 122.676836,93.4219527 121.551476,93.5088437" fill="#CDBD83" id="Fill-64"/><path d="M127.718971,91.6059306 C129.202003,91.6667543 130.685035,91.640687 132.176791,91.6754435 L132.551911,91.7710236 C134.498172,93.013565 136.416518,94.3516865 138.012959,96.0460611 C136.172254,99.9735347 132.90086,103.284082 128.853054,104.9437 C126.419137,105.673585 123.828192,105.43029 121.324485,105.551937 L121.350656,104.578758 C123.234979,104.56138 125.119303,104.491867 127.012349,104.387598 C124.936104,103.449175 122.938373,102.276146 121.673434,100.329788 C121.59492,98.9221535 121.560025,97.5145191 121.568749,96.1068848 C124.246931,95.6637407 126.19232,93.708693 127.718971,91.6059306" fill="#252211" id="Fill-66"/><path d="M132.551998,91.7710236 C135.291246,91.7449563 138.056665,91.3887031 140.778465,91.8318473 C143.735805,92.848472 146.02142,95.1076382 148.184902,97.2712243 C145.393312,100.147317 143.570055,103.727226 141.179756,106.898748 C138.815628,110.139783 134.558453,110.695885 131.225993,112.520596 C128.163968,114.171525 124.857678,115.327176 121.368191,115.596538 C121.34202,112.251234 121.34202,108.897241 121.324572,105.551937 C123.828279,105.43029 126.419224,105.673585 128.853141,104.9437 C132.900947,103.284082 136.172341,99.9735347 138.013046,96.0460611 C136.416605,94.3516865 134.497387,93.013565 132.551998,91.7710236" fill="#D2B257" id="Fill-68"/><path d="M73.7626835,96.5151857 C76.5455497,96.7845478 78.2902935,94.0561702 80.8986854,93.526135 C80.9161328,97.3319611 80.9597514,101.137787 80.9161328,104.943613 C78.8224403,105.45627 76.6327869,106.568475 74.4780284,105.760389 C72.8554167,105.117395 71.1630153,105.299867 69.6014697,106.029751 C70.9187512,102.901675 73.6056565,100.685954 75.4376375,97.8880636 C74.8880432,97.4188521 74.3297252,96.9583298 73.7626835,96.5151857" fill="#E6BD62" id="Fill-70"/><path d="M128.058934,93.8130491 C130.885419,94.0476548 126.593349,96.4284684 128.058934,93.8130491" fill="#696148" id="Fill-72"/><path d="M50.5140605,104.709181 C54.2565358,101.798333 57.0045072,97.6101861 61.5844595,95.8376096 C61.7327627,98.6963237 62.1078826,101.528971 62.6313057,104.344239 C63.6258096,104.578845 64.6290373,104.813451 65.6235412,105.048056 C65.3618296,105.508579 64.8384065,106.420934 64.5679712,106.881457 C61.6106306,109.114556 57.7721944,110.774174 56.3153334,114.432285 C54.6578268,118.915861 54.8235775,123.781758 54.2041935,128.465183 C53.1311761,127.405113 51.5260118,126.527513 51.6219727,124.798382 C51.3951561,121.279297 52.328594,117.821034 52.5379632,114.328016 C50.9066278,116.691451 49.9208476,119.402451 48.9437911,122.078694 C48.4988815,123.764379 46.5185973,124.129322 45.227487,124.972164 C43.9014817,125.458754 42.5842002,125.962722 41.258195,126.449311 C41.4239456,124.989543 41.6333149,123.538463 41.8950264,122.087383 C43.2472028,121.957046 44.6081029,121.82671 45.969003,121.678995 C44.4859709,121.739819 43.0116624,121.82671 41.537354,121.913601 C42.5754765,115.561868 43.2820977,108.645344 47.3124557,103.353682 C48.4727103,102.006871 49.659136,100.686128 50.7496009,99.2784935 C50.5925739,101.085826 50.5489553,102.893159 50.5140605,104.709181" fill="#F4ECB4" id="Fill-74"/><path d="M128.914207,97.0798903 C131.557494,95.8373489 129.184643,99.9125372 128.914207,97.0798903" fill="#71694F" id="Fill-76"/><path d="M148.184815,97.2712243 C148.52504,97.6361666 148.865265,98.0011088 149.188042,98.3921183 C157.179841,108.740837 159.464583,122.382725 158.391566,135.129636 C157.021942,135.86821 155.626147,136.571158 154.335036,137.449626 C152.119212,138.960661 150.906615,141.532635 148.69079,143.045407 C144.808736,144.974387 139.923453,144.513865 136.46886,147.355201 C134.498172,149.579611 133.15472,152.316677 130.850786,154.254347 C132.08083,155.496888 133.407708,156.652539 134.540919,157.99066 C135.134132,159.024663 134.916039,160.354096 135.509251,161.396788 C136.617164,162.283076 137.882103,162.960826 139.0947,163.708089 C135.954161,164.1773 132.770004,164.064342 129.620741,163.647265 C126.680848,163.091162 124.028838,164.750781 121.402998,165.767405 C121.307037,149.040887 121.385551,132.323057 121.368103,115.596538 C124.857591,115.327176 128.16388,114.171525 131.226778,112.520596 C134.558366,110.695885 138.815541,110.139783 141.179669,106.898748 C143.569967,103.727226 145.393225,100.147317 148.184815,97.2712243" fill="#DFCD88" id="Fill-78"/><path d="M121.673695,100.329875 C122.938635,102.276233 124.936366,103.449262 127.012611,104.387685 C125.119564,104.491954 123.235241,104.561467 121.350918,104.578845 C121.438155,103.162522 121.586458,101.746198 121.673695,100.329875" fill="#DFCD88" id="Fill-80"/><path d="M69.6014697,106.029925 C71.1630153,105.30004 72.8554167,105.117569 74.4780284,105.760563 C76.6327869,106.568649 78.8224403,105.456444 80.9161328,104.943787 C80.8986854,107.150819 80.8986854,109.349161 80.9161328,111.556193 C76.754919,110.096424 72.4192308,108.949463 67.9614106,109.192757 C67.202447,108.654033 66.4434835,108.123998 65.68452,107.602652 C67.0018015,107.124751 68.2929119,106.55996 69.6014697,106.029925" fill="#DFC57C" id="Fill-82"/><path d="M56.3152461,114.432198 C57.7721072,110.774087 61.6105434,109.114469 64.567884,106.88137 C64.847043,107.063841 65.405361,107.420094 65.68452,107.602565 C66.4434835,108.123911 67.202447,108.653946 67.9614106,109.192671 C63.9833949,109.323007 60.0577215,111.877603 59.5866406,116.048371 C58.8974669,121.348722 57.0567622,126.431846 56.5595103,131.749576 C56.0360872,135.57278 59.5779169,138.075241 60.6858292,141.411856 C61.0260542,143.227878 61.1394626,145.078657 61.6018197,146.868611 C61.0696728,149.188601 60.6073157,151.525969 60.2409195,153.872027 C59.4645086,153.889405 58.6793739,153.915472 57.9029629,153.941539 C57.0829334,155.835763 56.0971532,157.677853 55.4777692,159.658968 C56.1843904,163.473483 57.4406059,167.183729 58.3217014,170.972177 C58.1472271,171.397943 57.7895546,172.258164 57.6150802,172.68393 C55.7133096,170.624613 54.6315684,167.74852 52.1191375,166.323508 C51.4735823,165.23737 50.7756848,164.194678 50.1301296,163.11723 C46.2655222,156.565648 43.6222355,149.258114 42.4445335,141.750731 C42.8022059,139.53501 43.2296681,137.327979 43.5960643,135.120947 C45.2012286,138.292469 45.0267542,142.159119 47.172789,145.052589 C48.62965,144.670269 50.0952347,144.314016 51.5782669,144.053343 L52.3110593,144.922253 C53.8464338,142.706532 55.2945711,140.325718 55.5737301,137.579963 C54.5705024,138.935462 53.6370645,140.343097 52.7908638,141.802866 C51.5695432,139.891263 50.1214059,138.066552 49.4147847,135.894277 C49.0222173,133.383127 49.1094545,130.83722 48.908809,128.316512 C47.9928185,128.491163 47.0855518,128.664945 46.1695613,128.864795 L46.8238402,128.13491 C47.6351461,127.231244 48.411557,126.30151 49.1966917,125.380465 C48.1149506,125.24144 47.0332095,125.067658 45.9427447,125.006834 L45.2273997,124.972077 C46.5185101,124.129235 48.4987942,123.764292 48.9437039,122.078607 C49.9207604,119.402364 50.9065406,116.691364 52.537876,114.327929 C52.3285067,117.820948 51.3950688,121.27921 51.6218855,124.798295 C51.5259246,126.527427 53.1310888,127.405026 54.2041062,128.465096 C54.8234903,123.781671 54.6577396,118.915774 56.3152461,114.432198" fill="#F3E19D" id="Fill-84"/><path d="M59.5866406,116.048284 C60.0577215,111.877516 63.9833949,109.32292 67.9614106,109.192584 C72.4192308,108.949289 76.754919,110.09625 80.9161328,111.556019 L80.9161328,111.808003 C80.9423039,115.692031 80.8899616,119.56737 80.9335802,123.451398 L80.9248565,124.172593 C79.6162987,125.441202 78.3775307,126.788013 77.1213152,128.117445 C74.9927278,129.924778 72.2622039,130.645973 69.6101934,131.324592 C69.4880613,131.888515 69.2437972,133.018098 69.1216652,133.582889 C68.9820857,134.208505 68.7116504,135.468424 68.5720709,136.09404 C64.8295956,132.635777 62.6399422,127.995798 60.1536824,123.651247 C58.7666111,121.339946 59.2987579,118.559434 59.5866406,116.048284" fill="#252211" id="Fill-86"/><path d="M80.9163073,111.80809 C83.498528,112.755202 85.8190372,114.267105 87.5376097,116.430691 C86.9618443,119.723861 86.4296975,123.025719 85.7841423,126.310199 C83.7689633,127.318135 82.3033785,129.029888 81.7363368,131.219541 C81.8759163,128.595432 81.4484541,126.00608 80.9337547,123.451485 C80.8901361,119.567457 80.9424784,115.692118 80.9163073,111.80809" fill="#DFDDD9" id="Fill-88"/><path d="M28.7397459,114.258242 C33.0667104,113.936746 37.4721883,114.249553 41.6508495,115.457338 C37.821137,114.692698 33.9303585,114.101839 30.0221326,114.397268 C28.5739953,114.562361 28.7397459,114.258242 28.7397459,114.258242" fill="#BFA64C" id="Fill-90"/><path d="M56.559772,131.749315 C57.0570239,126.431586 58.8977286,121.348462 59.5869024,116.04811 C59.2990196,118.55926 58.7668728,121.340642 60.1539441,123.651073 C62.6402039,127.995624 64.8298573,132.636473 68.5723326,136.093866 C68.7119121,135.46825 68.9823474,134.208331 69.1219269,133.582716 C70.4915507,133.644408 71.8611745,133.72261 73.2395221,133.808632 C75.1587402,135.355292 77.2262615,136.745548 78.8837681,138.596327 C80.6721304,135.207577 78.1509757,131.888341 78.4912007,128.404012 C78.1509757,128.334499 77.4618019,128.186784 77.1215769,128.117271 C78.3777924,126.787839 79.6165604,125.441028 80.9251182,124.17242 C80.9076708,130.089697 80.9338419,136.015664 80.9338419,141.93381 C74.2165786,139.847557 67.0456818,137.423298 60.0230883,139.665086 C66.5920484,142.654137 73.9984856,142.888743 80.9251182,144.696075 C80.9251182,146.651123 80.9076708,148.606171 80.8902233,150.561218 C77.6886186,151.99492 74.7748966,153.976035 71.660529,155.584388 C68.4153057,153.412112 66.0511779,150.223212 62.8321257,148.016181 C62.5267956,147.729441 61.9074115,147.155091 61.6020814,146.868351 C61.1397243,145.078396 61.0263159,143.227617 60.6860909,141.411595 C59.5781786,138.074981 56.0363489,135.57252 56.559772,131.749315" fill="#6E6342" id="Fill-92"/><path d="M29.8736549,125.658516 C33.2148391,123.816427 37.000933,122.990963 40.7085135,122.261078 C40.3159461,123.095232 39.6616672,123.5992 38.7631242,123.79036 C35.8668496,124.65927 32.9444038,125.667206 29.8736549,125.658516" fill="#BFA64C" id="Fill-94"/><path d="M203.711633,121.957133 C205.446781,126.510222 205.333372,131.506455 207.122607,136.050855 C208.919693,142.515546 212.54876,148.770829 211.903205,155.670844 C211.013385,154.228453 210.184632,152.690483 210.254422,150.943104 C210.271869,147.21548 208.273265,143.966625 207.358147,140.44754 C206.275534,136.571332 205.150174,132.71424 203.982068,128.873657 C203.911406,126.571046 203.876511,124.259745 203.711633,121.957133" fill="#988430" id="Fill-96"/><path d="M80.9337547,123.451398 C81.4484541,126.005994 81.8759163,128.595346 81.7363368,131.219454 C81.6316522,133.070232 81.6578234,134.9297 81.7276131,136.789168 C82.3469971,137.301825 82.9663812,137.814481 83.5857652,138.327138 C83.3415011,139.239494 83.0885132,140.160539 82.8616965,141.081583 C82.5214715,142.428394 82.4691292,143.827339 82.4865766,145.217595 C91.99543,148.55421 103.903306,150.882889 112.478721,144.106259 C112.722986,144.166214 113.228961,144.279172 113.473225,144.331307 C113.88324,148.319604 110.768873,151.108806 109.434144,154.567937 C103.292646,157.078218 95.7204578,156.86099 90.5821875,161.396701 C88.3838104,158.824727 85.1473108,159.56417 82.2335888,160.102025 C81.7799554,158.711769 81.3175983,157.330202 80.9424784,155.922567 C80.863965,154.133482 80.8814124,152.351347 80.8901361,150.561392 C80.9075835,148.606345 80.925031,146.651297 80.925031,144.696249 C80.9337547,143.775205 80.9337547,142.85416 80.9337547,141.933984 C80.9337547,136.015838 80.9075835,130.089871 80.925031,124.172593 L80.9337547,123.451398 Z" fill="#E7E3DB" id="Fill-98"/><path d="M45.9430936,125.006834 C47.0335584,125.067658 48.1152995,125.24144 49.1970407,125.380465 C48.411906,126.30151 47.635495,127.231244 46.8241892,128.13491 C45.0271031,129.055955 43.2125697,129.924865 41.4154836,130.84591 C41.3893125,129.924865 41.3195227,128.074086 41.2846278,127.153042 C42.8200023,126.39709 44.3641005,125.649827 45.9430936,125.006834" fill="#F5EDB6" id="Fill-100"/><path d="M46.1696486,128.865142 C47.085639,128.665293 47.9929058,128.490642 48.9088962,128.31686 C49.1095418,130.837568 49.0223046,133.382606 49.4148719,135.894625 C50.1214931,138.0669 51.5696304,139.890742 52.790951,141.803213 C52.3634888,142.540918 51.9621978,143.289049 51.5783541,144.052821 C50.095322,144.313494 48.6297372,144.669747 47.1728762,145.052937 C45.0268414,142.159466 45.2013158,138.292816 43.5961516,135.120426 C43.2297554,137.327457 42.8022932,139.534489 42.4446207,141.751079 C41.9909873,138.448351 41.5199065,135.129984 41.4850117,131.7925 C42.6888848,130.385735 44.6429978,129.8557 46.1696486,128.865142" fill="#F4ECB4" id="Fill-102"/><path d="M69.6104551,131.324245 C72.2624656,130.646495 74.9929895,129.925299 77.1215769,128.117966 C77.4618019,128.187479 78.1509757,128.335194 78.4912007,128.404707 C78.1509757,131.888167 80.6721304,135.208273 78.8837681,138.596153 C77.2262615,136.745375 75.1587402,135.355987 73.2395221,133.808458 C71.8611745,133.722436 70.4915507,133.644234 69.1219269,133.583411 C69.2440589,133.01775 69.488323,131.888167 69.6104551,131.324245" fill="#39331F" id="Fill-104"/><path d="M203.981632,128.873657 C205.15061,132.71424 206.27597,136.571332 207.357711,140.44754 C208.273702,143.966625 210.271433,147.21548 210.253986,150.943104 C210.184196,152.690483 211.013822,154.228453 211.902769,155.670844 C211.239766,160.580186 213.83071,165.124586 213.577723,169.999171 C213.516657,171.796946 213.307287,173.596459 213.211326,175.403792 C212.557047,174.291587 211.780637,173.257584 210.951883,172.275716 C210.000998,175.203943 210.629106,178.81774 208.230083,181.102973 C207.183237,179.626695 206.659814,177.176368 204.522503,176.959141 C201.425582,176.463862 198.538032,177.975766 196.461787,180.15673 C193.731263,183.067579 189.508983,183.197915 185.792679,183.561989 C188.723848,180.591185 191.157766,177.185058 193.425932,173.700728 C195.449835,174.335033 196.810735,172.536389 198.319939,171.563209 C199.811695,170.30329 201.765807,169.876655 203.432038,168.913034 C204.84528,166.688624 205.892126,164.203541 206.485339,161.640256 C206.005535,159.954571 205.211676,158.381844 204.827833,156.670091 C203.955461,156.87776 203.100536,157.087168 202.236888,157.295706 C201.853917,156.990719 201.076634,156.39204 200.69279,156.087921 C203.100536,147.233727 203.92929,138.023281 203.981632,128.873657" fill="#CCA847" id="Fill-106"/><path d="M37.5682364,132.67931 C38.8767942,132.079762 38.8942417,133.791515 37.829948,134.060877 C36.9052338,134.530088 35.7973216,135.494578 34.7068567,135.034056 C34.6632381,133.687246 36.5650088,133.174589 37.5682364,132.67931" fill="#C1A956" id="Fill-108"/><path d="M154.334862,137.449887 C155.625972,136.571419 157.021767,135.86847 158.391391,135.129897 C157.441378,145.930449 153.663136,157.434818 144.468336,164.011599 C137.9081,168.92181 129.298662,166.558374 121.734325,167.062342 C121.647088,166.740845 121.481337,166.089163 121.402824,165.767666 C124.028663,164.751041 126.680674,163.091423 129.620567,163.646657 C132.769829,164.064602 135.954859,164.177561 139.094525,163.708349 C137.882801,162.960218 136.616989,162.283337 135.509077,161.397048 C134.915864,160.353487 135.133957,159.024924 134.541617,157.990921 C133.407533,156.652799 132.080656,155.497149 130.850611,154.254608 C133.154545,152.316069 134.497998,149.579871 136.469558,147.354593 C139.923279,144.514126 144.808561,144.974648 148.690616,143.044799 C150.90644,141.532895 152.119037,138.960921 154.334862,137.449887" fill="#ECD592" id="Fill-110"/><path d="M52.7908638,141.802866 C53.6370645,140.343097 54.5705024,138.935462 55.5737301,137.579963 C55.2945711,140.325718 53.8464338,142.706532 52.3110593,144.922253 L51.5782669,144.053343 C51.9621105,143.288702 52.3634016,142.541439 52.7908638,141.802866" fill="#D7C27C" id="Fill-112"/><path d="M60.0228266,139.665434 C67.0454201,137.423646 74.2163169,139.847905 80.9335802,141.933289 C80.9335802,142.854334 80.9335802,143.774509 80.9248565,144.696423 C73.9982239,142.88909 66.5917867,142.653615 60.0228266,139.665434" fill="#242110" id="Fill-114"/><path d="M82.4864021,145.217422 C82.4689547,143.827165 82.521297,142.42822 82.8615221,141.08141 C85.5484274,144.305066 89.5787854,146.321806 93.7574467,146.712816 C100.038524,146.234046 106.049166,142.089345 112.478547,144.106086 C103.903131,150.883584 91.9952555,148.554036 82.4864021,145.217422" fill="#D6D6D5" id="Fill-116"/><path d="M61.6019069,146.868698 C61.9072371,147.155439 62.5266211,147.728919 62.8319512,148.01566 C63.1460051,152.246383 65.7107784,155.792405 67.6997862,159.407071 C69.3136742,162.396121 72.0441981,164.568396 74.8357881,166.419175 C76.8073485,166.966588 78.8835936,166.897075 80.91622,167.062168 C74.7398272,167.487065 68.5547107,166.688537 62.3957653,167.314152 C61.9421319,169.182309 61.6368018,171.076533 61.6542492,173.005513 C60.5463369,172.327763 59.4384247,171.650014 58.3217887,170.972264 C57.4406931,167.183816 56.1844776,163.47357 55.4778564,159.659054 C56.0972404,157.677071 57.0830206,155.83585 57.9030502,153.941626 C58.6794611,153.915559 59.4645958,153.889492 60.2410068,153.872113 C60.607403,151.526056 61.0697601,149.188688 61.6019069,146.868698" fill="#EED88B" id="Fill-118"/><path d="M62.8320385,148.01592 C66.0510907,150.222952 68.4152184,153.411852 71.6604418,155.584127 C72.5677085,156.392213 73.4051855,157.268944 74.2775574,158.111786 C76.1880517,159.62369 78.630693,160.111148 80.925031,160.762831 C80.925031,162.856035 80.9163073,164.959667 80.9163073,167.062429 C78.8836808,166.896467 76.8074358,166.966849 74.8358754,166.419436 C72.0442854,164.568657 69.3137614,162.396382 67.6998735,159.406462 C65.7108656,155.791796 63.1460923,152.246643 62.8320385,148.01592" fill="#DFC677" id="Fill-120"/><path d="M71.6606162,155.584127 C74.7749838,153.975774 77.6887058,151.994659 80.8903106,150.561827 C80.8815869,152.350913 80.8641394,154.133047 80.9426529,155.923002 C78.6221437,156.287944 75.9177909,156.088095 74.2777318,158.111786 C73.40536,157.268944 72.567883,156.392213 71.6606162,155.584127" fill="#927D49" id="Fill-122"/><path d="M74.2777318,158.11196 C75.9177909,156.088269 78.6221437,156.287249 80.9426529,155.922307 C80.9252055,157.52979 80.9252055,159.145963 80.9252055,160.763005 C78.6308674,160.111322 76.1882262,159.623864 74.2777318,158.11196" fill="#C4A859" id="Fill-124"/><path d="M200.693226,156.088182 C201.076198,156.3923 201.853481,156.990979 202.237324,157.295967 C203.100973,157.086559 203.955025,156.878021 204.827397,156.670351 C205.212113,158.382104 206.005971,159.953963 206.485775,161.640517 C205.892563,164.203802 204.845716,166.688016 203.432474,168.913294 C201.765371,169.876916 199.811258,170.302682 198.319502,171.56347 C196.811171,172.536649 195.449399,174.335293 193.426369,173.700989 C196.662868,168.208608 199.026996,162.230507 200.693226,156.088182" fill="#C0993A" id="Fill-126"/><path d="M50.1303041,163.11749 C50.7758593,164.19407 51.4737568,165.236762 52.1193119,166.3229 C53.9600166,173.431453 56.489895,180.877143 61.697955,186.256566 C61.7590211,190.123215 61.5583755,193.988996 61.7764685,197.855646 C61.7851922,199.246771 62.474366,201.149684 64.1929386,201.00979 C69.078221,201.219197 73.9809509,201.028037 78.8749571,201.044546 C76.9731864,203.547007 78.3602577,206.51868 78.4126,209.30875 C78.4649423,212.592361 80.2009623,215.504079 80.706938,218.692979 C79.3285905,222.168619 77.0255287,225.166359 75.2022715,228.407393 C73.3790143,228.675887 71.4685199,227.95556 69.7150525,228.458659 C68.67693,229.88454 68.1011645,231.900412 66.1208804,232.282732 C56.769054,226.494922 47.9668219,219.74436 40.4208052,211.723451 C43.7619895,204.972889 46.5884743,197.647108 45.9429191,189.975501 C45.4369434,186.812668 47.8446898,184.292829 48.3419418,181.311598 C48.2634283,179.557269 46.9374231,178.175702 46.1435647,176.680308 C48.9787732,172.727636 50.0168957,167.905185 50.1303041,163.11749" fill="#E5CB7A" id="Fill-128"/><path d="M52.1191375,166.323334 C54.6315684,167.749216 55.7133096,170.624439 57.6150802,172.683756 C57.7895546,172.25799 58.1472271,171.397769 58.3217014,170.972872 C59.4383374,171.649753 60.5462497,172.327503 61.654162,173.005253 C61.7675703,177.420185 61.7413992,181.842068 61.6977806,186.256131 C56.4897205,180.877578 53.9598421,173.431887 52.1191375,166.323334" fill="#D2B159" id="Fill-130"/><path d="M210.952145,172.275889 C211.780898,173.257758 212.557309,174.290892 213.211588,175.403966 C213.656498,180.565292 214.816752,185.656236 214.869095,190.861876 C214.99995,197.882669 215.104635,204.903463 215.436136,211.915567 C207.593513,220.178902 198.502526,227.312654 188.58453,232.925813 C184.824608,230.24088 180.497643,232.317576 177.069222,234.455094 C177.706053,233.203864 178.656066,232.18637 179.721232,231.292262 C181.823648,229.544883 182.643678,226.730484 184.842055,225.070866 C187.110222,223.037616 190.146076,221.881966 191.934438,219.344748 C193.740248,215.459851 197.683369,213.349269 200.05622,209.881449 C202.272045,206.710796 205.917687,203.791258 205.578334,199.550977 C205.421307,195.909375 206.162823,192.339023 206.590286,188.750424 C206.712418,186.134136 207.113709,183.49265 208.230345,181.103147 C210.629367,178.817913 210.00126,175.204116 210.952145,172.275889" fill="#BA9040" id="Fill-132"/><path d="M196.461699,180.156296 C198.537944,177.975331 201.425495,176.463428 204.522415,176.958706 C206.659726,177.175934 207.18315,179.627129 208.229996,181.103408 C207.11336,183.49291 206.712069,186.134397 206.589937,188.750685 C206.162474,192.339284 205.421831,195.909635 205.577985,199.550368 C205.91821,203.79065 202.271696,206.711056 200.055871,209.881709 C197.68302,213.34866 193.739899,215.460112 191.934962,219.345009 C190.66915,219.352829 189.404211,219.370207 188.139272,219.387585 C191.323429,214.539067 193.321161,209.073623 195.851039,203.894919 C196.436401,203.043387 196.183413,202.105833 195.885934,201.218676 C195.283997,199.725019 196.043833,198.17749 195.96532,196.648209 C195.702736,195.075482 195.039733,193.607024 194.517182,192.113367 C191.821553,191.617219 189.107604,190.93078 186.350909,191.087184 C182.922488,191.70411 180.550509,194.562825 177.462312,195.919193 C175.987132,196.54394 174.320901,196.700343 172.951277,197.569253 C170.21203,199.889243 169.557751,203.938364 166.38319,205.867345 C163.28627,207.970976 160.554873,210.533392 157.650747,212.879449 C155.940026,214.469554 153.445043,213.287837 151.386245,213.627581 C149.571711,214.547756 148.298049,216.234311 146.579476,217.302201 C144.3558,218.049464 141.720365,217.736656 139.870936,219.387585 C136.85253,221.994316 132.412157,221.247053 129.219276,223.567043 C125.607656,225.400443 123.985045,229.458253 120.530452,231.482814 C117.930784,233.030342 115.88071,235.279951 113.813189,237.452226 C113.254871,236.765787 112.696553,236.088037 112.146958,235.410287 C109.268131,237.069905 106.921451,239.729639 103.554095,240.432587 C102.350222,239.007575 101.181244,237.269755 99.104999,237.182864 C99.445224,236.487736 99.7767253,235.792608 100.090779,235.089659 C99.3754343,234.167746 98.5641284,233.25539 97.2642943,233.44655 C94.1063082,233.065099 90.9308746,233.733291 87.7728884,233.499554 C85.6268536,232.360413 83.8035964,230.631282 82.5124861,228.580654 C84.9376799,225.704562 86.0630396,222.063828 88.0878147,218.95313 C89.2908155,217.284823 91.2362047,218.615124 92.7541318,218.987887 C93.3822395,217.545496 94.019071,216.111794 94.6471787,214.678093 C95.5021032,214.783231 96.3570276,214.8875 97.211952,215.000458 C99.2707496,213.131433 100.474623,210.628972 101.268481,208.014421 C102.646829,207.605165 104.025176,207.196777 105.3948,206.780569 C105.377353,204.504025 106.424199,202.548977 108.072982,201.028384 C119.58829,201.123096 131.103599,201.036205 142.618908,201.070961 C155.852789,201.36639 169.139885,197.065286 179.678137,189.088691 C181.893089,187.44732 183.890821,185.543538 185.793464,183.562423 C189.508896,183.197481 193.731175,183.068013 196.461699,180.156296" fill="#D8C173" id="Fill-134"/><path d="M177.462051,195.918846 C180.550247,194.562477 182.923099,191.703763 186.350648,191.086837 C189.108215,190.931302 191.821292,191.617741 194.516921,192.11302 C195.039471,193.607545 195.702474,195.075134 195.965058,196.64873 C196.043571,198.178012 195.284608,199.724672 195.885672,201.219197 C196.183151,202.105485 196.436139,203.043039 195.850777,203.89544 C193.321771,209.074144 191.32404,214.539589 188.13901,219.388107 C189.403949,219.36986 190.669761,219.35335 191.9347,219.344661 C190.146338,221.881879 187.110484,223.037529 184.842317,225.070779 C182.643067,226.730397 181.82391,229.544797 179.721494,231.292175 C178.656328,232.186283 177.705442,233.203777 177.069483,234.455007 C172.559321,237.4345 167.229129,238.790869 162.42236,241.196881 C162.387465,240.311461 162.35257,239.424304 162.325526,238.547574 C158.854359,239.320035 155.364871,239.989965 151.953897,240.971833 C149.021855,241.77123 147.225642,244.438784 144.633825,245.828171 C142.567176,246.584992 140.176877,246.767463 138.641503,248.54004 C122.790506,249.843405 106.694373,248.26112 91.4802071,243.61332 C93.1822047,243.074595 94.8824574,242.500246 96.5582838,241.858121 C96.7851005,240.006474 97.8049032,238.477192 99.1056096,237.182516 C101.181855,237.270276 102.349961,239.008096 103.554706,240.43224 C106.922062,239.729292 109.268742,237.069558 112.146697,235.40994 C112.697163,236.087689 113.254609,236.766308 113.813799,237.452747 C115.881321,235.280472 117.931395,233.029995 120.531063,231.483335 C123.985655,229.458774 125.608267,225.400964 129.219014,223.566695 C132.411895,221.246705 136.852268,221.994837 139.870675,219.388107 C141.720103,217.736309 144.355538,218.049985 146.580087,217.301854 C148.297787,216.233963 149.57145,214.547409 151.385983,213.627233 C153.445653,213.287489 155.939764,214.470076 157.650486,212.87997 C160.554612,210.533044 163.286008,207.970628 166.382928,205.866997 C169.557489,203.938017 170.211768,199.888896 172.951016,197.568906 C174.32064,196.699996 175.987742,196.544461 177.462051,195.918846" fill="#E0CD81" id="Fill-136"/><path d="M78.8751316,201.044894 C79.948149,201.044894 81.0211664,201.054452 82.0941838,201.063141 C84.5804436,203.973121 87.790772,207.205466 91.8909198,207.205466 C95.1274194,206.884838 93.5222552,203.060765 93.094793,201.044894 C98.0847601,201.036205 103.083451,201.044894 108.073418,201.027516 C106.424635,202.548108 105.377789,204.503156 105.395236,206.780569 C104.025612,207.196777 102.647265,207.605165 101.268917,208.014421 C100.475059,210.628972 99.2711858,213.131433 97.2123882,215.000458 C96.3574638,214.8875 95.5025393,214.783231 94.6476149,214.678093 C94.0195072,216.111794 93.3826757,217.545496 92.754568,218.987887 C91.2366409,218.615124 89.2912517,217.284823 88.0873785,218.95313 C86.0634758,222.063828 84.938116,225.704562 82.5129223,228.580654 C82.0767363,227.703924 81.6492741,226.825456 81.2392593,225.939167 C79.2415278,226.808077 77.2437962,227.659609 75.202446,228.406872 C77.0257032,225.166706 79.3287649,222.168967 80.7071125,218.693326 C80.2011368,215.504426 78.4651168,212.592709 78.4127745,209.309097 C78.3604322,206.519027 76.9733609,203.547355 78.8751316,201.044894" fill="#C2A44D" id="Fill-138"/><path d="M82.0940965,201.062706 C85.7580584,201.044459 89.4307439,201.044459 93.0947058,201.044459 C93.522168,203.0612 95.1273322,206.884404 91.8908326,207.205032 C87.7906848,207.205032 84.5803563,203.973555 82.0940965,201.062706" fill="#D2B159" id="Fill-140"/><path d="M75.202446,228.407133 C77.2437962,227.65987 79.2415278,226.808338 81.2392593,225.939428 C81.6492741,226.825716 82.0767363,227.703315 82.5129223,228.580915 C83.8040326,230.631542 85.6272898,232.360673 87.7733246,233.498946 C90.9313108,233.733551 94.1067444,233.064491 97.2647305,233.446811 C98.5645646,233.255651 99.3758704,234.168006 100.091215,235.089051 C99.7771615,235.792868 99.4456602,236.487996 99.1054352,237.183124 C97.8056011,238.4778 96.784926,240.007082 96.5581093,241.857861 C94.8831553,242.500854 93.1820302,243.074335 91.480905,243.613059 C82.6612255,240.70221 74.1730472,236.897253 66.1210549,232.282472 C68.101339,231.90102 68.6771044,229.88428 69.715227,228.459267 C71.4686944,227.955299 73.3791888,228.676495 75.202446,228.407133" fill="#CEB052" id="Fill-142"/><path d="M177.069309,234.45466 C180.49773,232.317141 184.824695,230.240446 188.584618,232.925378 C173.396623,241.727437 156.192578,247.30584 138.641328,248.539692 C140.176703,246.767116 142.567002,246.584644 144.633651,245.828693 C147.225467,244.438437 149.022553,241.770883 151.953723,240.971485 C155.364697,239.989617 158.854184,239.320556 162.326224,238.547226 C162.352395,239.424825 162.38729,240.311114 162.422185,241.197402 C167.228954,238.790521 172.559146,237.435021 177.069309,234.45466" fill="#D2BA6B" id="Fill-144"/><path d="M147.12213,201.309557 L81.2218119,201.309557 L61.9039064,201.309557 L61.9039064,167.253645 L81.2218119,167.253645 L81.2218119,91.929141 L61.797907,91.929141 L61.797907,57.8975687 L81.2218119,57.8975687 L147.12213,57.8975687 C161.470918,57.8975687 203.858212,73.6310145 203.858212,129.603563 C203.858212,185.576111 168.636991,201.309557 147.12213,201.309557 Z M122.035168,91.8416635 L122.035168,167.161355 C128.099341,167.161355 133.519156,167.161355 138.294613,167.161355 C145.4578,167.161355 158.853771,153.946503 158.853771,129.603563 C158.853771,105.260623 146.22809,91.8416635 138.294613,91.8416635 C133.005629,91.8416635 127.585814,91.8416635 122.035168,91.8416635 Z" fill="#FFFFFF" fill-opacity="0.600000024" id="D" opacity="0.799999952"/></g></g></g></svg>