<svg xmlns="http://www.w3.org/2000/svg" width="158" height="158" fill="none" viewBox="0 0 158 158"><mask id="mask0_104_21" style="mask-type:alpha" width="158" height="158" x="0" y="0" maskUnits="userSpaceOnUse"><circle cx="79" cy="79" r="79" fill="#000"/></mask><g mask="url(#mask0_104_21)"><circle cx="79" cy="79" r="79" fill="#0F4C5C"/><path fill="#FFD8B3" d="M59.7192 120.926L56.9687 115.72L58.5685 109.209L69.9774 104.802L65.1219 94.8389L67.5216 84.7772L72.0262 75.768L85.947 73.5788L96.1771 63.8258L118.265 65.4958L122.601 89.1134L114.252 118.85L109.495 134.244L90.2131 134.974L81.26 128.771L70.7773 124.393L59.7192 120.926Z"/><path fill="#FFD8B3" d="M93.5391 120.758C93.5391 120.758 90.8728 121.979 86.3261 121.698C85.007 119.93 75.7873 119.102 75.7873 119.102C75.7873 119.102 74.6365 118.751 72.6017 119.593C70.5529 120.421 68.6164 120.323 66.8061 120.772C64.9958 121.221 63.1996 118.864 61.8103 118.372C60.421 117.853 58.5827 116.604 58.5827 116.604L54.6955 116.225L46.8931 112.928L34.5019 100.578L31.134 105.855L30.0955 112.38L33.8424 120.113L43.9321 129.304L63.6065 134.3L75.268 130.862L89.8765 124.687L93.5391 120.758Z"/><path fill="#FFD8B3" d="M23.6407 77.1151L26.1386 69.5513L29.1136 64.6678L38.6982 63.8679L35.8214 72.2597L27.8085 86.5173L31.1344 99.2453L25.2405 102.192L23.4302 99.4137L21.9708 93.0427L21.8725 85.8858L23.6407 77.1151Z"/><path fill="#FFD8B3" d="M34.3899 120.239L32.5515 117.671C32.5515 117.671 32.0604 116.45 32.341 115.383C32.6217 114.303 32.5796 114.233 32.4393 113.826C32.2989 113.419 31.1201 112.016 31.1903 110.809C31.2605 109.588 31.0921 109.181 31.9902 108.213C32.9304 107.272 32.6497 105.644 32.6497 105.644L33.8706 106.402L34.1513 105.981C34.1513 105.981 34.6004 106.332 34.6004 106.879C34.6986 106.122 34.2916 102.613 35.2178 101.813C36.158 101.014 37.7859 105.56 37.7859 105.56L36.7755 98.9647L34.1794 92.2008L29.5625 86.0262L29.2818 79.2202V78.6308C29.2818 78.6308 27.1628 81.8865 26.5734 84.4545C26.1524 86.2227 27.1628 88.3697 26.9523 90.9097C26.7839 93.4357 26.5734 93.2392 27.1909 94.2356C27.8083 95.2319 29.3099 97.2948 28.7205 98.7823C28.2013 100.059 26.4331 99.1612 26.4331 99.1612C26.4331 99.1612 26.0823 100.2 25.6051 100.579C25.4367 99.9611 25.2543 99.5681 24.9175 99.1893C24.8895 99.4278 24.8193 99.7506 24.8193 99.7506C24.8193 99.7506 24.5106 98.7823 24.2018 97.5614C23.7808 95.9336 23.3318 93.7865 22.9248 92.6358C22.7564 93.2954 22.3354 95.3021 22.3354 95.3021L22.574 98.3894L23.7247 102.627L24.8333 105.406L25.9139 108.802L26.8541 111.089L27.6119 112.829L28.2714 116.745L31.4569 120.113L33.1549 120.87L34.3899 120.239Z"/><path fill="#FFD8B3" d="M25.3105 70.9405C25.3105 70.9405 23.0231 74.8277 22.3636 78.743C21.704 82.6582 21.1146 86.7979 21.5356 92.1305C21.9566 97.5052 22.7565 100.803 23.402 103.161C24.5106 107.076 27.3874 112.521 27.3874 112.521L27.4856 112.31C27.4856 112.31 26.7278 110.921 26.3349 109.433C25.956 107.946 25.8157 106.178 25.4649 105.378C25.1561 104.578 24.6369 103.89 24.3843 102.908C24.1458 101.968 24.1037 100.48 23.3739 99.3716C23.0652 98.9225 22.6863 97.7438 22.574 96.565C22.4337 94.7968 22.6442 92.8181 22.4758 91.1903C22.1671 88.4819 21.9566 86.6436 22.2373 85.2262C22.5179 83.8089 23.9774 79.7814 24.8755 76.5818C25.4649 74.533 25.114 72.8069 26.1946 71.0247C27.2751 69.2566 27.9347 67.6989 28.1733 66.6184C28.4539 65.636 25.3105 70.9405 25.3105 70.9405Z"/><path fill="#FFD8B3" d="M36.1577 69.383C36.1577 69.383 34.9789 69.7338 34.4176 70.3513C33.8563 70.9406 33.6177 71.4318 32.8599 72.4282C32.1021 73.4385 32.06 74.2384 31.4426 75.4874C30.8251 76.7082 29.4639 78.5466 29.2955 79.2061C29.1271 79.8657 28.8464 82.953 28.4956 84.4124C28.1869 85.8718 28.8464 87.6681 28.8464 87.6681L29.6463 87.4997C29.6463 87.4997 29.6463 88.5381 30.4462 89.2398C31.2461 89.9274 31.3864 86.9103 31.3864 86.9103L34.3755 76.8205L38.8801 73.7613L39.3713 71.2915L36.1577 69.383Z"/><path fill="#FFD8B3" d="M38.3468 73.9578C38.3468 73.9578 36.2278 74.0981 35.1894 74.8559C34.7684 75.1647 34.6 75.4173 34.1509 75.7962C33.323 76.4838 32.481 77.1153 32.074 78.0134C31.625 78.9115 31.1338 80.2727 30.797 82.8408C30.6567 83.9213 30.6567 84.9177 30.5584 85.7877C30.4181 86.9665 30.2076 87.9067 30.3199 88.5663C30.4602 89.9134 31.8495 90.6151 31.9898 92.1447L34.8666 90.6853L37.575 80.0061L43.3285 76.3996L40.0729 72.751L38.3468 73.9578Z"/><path fill="#FFD8B3" d="M38.7961 169.285L25.9558 169.593L19.1497 169.074C19.1497 169.074 19.5707 164.078 19.6689 162.899C19.9075 162.17 20.7074 160.093 20.946 159.714C21.1144 159.153 21.3249 157.735 20.8477 155.995C21.1565 155.504 22.1247 155.237 23.2053 145.555C23.6263 141.948 23.6964 139.212 24.0052 137.5C24.4542 135.072 24.763 134.174 24.6928 133.262C24.5946 131.802 24.4823 130.736 24.6226 129.613C24.8331 128.126 26.2926 126.357 26.2505 125.136C26.2224 124.168 25.7312 123.537 25.3102 122.947C24.8893 122.358 24.5525 121.867 24.5525 121.867C24.5525 121.867 27.4292 119.888 27.4012 111.917C27.4994 111.945 27.5696 111.987 27.5696 111.987L28.9869 116.015L29.9552 117.194L33.674 124.126L38.4593 128.771L45.5319 133.528L49.9664 138.356L50.4154 151.224L44.6198 158.746L38.7961 169.285Z"/><path fill="#FFD8B3" d="M40.8731 158.184C40.8731 158.184 40.9713 156.584 42.2904 155.546C42.5009 155.897 42.6413 156.234 42.5992 156.486C42.8377 156.065 44.5077 153.371 48.2826 152.669C52.0575 151.982 52.9696 149.231 52.9696 149.231L60.9825 141.948L70.1461 133.514L81.2884 129.599L86.4947 128.322C86.4947 128.322 86.5929 128.701 86.3964 129.543C87.3647 129.473 89.5118 128.981 91.743 128.196C92.6412 127.845 93.4831 127.704 93.9322 128.167C94.5918 128.785 94.69 130.244 94.7321 131.114C95.8126 130.876 97.0616 129.837 98.0579 129.936C99.6577 130.104 101.075 131.984 102.703 131.984C104.85 131.984 105.818 130.665 107.32 129.627C108.218 129.009 109.509 128.238 110.239 127.718C111.979 126.441 130.39 120.814 130.39 120.814L136.845 121.235L137.884 128.167L137.323 146.382L107.769 161.819L61.179 168.962L42.2062 164.106L40.8731 158.184Z"/><path fill="#FFD8B3" d="M21.1707 169.327C21.1707 169.327 22.8687 165.482 23.6686 159.924C24.3281 155.378 23.7387 154.339 23.9071 152.88C24.1457 150.691 26.6155 146.425 26.826 145.597C26.9944 147.295 27.4856 153.708 29.2537 155.139C28.8748 155.7 28.2433 157.637 30.5027 159.125C30.1238 159.924 29.352 160.893 29.8431 162.352C30.3343 163.812 30.9237 165.888 30.643 168.176C29.8431 168.344 28.9731 168.695 28.2854 169.355C27.5978 169.972 21.1707 169.327 21.1707 169.327Z"/><path fill="#FFD8B3" d="M50.2754 166.646L60.6178 163.769L61.0669 163.91C61.0669 163.91 61.3054 164.05 61.3054 164.527C61.965 164.148 62.5263 164.218 62.9333 163.966C63.1438 164.415 63.3543 165.902 64.2804 166.085C65.2487 166.295 66.2872 165.664 67.3397 164.864C68.3781 164.036 69.5569 162.998 70.455 162.577C70.6234 162.857 71.0444 163.727 71.3251 164.443C72.5038 163.503 74.5527 159.686 77.4715 159.756C77.7522 159.096 78.7906 156.697 81.5271 154.858C84.2355 153.02 85.9335 152.88 88.0525 153.048C88.8804 151.968 89.961 150.999 91.1117 150.312C91.4625 150.452 92.4308 151.041 93.6377 150.48C94.8585 149.919 96.2338 147.744 98.044 147.463C99.6438 147.224 100.851 148.052 100.851 148.052C100.851 148.052 106.127 142.818 109.762 141.078C109.621 140.657 109.341 139.071 113.607 135.563C113.845 135.773 113.677 136.363 113.845 136.391C113.915 136.391 114.954 135.942 116.273 134.931C117.901 133.711 119.851 132.434 121.03 132.083C123.247 131.423 125.605 132.77 125.605 132.77C125.605 132.77 125.886 132.56 126.265 132.462C126.826 132.363 127.233 132.293 127.542 132.181C127.514 132.911 127.92 134.16 127.542 135.24C127.542 135.24 128.131 135.591 128.931 135.83C128.692 136.349 128.173 137.668 127.303 138.299C128.033 138.65 128.131 139.057 129.169 139.408C128.748 139.997 128.061 141.008 127.752 141.625C127.443 142.285 126.335 145.021 125.844 146.06C125.324 147.098 124.623 149.007 124.286 149.386C123.935 149.764 122.728 151.392 121.788 152.192C122.616 151.883 126.026 150.845 127.471 150.452C126.601 151.729 118.56 163.671 118.56 163.671L102.366 168.499L94.4235 169.846L53.0399 169.818L49.3913 168.007L50.2754 166.646Z"/><path fill="#FFD8B3" d="M38.6979 73.5787C38.6979 73.5787 37.477 73.5787 37.2385 73.7471C36.9999 73.9155 38.4594 74.2664 38.9084 74.4348C39.3575 74.6032 40.3258 75.375 40.5784 75.9924C40.8169 76.5818 49.349 80.0199 49.349 80.0199L55.3833 79.7112L57.4602 76.8344L53.5028 73.3682L56.2814 65.1869L52.6047 65.7763L43.7639 71.0528L39.3294 72.7508L38.6979 73.5787Z"/><path fill="#FFD8B3" d="M51.9449 76.2872C51.9449 76.2872 52.1834 76.7362 52.7728 76.7362C54.0218 76.7362 55.1725 77.045 55.6496 77.6765C56.4495 78.6868 58.6667 81.9145 58.6667 81.9145L63.9712 83.8229L64.3221 77.5782L58.5264 73.5507L51.9309 75.9785V76.2872H51.9449Z"/><path fill="#FFD8B3" d="M50.9064 78.6027C50.9064 78.6027 51.8747 78.6728 53.0955 78.2238C54.3164 77.7747 56.3231 76.8064 57.1932 77.1853C58.4141 77.7046 58.1615 79.3324 59.4806 80.7918C60.2805 81.69 61.7399 81.6619 62.5679 82.6302C63.3958 83.5985 66.2445 83.1494 66.2445 83.1494L67.3251 88.9731L62.9889 94.5302L61.5715 101.435H55.7057L50.345 99.3155L47.7068 92.9305L49.0259 86.4752L50.9064 78.6027Z"/><path fill="#FFD8B3" d="M62.245 78.8833C62.245 78.8833 62.4555 78.9535 62.6941 78.9535C62.5257 79.0938 62.1749 79.4025 62.3152 80.2024C62.4555 81.0023 62.9046 82.0127 62.5257 82.6301C62.6941 82.8406 62.9467 83.0792 63.1852 83.7809C63.4238 84.4685 63.494 85.1 65.0516 85.1982C64.7008 85.4087 64.4342 85.6894 64.4342 85.6894C64.4342 85.6894 65.5147 86.6296 66.062 87.4996C66.6234 87.4716 68.1109 87.0085 68.1109 87.0085L68.4196 87.219L69.0791 86.9383C69.0791 86.9383 68.4617 86.6997 68.9107 85.1982C69.3317 83.8791 69.7106 83.9493 69.7387 83.851C69.7668 83.7528 70.0474 82.3635 70.0474 81.8022C70.2579 81.0725 70.4263 78.8552 70.4263 78.8552L69.9773 73.9577L67.4513 72.4281L65.4025 70.4494L63.4659 74.098L62.1889 75.375L62.0907 78.5325L62.245 78.8833Z"/><path fill="#FFD8B3" d="M68.3217 74.7857C68.3217 74.7857 68.7708 76.0627 68.9392 77.0451C69.0374 76.7363 69.0374 76.4557 69.0374 76.4557C69.0374 76.4557 69.3882 78.3922 69.4584 79.1921C69.5987 79.164 69.739 79.122 69.7671 79.2623C69.7952 79.4026 70.1179 80.9603 70.0478 81.8303C70.2162 81.5216 71.0161 80.3007 72.4053 79.4728C72.9667 79.122 73.6262 78.7431 74.3138 78.715C75.3944 78.6869 76.1802 79.4026 77.4713 79.4026C80.5866 79.4026 83.4073 77.1152 85.4842 76.4136C87.0138 75.8943 88.3329 75.5155 89.2591 74.6735C89.7081 74.2946 90.508 73.4526 91.2377 72.2036C92.206 70.5337 93.2164 69.0883 94.2268 68.9059C93.4269 69.0462 92.8375 69.0041 92.8375 69.0041C92.8375 69.0041 93.1462 68.6954 93.6655 68.2744C94.1847 67.8534 94.8162 67.3342 95.7143 67.3342C97.3141 67.3342 98.114 67.5727 99.0121 67.5727C99.9102 67.5447 100.429 67.3342 100.429 67.3342C100.429 67.3342 101.37 67.9937 103.489 67.9937C105.608 68.0218 107.025 68.2042 108.134 68.3024C109.242 68.4007 112.961 67.9937 114.027 68.0218C115.136 68.0498 116.034 68.5129 116.034 68.5129L112.596 58.5214L100.247 47.7299L92.8936 52.9362L81.583 64.2469L70.6372 68.3024L68.3498 70.8705V74.7857H68.3217Z"/><path fill="#FFD8B3" d="M92.8793 69.0601C92.8793 69.0601 93.1881 68.7513 93.7073 68.3303C94.2265 67.9094 94.858 67.3901 95.7561 67.3901C97.3559 67.3901 98.1558 67.6287 99.0539 67.6287C99.952 67.6006 100.471 67.3901 100.471 67.3901C100.471 67.3901 101.411 68.0497 103.53 68.0497C105.649 68.0778 107.067 68.2602 108.175 68.3584C109.284 68.4566 113.003 68.0497 114.069 68.0778C115.178 68.1058 116.076 68.5689 116.076 68.5689L114.518 64.0643L112.708 60.6262L107.544 54.9708C107.544 54.9708 101.341 51.3222 101.299 51.2942C101.271 51.2661 99.1521 50.7048 99.1521 50.7048L93.5389 54.1008L88.4449 67.2779L88.3467 70.0564L91.6444 71.6141C92.4724 70.2248 93.3845 69.1162 94.2406 68.9759C93.4687 69.0601 92.8793 69.0601 92.8793 69.0601Z"/><path fill="#FFD8B3" d="M92.8095 70.0004C92.3183 70.0285 91.9114 69.9303 91.7991 69.5795C91.3781 68.4007 91.0413 68.2323 90.6905 68.2323C90.3397 68.2323 89.8625 68.9901 89.5819 69.0602C89.3012 69.1304 88.9644 68.1902 88.9644 68.1902L88.6557 68.0498C88.6557 68.0498 86.8454 69.2286 85.5684 70.6179C84.2914 72.0072 82.2005 74.3647 81.2603 74.7857C80.32 75.2067 77.0924 75.3471 75.9838 75.5856C74.8752 75.8242 73.6543 76.6241 73.4859 76.8065C73.3175 76.9889 73.9771 77.1854 74.0753 77.3678C74.1735 77.5362 72.9948 77.466 72.8965 77.6485C72.8264 77.7888 73.1772 78.5887 73.3456 78.9957C73.6543 78.8553 73.9631 78.7571 74.3139 78.7571C75.3944 78.729 76.1803 79.4447 77.4713 79.4447C80.5867 79.4447 83.4073 77.1573 85.4842 76.4557C87.0138 75.9364 88.3329 75.5576 89.2591 74.7156C89.7082 74.3367 90.5081 73.4947 91.2378 72.2457C91.771 71.3897 92.2903 70.5898 92.8095 70.0004Z"/><path fill="#FFD8B3" d="M48.1282 139.45C48.1282 139.45 47.8476 138.412 45.2795 135.731C44.5498 134.974 44.1007 134.342 43.6096 133.893C42.3887 132.742 41.673 132.434 40.8029 131.774C38.8944 130.357 36.8176 130.357 35.2178 128.617C33.618 126.877 31.7516 123.551 30.4606 120.155C29.1836 116.759 28.8327 115.678 28.8327 115.58C28.8327 115.482 29.1835 114.822 29.6326 114.92C30.0817 115.019 30.0817 115.889 30.1939 116.099C30.222 116.169 30.5448 116.618 30.9517 117.067C31.6113 117.825 32.5515 118.737 33.0286 120.085C32.9304 118.934 32.5375 117.657 32.5375 117.657C32.5375 117.657 35.0073 119.214 37.1122 120.842C39.2312 122.47 40.1013 123.031 40.7187 124.07C41.3362 125.108 42.7956 127.845 43.4973 128.645C44.199 129.445 53.7695 132.462 53.7695 132.462L58.3162 135.858L60.5756 140.811L58.8074 143.59L55.4114 144.32L49.8964 141.85L48.1282 139.45Z"/><path fill="#FFD8B3" d="M35.8771 122.386C35.8771 122.386 37.0278 124.224 39.8344 125.964C42.3604 127.494 46.3598 128.883 49.9242 129.711C51.973 130.202 54.0219 130.581 55.8602 130.609C60.8139 130.679 64.2239 129.262 68.4479 128.799C70.7353 128.56 73.5419 128.378 76.4608 127.69C80.2076 126.792 82.4248 125.782 85.442 124.365C87.6311 123.354 89.6379 122.596 91.2657 121.628C93.5531 120.281 95.223 118.779 97.1596 118.33C96.921 118.99 96.6684 120.169 94.7599 121.39C95.7703 121.361 97.1596 121.291 97.1596 121.291C97.1596 121.291 95.8124 122.091 93.4408 123.887C91.9814 124.996 90.0448 126.876 88.0661 128.125C86.7891 128.925 85.3999 129.515 84.4877 129.992C82.2705 131.213 81.3724 131.83 79.9129 133.318C80.4321 133.29 80.4742 133.318 80.4742 133.318C80.4742 133.318 78.6359 133.556 77.3168 134.258C77.0361 134.258 76.559 134.16 75.717 134.398C75.0575 134.609 74.1874 135.086 73.2893 135.338C72.0123 135.717 71.5913 135.549 71.5913 135.549L71.8018 135.97C71.8018 135.97 70.1319 135.942 69.5846 135.998C69.6828 136.026 69.6547 136.068 69.6547 136.068C69.6547 136.068 69.5846 136.068 69.3741 136.166C69.2057 136.265 68.925 136.447 68.504 136.545C68.3356 136.573 68.1953 136.573 67.9848 136.615C68.055 136.784 68.6023 137.724 68.8548 138.285C68.6444 138.426 65.4869 140.811 65.4869 140.811C65.4869 140.811 65.6272 141.022 65.7255 141.302C65.8237 141.611 65.8658 142.06 65.964 142.271C66.2026 142.692 66.3429 142.762 66.3429 142.762C66.3429 142.762 65.964 142.832 65.3045 143C64.7432 143.141 64.0555 143.379 63.0872 143.52C62.8066 143.548 62.4979 143.59 62.1891 143.59C62.3295 143.899 62.9469 145.077 61.8102 146.439C60.6595 147.786 60.3227 147.996 59.9719 148.866C59.8737 148.796 59.6912 148.656 59.4106 148.515C59.0317 148.347 58.5125 148.094 58.33 147.758C58.302 147.898 58.1616 148.445 57.909 149.077C57.5582 150.017 57.039 150.943 56.9408 151.645C56.5619 151.224 55.8602 150.396 54.8919 150.564C53.9236 150.733 53.1518 152.052 52.9834 152.431C52.9834 152.192 52.815 152.01 52.7729 152.29C52.7449 152.599 52.2116 155.827 49.2366 158.437C49.2085 157.777 49.2085 156.318 49.1384 155.841C48.8577 156.121 48.5209 156.528 46.5001 157.398C44.5215 158.268 44.8302 159.139 44.8302 159.139C44.8302 159.139 44.6618 157.749 45.7283 156.29C46.8089 154.83 47.4684 154.143 47.4684 154.03C47.4684 154.002 47.4404 153.862 47.3281 153.722C47.1878 153.581 46.9071 153.413 46.9071 153.301C47.0755 153.231 48.7454 152.431 48.6472 150.775C48.549 149.287 47.9175 148.515 47.4684 147.968C47.3983 147.898 48.128 147.379 48.0297 147.21C47.9596 147.112 47.0615 146.453 46.9492 146.102C46.9773 145.933 47.0194 145.653 47.0895 145.484C47.1878 145.176 47.2579 144.965 47.2299 144.755C47.1597 144.404 46.7808 143.436 46.6685 143.337C46.7668 143.365 47.4684 143.337 47.4684 143.337C47.4684 143.337 46.9071 142.439 46.8089 142.018C46.7106 141.597 46.5001 140.489 46.3879 140.278C46.6264 140.306 47.2158 140.348 47.2158 140.278C47.2439 140.068 46.6966 139.717 46.9352 139.45C47.1036 139.478 47.4263 139.619 47.7351 140.011C47.5667 139.562 47.286 138.692 46.6966 138.341C46.9773 138.243 47.9175 137.991 48.7454 138.482C49.5734 138.973 49.854 139.661 49.854 139.661C49.854 139.661 50.3452 140.04 51.103 140.601C51.973 141.288 53.0817 142.271 54.8498 142.958C55.2287 143.169 56.197 143.169 56.8987 143.029C57.3197 142.93 57.5582 142.79 57.7687 142.678C57.9371 142.579 58.0774 142.537 58.0774 142.537C58.0774 142.537 57.7968 141.976 57.5582 141.667C57.7968 141.667 58.0774 141.695 58.0774 141.695C58.0774 141.695 58.2458 141.317 57.488 140.587C57.6564 140.418 57.8669 140.306 57.8669 140.025C57.6284 139.997 57.2074 139.647 57.1092 139.506C57.2495 139.408 57.46 139.085 57.6985 138.987C57.488 138.819 56.9688 138.117 56.7303 138.047C56.9688 137.977 57.3898 137.738 57.3898 137.738C57.3898 137.738 56.211 137.429 55.8321 137.177C55.4532 136.896 54.8919 136.419 54.5551 136.279C54.2043 136.138 53.5869 136.068 53.3343 135.787C53.5728 135.858 53.9517 135.787 54.2324 135.787C54.4429 135.787 54.5411 135.816 54.6113 135.816C54.5832 135.717 54.5832 135.507 55.1305 135.437C55.6497 135.338 55.8883 135.198 55.8883 135.198C55.8883 135.198 55.3691 135.17 54.7797 134.609C54.1903 134.047 53.6991 133.598 53.3623 133.528C53.0115 133.458 52.3519 133.767 51.945 133.739C51.3837 133.668 51.1451 133.388 51.1451 133.388C51.1451 133.388 49.2787 133.556 45.1389 131.03C41.5605 128.841 40.0028 126.905 40.0028 126.905C40.0028 126.905 39.5818 126.764 39.0345 126.455C37.6874 125.754 35.821 124.294 35.8771 122.386Z"/><path fill="#FFD8B3" d="M87.5047 38.1594C87.5047 38.1594 87.9959 38.2997 88.3327 38.7207C88.9922 39.4785 89.4132 40.9098 87.9117 42.4395C88.5011 42.65 88.7396 42.7201 89.2589 42.65C88.7396 43.2674 87.5608 44.5865 87.4907 45.7372C87.4205 46.6774 88.0099 46.9581 88.0099 46.9581C88.0099 46.9581 87.1118 47.9966 87.0697 49.7367C87.2802 49.4981 87.7573 48.9789 88.459 48.4175C89.4974 47.5896 90.9288 46.6494 91.8971 46.06C91.869 46.4389 91.9953 46.7897 91.9953 46.7897C91.9953 46.7897 93.8056 45.3022 95.3212 45.9618C96.0088 46.2705 95.7 47.2388 95.7 47.2388C95.7 47.2388 96.6403 46.8879 97.2998 47.5475C97.9594 48.2071 98.8996 49.9051 99.3767 50.5646C99.5872 50.8733 100.134 51.4627 100.696 52.3749C101.355 53.4554 102.085 54.9429 102.604 56.4024C102.632 55.6727 102.815 54.536 104.892 55.2517C106.969 55.9814 109.326 57.511 111.305 60.5281C113.283 63.5452 113.775 66.9412 114.771 68.2323C115.781 69.4812 116.82 71.5581 116.89 72.4282C116.96 73.2982 116.581 76.1048 118.658 83.6967C119.248 81.3392 120.146 76.1048 120.146 76.1048L120.637 71.4879L121.198 57.2023L106.281 44.811L94.6195 36.3491L87.0276 37.0788L87.5047 38.1594Z"/><path fill="#FFD8B3" d="M115.22 59.4195C115.22 59.4195 115.01 58.0302 111.502 55.6726C107.993 53.3432 105.257 53.3432 102.731 51.3645C100.794 49.8068 98.7736 46.2284 97.4545 45.0496C96.1774 43.8849 95.9669 40.5169 95.9669 40.5169L100.275 36.9104L106.688 27.6486L112.105 21.6845L114.701 25.291L118.308 29.529L120.314 38.0331L121.044 50.4804L115.22 59.4195Z"/><path fill="#FFD8B3" d="M119.556 74.3366C119.556 74.3366 119.795 71.6282 118.869 68.7514C117.943 65.8747 115.922 60.7666 114.982 58.8581C114.603 56.7391 114.883 56.5707 115.29 56.3322C115.711 56.0936 117.227 55.2235 118.069 52.1643C118.897 49.1051 121.507 49.0069 121.507 49.0069L123.107 47.8281L125.534 53.9044L127.653 59.3914L128.313 63.5873L128.804 67.1657L127.653 74.7295L121.97 79.8657L119.556 74.3366Z"/><path fill="#FFD8B3" d="M38.7961 169.285C38.7961 169.285 37.5192 166.927 37.449 165.917C37.421 164.948 37.7999 164.317 37.7999 164.317C37.7999 164.317 37.3087 163.587 36.8596 163.419C36.9579 162.928 37.1403 162.338 37.5192 161.931C37.8981 161.482 38.6278 160.893 38.7681 160.682C38.9085 160.472 38.9786 160.191 39.3856 160.121C39.8066 160.051 40.2556 160.051 40.2556 159.503V158.493C40.2556 158.493 40.424 158.395 40.5644 158.212C40.6626 158.072 40.7328 157.904 40.8029 157.862C40.9433 157.791 41.6028 157.581 41.9537 157.651C42.3045 157.721 43.2307 158.1 43.7218 158.072C44.7322 158.044 45.911 157.272 47.7774 157.623C50.584 158.142 51.2436 160.051 52.8714 161.131C53.98 161.889 55.1307 161.552 55.2991 161.552H55.678C55.7482 161.552 56.2674 160.963 56.5481 160.991C57.1094 161.019 57.1655 161.482 57.5163 161.51C58.3443 161.608 59.9441 161.089 60.744 161.3C61.1229 161.398 61.614 161.791 61.7543 162.31C61.9227 162.829 61.7824 163.489 61.3754 163.868C60.5054 164.668 59.6774 165.425 59.509 166.085C59.7476 166.253 60.1686 166.646 60.1686 166.646C60.1686 166.646 59.7897 166.997 59.0881 167.334C58.7793 167.474 58.2882 167.713 57.7409 167.783C56.7024 167.881 55.4114 168.022 54.6536 169.13C53.8958 170.239 51.2857 169.621 51.2857 169.621L38.7961 169.285Z"/><path fill="#FFD8B3" d="M114.982 130.609C114.982 130.609 117.171 127.69 117.929 126.245C118.687 124.758 115.529 105.883 115.529 105.883L121.872 85.1L121.704 78.3361C121.704 78.3361 122.013 72.0913 122.742 69.3829C123.612 70.9406 126.321 72.821 126.91 73.8174C127.191 71.9089 128.131 67.8814 127.991 63.5873C128.51 64.3872 129.759 72.4281 129.759 72.4281L131.008 77.8449L132.636 83.5985L134.446 89.6748L135.526 93.8707L136.144 94.8811L136.663 96.6492L137.154 98.5577L138.572 103.034L139.4 106.711L140.059 113.377C140.059 113.377 140.298 114.205 140.368 114.934C140.396 115.664 140.27 116.085 140.27 116.211C140.27 116.352 140.508 117.811 140.41 118.92C140.27 120.028 140.27 120.898 139.4 121.698C138.53 122.498 137.982 127.255 137.982 127.255L136.425 126.217C136.425 126.217 136.733 124.8 136.004 123.509C135.274 122.232 133.857 121.951 133.057 122.161C132.257 122.33 130.657 122.582 130.138 123.031C129.647 123.48 128.44 124.87 127.331 125.501C125.942 126.329 123.683 126.399 122.476 126.68C121.255 126.961 119.908 127.789 118.49 128.757C117.017 129.711 115.529 130.399 114.982 130.609Z"/><path fill="#FFD8B3" d="M114.982 161.272C114.982 161.272 116.203 162.072 118.448 162.619C120.693 163.166 126.433 166.464 126.433 166.464L131.26 169.411L137.224 169.86L142.459 169.13C142.459 169.13 142.627 166.913 142.29 158.647C141.94 150.354 141.673 149.175 141.673 148.558C141.673 147.94 141.462 137.415 141.224 135.128C140.985 132.841 141.154 130.511 141.084 129.164C141.013 127.817 140.256 122.33 139.905 120.913C139.526 119.495 138.796 118.794 138.684 118.794C138.586 118.822 137.996 121.46 137.996 122.119C137.996 122.779 137.856 124.379 137.856 124.786C137.758 124.758 137.716 124.505 137.716 124.407C137.575 124.758 137.407 125.375 137.337 125.445C137.267 125.515 137.435 124.856 137.337 124.715C137.238 124.575 137.056 124.645 137.098 124.294C137.126 123.944 137.196 123.677 137.196 123.677C137.196 123.677 136.775 124.294 136.467 125.866C136.158 127.424 136.158 127.466 136.046 127.606C135.947 127.775 135.386 128.336 135.358 128.547C135.33 128.925 135.877 129.304 135.919 129.515C135.947 129.866 135.428 131.493 135.26 132.293C135.091 133.093 135.162 134.651 134.979 135.451C134.839 136.181 134.698 136.601 134.221 136.91C134.572 136.98 134.909 137.079 134.909 137.079C134.909 137.079 135.4 139.156 134.151 140.924C133.702 141.541 133.59 141.822 133.113 142.383C132.173 143.422 131.443 144.6 131.373 145.372C131.302 145.092 131.274 144.685 131.274 144.685C131.274 144.685 129.815 146.383 129.198 147.351C128.398 148.6 127.289 148.53 126.98 148.838C126.672 149.147 126.601 149.708 126.7 150.157C126.419 150.228 125.9 150.326 125.549 151.406C125.381 151.968 124.96 152.515 124.3 152.894C123.64 153.273 122.841 153.385 122.434 153.483C122.784 153.582 122.925 153.582 123.093 153.694C122.883 154.045 121.914 154.592 120.834 155.294C119.753 155.953 119.234 156.921 118.967 157.553C118.687 158.142 118.28 158.521 117.62 158.591C117.901 158.76 118.308 159.153 118.518 159.279C118.21 159.349 117.69 159.349 116.75 160.149C115.768 160.963 115.431 161.201 114.982 161.272Z"/><path fill="#FFD8B3" d="M94.1287 169.046C94.1287 169.046 94.9988 167.699 97.1879 166.857C99.3771 165.987 101.693 165.818 102.605 165.538C103.475 165.257 104.162 164.878 105.243 164.668C105.145 165.496 105.103 166.155 104.864 166.716C105.664 166.857 107.671 165.299 108.751 164.948C109.832 164.597 112.288 164.078 112.498 163.91C112.709 163.741 113.158 162.731 113.298 162.689C113.438 162.661 113.817 162.899 114.056 162.899C114.505 162.899 117.662 159.981 120.16 160.023C122.63 160.051 125.437 162.1 125.016 163.938C125.675 163.559 126.363 163.208 126.924 163.349C126.854 163.587 126.826 163.868 126.826 163.868C126.826 163.868 128.173 163.559 128.524 164.008C128.903 164.457 128.692 164.878 129.604 165.945C130.334 166.843 130.124 167.053 129.983 167.362C130.334 167.46 132.06 168.05 133.66 169.551C135.26 171.039 120.89 170.112 120.89 170.112L94.3813 169.874L94.1287 169.046Z"/><path fill="#FFD8B3" d="M135.821 110.205C135.821 110.205 135.372 112.633 134.572 114.163C133.772 115.692 132.902 117.811 132.902 117.811C132.902 117.811 132.902 117.053 133.071 116.394C132.06 116.983 129.604 118.401 128.903 119.032C128.243 119.621 127.135 120.66 126.854 121.151C127.513 119.214 128.201 117.474 128.313 116.674C127.303 117.404 122.588 121.291 120.132 123.859L112.484 130.048C112.484 130.048 111.305 130.708 109.776 131.325C108.457 131.886 106.899 132.363 105.748 132.813C106.057 131.985 106.548 131.255 107.236 130.553C107.965 129.866 110.155 127.494 110.491 126.385C110.8 125.235 110.87 124.547 110.463 123.579C110.084 123.677 109.214 123.719 108.625 123.887C108.036 124.056 107.404 124.687 107.404 124.687C107.404 124.687 107.853 122.119 108.821 119.692C108.092 119.72 106.843 119.93 106.843 119.93C106.843 119.93 108.583 117.011 111.558 114.976C111.067 115.075 109.958 115.355 108.892 115.804C107.151 116.534 105.243 117.615 103.826 118.204C104.626 117.095 110.239 109.083 113.579 101.617C116.904 94.1654 118.153 92.2569 118.883 88.2575C119.262 86.2788 119.164 83.3599 119.262 80.7357C119.36 78.1396 119.683 75.8101 119.473 74.2525C120.343 75.333 123.598 78.3782 123.711 85.1842C123.809 91.9903 120.595 101.182 117.185 106.136C118.013 106.374 120.174 106.655 122.391 102.81C124.609 98.9647 124.581 97.8842 125.38 96.2844C125.479 97.0843 125.451 97.365 125.451 97.365C125.451 97.365 128.678 93.4497 130.208 88.5241C130.517 90.6431 131.429 92.5095 129.997 96.3967C128.72 99.9049 127.05 100.761 127.05 100.761C127.05 100.761 127.878 100.621 129.099 99.8909C129.31 100.41 129.268 101 129.618 101.21C129.969 101.421 130.446 101.771 130.517 102.108C130.895 101.547 131.485 100.831 131.667 100.298C131.527 101.406 131.429 106.262 131.948 108.732C133.029 108.634 134.137 108.563 134.895 106.613C134.376 108.521 134.376 109.672 134.727 111.3C135.302 110.907 135.821 110.205 135.821 110.205Z"/><path fill="#FFD8B3" d="M99.3631 32.8548C99.3631 32.8548 98.2826 33.3039 96.4442 33.3039C94.8445 33.3039 95.2935 32.6864 92.7956 32.6864C88.9506 32.6864 75.5209 34.9037 73.1633 34.8756C71.6337 34.8475 78.3275 35.5351 78.3275 35.5351L95.4339 35.7737L98.872 35.493L100.149 32.8969L99.3631 32.8548Z"/><path fill="#FFD8B3" d="M55.0043 66.2956C55.0043 66.2956 52.8152 67.9656 51.889 69.2426C50.9488 70.5196 50.4717 71.3616 49.4192 72.4C49.77 72.4281 50.1489 72.3018 50.1489 72.3018C50.1489 72.3018 50.1489 72.5824 49.9805 72.6526C50.3313 72.6245 50.598 72.7508 50.7804 72.9333C50.4717 73.1017 49.6297 73.9436 50.2892 74.94C50.7804 75.6978 51.8188 75.768 51.8188 75.768C51.8188 75.768 51.5803 76.4556 52.5766 76.3854C54.7237 76.2872 57.1233 75.347 58.232 75.5855C59.3406 75.8662 59.9721 75.9644 60.7579 77.3256C61.5859 78.6728 62.3156 78.8833 62.3156 78.8833C62.3156 78.8833 62.8067 77.6344 62.6945 75.768C63.354 74.1682 63.354 72.6105 63.354 72.6105L62.6243 67.2358L59.4388 63.2083L55.3131 65.4957L55.0043 66.2956Z"/><path fill="#FFD8B3" d="M58.9195 65.4957C58.9195 65.4957 59.2282 66.2254 60.5192 66.2956C60.3789 66.6043 60.3789 66.6464 60.421 66.885C60.4491 67.1235 60.4912 67.4744 60.4912 67.4744C60.4912 67.4744 60.6596 67.4042 60.8701 67.1937C60.9402 67.5024 60.7999 67.9936 60.8701 68.3444C60.9402 68.6952 61.0806 68.9619 61.0806 68.9619C61.0806 68.9619 61.1086 68.8917 61.1507 68.8215C61.1788 68.7514 61.4314 69.5793 62.119 70.2108C62.119 70.0424 62.1892 69.9301 62.1892 69.9301C62.1892 69.9301 62.1892 70.1687 62.3576 70.4213C62.2874 70.3932 62.2172 70.3231 62.2172 70.3231C62.2172 70.3231 62.2874 72.5403 62.6663 73.691C62.7645 73.5507 62.8066 73.5226 62.8347 73.4525C62.8347 73.3823 62.8066 74.0699 62.7365 74.5611C62.6382 75.0522 62.7084 75.7398 62.7084 75.7398C62.7084 75.7398 63.0873 75.4311 63.5363 75.2487C63.9573 75.0803 64.645 74.5611 65.0659 73.4104C65.4869 72.2596 65.6273 71.4036 65.6273 71.4036C65.6273 71.4036 65.8658 71.8527 65.9079 72.2316C65.936 72.5824 66.5956 72.4 66.5956 72.4L66.7359 70.8704L67.5638 67.4042L68.3216 65.2571L71.9702 59.5737L78.5658 54.5078L84.3193 55.8269L89.1748 49.2313L80.8111 44.2075L72.8964 45.0355L65.7115 54.9849L59.9579 64.0082L58.9195 65.4957Z"/><path fill="#FFD8B3" d="M100.373 51.0978C100.373 51.0978 99.8823 51.196 98.4649 51.9257C97.0476 52.6555 96.0653 52.894 95.518 53.9746C94.9566 55.0551 94.9286 55.9111 94.9286 55.9111C94.9286 55.9111 95.8969 55.4901 96.4582 55.3498C97.0476 55.2095 97.7071 55.2516 97.637 55.4901C97.5668 55.7006 97.3563 55.9392 97.3563 55.9392C97.3563 55.9392 98.4649 55.9111 98.4368 56.4584C98.4088 57.0198 98.2264 57.6091 98.0159 57.8758C97.8054 58.1564 96.9353 58.5634 96.8371 58.8862C96.5985 59.5457 96.9353 59.5738 96.809 60.107C96.7108 60.6263 96.2477 61.6366 94.7321 63.4048C93.1744 65.173 92.5149 66.4219 92.5149 66.4219C92.5149 66.4219 91.7571 65.0046 91.3642 63.7837C91.0835 63.924 89.596 64.752 89.596 64.752L86.1439 52.7256L86.214 51.9257C86.214 51.9257 86.5228 51.5468 86.5929 50.8452C86.0737 50.6768 86.0035 50.5365 85.3159 49.8769C84.6283 49.2174 84.067 48.4175 82.9163 47.8702C82.7479 47.5614 82.5374 47.1405 81.6954 46.9721C80.8674 46.8037 80.3482 46.6633 80.3482 46.6633C80.3482 46.6633 80.7973 46.4949 81.0078 46.1441C80.4885 46.2143 80.0675 46.3827 78.9308 46.3546C77.7801 46.3265 77.6538 46.2844 77.0224 46.3827C76.3909 46.4809 75.6331 46.7616 75.3524 45.7933C75.0437 45.5547 74.3841 45.7652 73.8228 46.5932C73.2615 47.4211 73.065 48.0807 71.9845 48.4034C71.9564 48.6139 71.8441 49.1612 71.4933 49.7506C71.1846 50.2698 70.6934 50.7891 70.0339 51.5609C68.9954 52.7818 69.1638 54.7885 67.5079 56.3181C65.838 57.8477 67.7886 52.0801 67.7886 52.0801L70.4549 45.695L78.0468 38.2715L89.8346 37.4717L90.9853 43.576L96.7388 45.5547L100.373 51.0978Z"/><path fill="#FFD8B3" d="M102.24 52.445L97.286 45.3022L93.8199 42.6359C93.8199 42.6359 91.35 38.0892 91.1816 37.9489C91.0413 37.8506 88.7118 37.598 87.2243 37.4998L87.505 38.1874C87.505 38.1874 87.9961 38.3277 88.3329 38.7487C88.9925 39.5065 89.4135 40.9379 87.9119 42.4675C88.5013 42.678 88.7399 42.7482 89.2591 42.678C88.7399 43.2955 87.5611 44.6146 87.4909 45.7653C87.4208 46.7055 88.0101 46.9862 88.0101 46.9862C88.0101 46.9862 87.112 48.0246 87.0699 49.7647C87.2804 49.5261 87.7576 49.0069 88.4592 48.4456C89.4977 47.6176 90.929 46.6774 91.8973 46.088C91.8692 46.4669 91.9956 46.8178 91.9956 46.8178C91.9956 46.8178 93.8058 45.3303 95.3214 45.9898C96.009 46.2985 95.7003 47.2668 95.7003 47.2668C95.7003 47.2668 96.6405 46.916 97.3001 47.5755C97.9596 48.2351 98.8998 49.9331 99.377 50.5927C99.5874 50.9014 100.135 51.4908 100.696 52.4029C101.356 53.4835 102.085 54.971 102.605 56.4304C102.633 55.8691 102.745 55.0832 103.713 55.0832L102.24 52.445Z"/><path fill="#FFD8B3" d="M27.9764 72.7369C27.9764 72.7369 27.6256 71.8668 27.9764 70.1688C28.3273 68.4708 28.8746 67.6709 29.057 65.173C29.2254 62.6751 30.8673 59.5598 30.8673 59.5598L35.3719 57.511L38.5574 58.381L39.4976 62.6471L35.4701 64.8643C35.4701 64.8643 35.2596 65.8045 34.1229 66.5623C32.9722 67.3201 31.4145 67.9095 31.0356 68.6813C30.6568 69.4812 30.5445 70.1688 30.5445 70.1688C30.5445 70.1688 29.3938 69.9302 28.7062 70.688C27.9764 71.4599 28.0045 72.1475 27.9764 72.7369Z"/><path fill="#FFD8B3" d="M37.0699 71.6002C37.0699 71.6002 36.6911 71.8388 36.4104 72.4281C36.1297 71.9791 35.4702 69.3128 35.4421 66.9131C35.414 64.5135 35.2737 63.9241 35.821 63.0961C36.3823 62.2682 38.5575 61.3981 38.2487 59.9106C37.94 58.4933 36.649 57.9039 35.0632 58.3109C33.9546 58.5915 33.1267 60.9491 31.9759 62.1279C31.1059 63.026 30.0674 62.8856 29.7868 63.3768C29.4079 64.0364 29.7587 64.6959 29.6464 65.1169C29.6184 65.2572 29.2676 66.015 28.6361 66.9272C27.3591 68.7655 25.198 71.3616 24.9173 73.6911C25.0155 72.372 24.9454 72.3439 25.2962 70.8845L25.0857 70.5337L26.475 65.987L27.3731 62.2401L29.3798 55.9673L32.9162 49.5542L36.3543 45.7091L39.9327 45.9477L40.3537 51.3224L42.4025 61.4122L46.7107 66.7167L39.8064 71.3616L37.0699 71.6002Z"/><path fill="#FFD8B3" d="M39.2173 73.5086C39.2173 73.5086 38.6279 73.649 38.4174 73.5367C38.2069 73.4385 37.9964 73.2981 38.0666 73.1578C38.1367 73.0175 38.5156 72.7789 38.5156 72.6666C38.5156 72.5684 38.4876 72.2877 38.1648 72.2456C37.842 72.2035 37.7438 72.414 37.7438 72.414C37.7438 72.414 37.4351 72.1755 37.1825 72.1334C37.393 72.1053 37.6315 72.1053 37.6315 72.1053C37.6315 72.1053 37.0422 71.8247 36.4107 71.7545C36.7615 71.544 37.4491 70.9265 37.8982 70.9265C38.3472 70.9265 38.6279 70.8564 38.5577 70.6178C38.4876 70.3792 38.1367 70.0284 37.7578 69.8881C37.8982 69.7197 37.9964 69.4671 37.6596 68.7795C37.3088 68.0918 37.4491 67.6288 37.5614 67.4604C37.6596 67.2499 38.0104 66.871 38.1788 66.6324C38.3472 66.3938 38.4876 66.0711 38.7682 65.9027C38.9086 65.8045 39.3576 65.622 39.8067 65.4536C40.2978 65.2852 40.7048 65.0747 40.9855 65.2852C41.2942 65.4957 41.1539 65.7764 41.1539 65.7764C41.1539 65.7764 42.1221 65.4256 42.9922 65.8746C43.8622 66.2956 45.9812 66.5622 45.9812 66.5622L46.739 68.0919L41.7152 72.4L39.6383 73.4385L39.2173 73.5086Z"/><path fill="#FFD8B3" d="M46.1917 66.4641C46.1917 66.4641 44.634 67.5025 44.2832 67.8814C44.4937 67.9095 44.8445 68.0498 44.7042 68.2603C44.5358 68.4708 43.5254 69.2005 42.9641 69.8881C42.3747 70.5758 41.8134 71.4458 41.6169 71.8668C41.4064 72.2457 39.8067 73.3543 39.2594 73.4947C40.4101 73.4947 42.7255 72.0773 43.5956 72.0773C43.5675 72.4983 43.8342 72.9754 44.3253 73.0175C44.8165 73.0456 46.2338 73.3263 48.1423 72.1475C50.0508 70.9968 49.4193 70.1407 50.2192 69.5794C51.7488 68.569 52.3663 67.6709 53.2083 67.1096C54.0362 66.5483 54.4853 66.422 54.4853 66.422C54.4853 66.422 54.5133 66.001 54.7659 66.0431C55.0045 66.0711 55.0747 66.2816 55.0747 66.2816C55.0747 66.2816 56.5341 65.2432 58.4005 64.9625C58.3303 64.9345 58.3023 64.8643 58.3023 64.8643C58.3023 64.8643 58.4426 64.7941 58.4707 64.724C58.4707 64.724 58.5689 64.5836 58.6391 64.6538C58.7092 64.724 58.8075 65.2432 58.9478 65.4537C59.2565 65.3134 59.8459 63.9942 59.8459 63.9942L61.2633 59.9387V56.234L60.1546 56.4444L51.833 59.9808L46.7811 65.2151L46.1917 66.4641Z"/><path fill="#FFD8B3" d="M70.1602 48.2912C70.1602 48.2912 70.8899 48.1228 71.4372 47.7719C71.2688 48.221 71.2688 48.7122 70.5391 49.7787C69.8094 50.8592 69.7813 50.9996 69.1919 52.1082C68.6025 53.2589 68.5323 54.9148 67.971 55.6445C68.4201 55.434 68.7709 55.4059 68.7709 55.4059C68.7709 55.4059 68.2096 55.8971 67.971 56.4163C67.7325 56.9356 67.3115 58.0161 66.273 58.6757C65.2346 59.3352 63.9155 59.7562 62.4981 61.3139C61.0808 62.8435 59.6213 64.7801 58.8916 65.4817C59.2705 64.8221 59.7897 63.503 59.9301 62.633C60.0704 61.7629 59.902 60.7245 60.1406 59.5738C60.3791 58.4231 60.3791 57.5951 61.5298 55.5884C62.6805 53.5816 64.6452 46.6072 64.6452 46.6072L68.8832 45.26L70.1602 48.2912Z"/><path fill="#FFD8B3" d="M67.1012 45.7231C67.1012 45.7231 65.8242 47.5614 65.4733 49.1893C65.1225 50.8171 65.4453 50.6768 65.2348 51.4767C65.0243 52.2765 65.2348 52.9642 65.2348 52.9642C65.2348 52.9642 65.7961 51.9538 67.0029 51.2241C68.2098 50.4943 69.1921 49.9751 69.7815 49.3577C70.3709 48.6981 70.862 47.6176 72.1391 46.7896C71.6198 46.7194 70.8901 46.4809 70.7498 46.5089C71.269 45.9196 72.8267 45.0214 74.3984 43.9409C75.956 42.8323 75.8578 42.3832 78.3838 41.2746C77.5558 41.4149 77.1629 41.2044 76.4753 41.2746C76.7559 40.6852 77.7242 40.4045 78.6925 39.4363C79.6608 38.468 78.0751 37.0366 78.0751 37.0366L70.6796 41.5132L67.1012 45.7231Z"/><path fill="#FFD8B3" d="M47.0195 42.3832L47.1879 41.0361L49.3068 37.6401L51.5241 31.676V23.5228L51.3557 18.8077L51.7065 15.7204L51.9731 14.7381L52.2538 14.3592L54.0641 15.2994L56.562 18.6954L56.8005 25.2489L54.3728 35.5912L47.4404 43.1551L47.0195 42.3832Z"/><path fill="#FFD8B3" d="M52.5348 13.9803C52.5348 13.9803 51.4262 14.0084 51.1877 18.6253C50.9491 23.2421 50.8368 25.6699 50.6684 27.9573C50.5 30.2447 50.1071 31.6339 49.9106 32.9811C49.7002 34.3283 49.6019 36.1666 48.9704 37.2893C48.6898 37.8085 48.1004 39.4363 46.7111 40.6572C45.1534 42.0044 42.8239 42.9446 42.4731 43.0148C41.8557 43.1551 38.7263 43.4638 37.4493 44.1655C37.0002 44.404 36.2284 44.6847 35.3724 45.4846C33.6744 47.0142 31.415 49.7507 29.7872 53.0484C27.2893 57.974 24.7914 71.8808 24.7914 71.8808L25.3527 70.9406C25.3527 70.9406 25.4229 69.6917 26.6719 67.5025C27.8927 65.3133 27.5419 62.8576 29.2399 58.6617C29.8995 57.0619 30.7274 54.985 31.7378 53.2168C33.3376 50.34 35.2741 47.8702 37.2247 46.523C40.4102 44.3339 43.9185 43.8568 43.9185 43.8568L47.6934 41.3589C47.6934 41.3589 48.353 40.0819 49.223 38.6224C50.4439 36.5736 52.0016 34.2862 52.3384 30.9603C52.8576 26.0347 51.6087 22.8071 51.6788 19.8882C51.749 16.9694 51.777 14.8223 52.3664 14.3031C52.9558 13.7838 52.5348 13.9803 52.5348 13.9803Z"/><path fill="#FFD8B3" d="M52.5343 36.0123C52.5343 36.0123 54.2043 31.9146 54.9621 28.28C55.1024 27.5503 55.3831 26.8206 55.4532 26.2312C55.8041 22.7931 55.9023 21.3758 55.4532 19.4953C55.1024 18.106 53.7552 16.8571 53.0536 15.8888C52.366 14.8784 52.0432 14.4995 52.1835 14.289C52.3238 14.0785 52.8711 13.7277 53.4044 13.7698C53.9236 13.7979 55.2708 13.9102 56.3934 15.1591C57.474 16.408 58.33 20.646 58.33 20.646L59.2281 26.2312L61.5155 33.2758L52.5343 36.0123Z"/><path fill="#FFD8B3" d="M68.1815 31.7461C68.1815 31.7461 67.8728 31.8865 67.3115 31.7461C67.3396 32.0268 67.2834 32.5741 66.7502 32.9249C66.1608 32.6863 60.6458 33.1635 60.6458 33.1635C60.6458 33.1635 58.0777 32.7144 57.2778 29.3184C56.7165 27.0591 57.6988 23.9437 57.3761 21.8949C56.8849 18.8778 56.1973 18.2884 56.1271 17.3482C56.057 16.408 55.9868 16.1694 55.9868 15.58C55.6781 15.5098 55.4956 15.4116 55.1869 15.4116C55.1167 15.1309 55.2571 14.8924 54.9483 14.4012C55.1167 14.4714 56.2675 14.6117 57.6146 15.8887C58.7232 16.9272 58.7232 17.3061 58.8916 17.5166C59.1021 17.7271 60.8001 19.1865 61.5299 20.6319C62.2596 22.0773 63.6769 26.7082 63.9997 27.466C64.0979 27.7748 64.3084 28.0835 64.8276 28.7851C65.6416 29.7955 66.8344 31.4655 68.1815 31.7461Z"/><path fill="#FFD8B3" d="M59.0877 17.5868C59.6069 18.4147 60.5752 20.0847 61.3751 21.8529C62.203 23.7193 62.6942 25.2489 63.7326 26.4978C63.1713 24.87 62.1749 21.6704 61.5856 20.5337C60.926 19.3269 59.5788 18.0359 59.0877 17.5868Z"/><path fill="#FFD8B3" d="M49.5454 40.6572C49.5454 40.6572 48.1281 41.008 45.4899 42.3973C44.6198 42.8464 43.7919 43.2253 42.992 43.5761C40.9151 44.5163 38.6838 45.3864 36.9157 45.8635C37.056 46.0319 37.1262 46.1021 37.1262 46.1021C37.1262 46.1021 37.1262 46.7897 37.5051 47.1826C37.2946 47.3931 34.4879 49.3016 35.3159 55.6867C35.8772 55.4762 36.5368 55.1955 36.635 55.1955C36.8034 55.2236 36.8455 55.6867 37.056 55.6867C37.2665 55.6867 37.9541 55.406 38.6838 54.4658C38.6558 54.8447 38.2348 58.6617 40.4941 61.2297C40.9151 60.7386 41.9816 59.1107 41.9816 59.1107L42.0097 58.5915C42.0097 58.5915 42.1079 56.7812 42.6973 55.1253C43.2867 53.4554 44.4374 52.2486 44.4374 52.2486L50.4436 43.6743L49.5454 40.6572Z"/><path fill="#FFD8B3" d="M43.9319 53.2448C43.9319 53.2448 43.5109 53.5535 43.0338 53.6939C42.9355 53.343 42.7952 52.1362 43.6232 50.9574C44.5914 49.5401 46.7104 47.7017 47.2998 46.2423C47.6787 45.3021 47.5103 42.9445 50.8783 39.9274C54.2462 36.9103 55.5653 35.8718 55.5653 35.8718L61.0101 33.1354L67.7039 35.7736L64.3781 48.8104L61.796 54.9147L51.5238 52.9782L43.9319 53.2448Z"/><path fill="#FFD8B3" d="M47.8478 49.7086L49.1248 48.1088V46.9721C49.1248 46.9721 50.5421 46.5933 52.0717 45.0356C53.6014 43.4779 55.7203 40.4889 57.5868 40.6713C59.4532 40.8818 59.6356 44.7269 59.7057 45.8074C59.7759 46.888 60.0145 49.3437 60.3934 50.6628C60.8144 51.982 55.8466 56.9777 55.8466 56.9777L52.4787 59.5458L47.8478 49.7086Z"/><path fill="#FFD8B3" d="M51.8044 63.0258C51.8044 63.0258 52.8428 61.398 52.0851 61.0472C52.5341 60.0368 53.3621 58.9703 53.3621 58.9703C53.3621 58.9703 53.9515 57.5108 55.86 55.7146C57.7685 53.9043 58.9472 52.7255 59.256 51.5187C59.5647 50.2978 59.5647 49.119 59.5647 49.119C59.5647 49.119 59.9436 49.4278 60.2243 49.5681C60.533 49.7084 61.9924 50.9153 61.7819 53.343C61.5714 55.7707 60.6733 56.7811 60.6733 56.7811C60.6733 56.7811 59.8033 57.6512 59.1858 58.1002C58.5262 58.5493 58.2877 59.0685 57.1791 59.1106C57.3475 58.9703 57.558 58.9001 57.558 58.9001C57.558 58.9001 56.4073 58.7598 55.7898 59.3211C55.1723 59.8824 53.8532 61.6085 53.1937 62.1277C52.5341 62.5487 51.8044 63.0258 51.8044 63.0258Z"/><path fill="#FFD8B3" d="M98.4649 35.7315C98.4649 35.7315 96.2477 34.8334 93.3007 34.7211C90.3538 34.6229 86.0456 34.7913 81.8217 34.8193C77.2749 34.8474 73.1492 33.2617 67.4237 32.981C66.4835 32.4197 64.0979 29.9639 56.6323 35.1702C57.0813 35.1421 62.049 34.0195 63.7751 36.1806C65.5152 38.3276 65.0241 41.9762 64.7855 42.8463C64.3364 44.7828 62.877 47.6035 62.2876 49.5822C61.6982 51.5608 61.8385 52.5993 61.4175 53.9885C60.9966 55.3778 60.0704 56.0654 60.6177 57.6652C61.3474 57.2162 61.7263 57.2162 62.9472 54.4797C64.168 51.7433 63.9154 49.7927 65.9362 47.4772C67.9149 45.1477 71.2126 41.9622 72.4616 41.1623C73.7105 40.3624 83.66 35.1982 94.0725 40.1239C96.5845 39.8572 98.4649 35.7315 98.4649 35.7315Z"/><path fill="#FFD8B3" d="M60.8278 33.8231C60.8278 33.8231 60.7997 33.5845 60.7576 33.5143C60.5892 33.1635 60.3787 32.953 60.3787 32.953C60.3787 32.953 57.9089 32.5039 56.66 32.6443C54.4708 32.8828 52.4921 35.5912 51.5659 36.9805C50.6257 38.3698 49.489 40.5168 48.2401 41.6254C48.2682 41.457 48.1699 41.3167 48.1699 41.3167C48.1699 41.3167 48.2401 41.415 48.0998 41.5553C47.9594 41.6956 47.9594 41.7658 48.0296 41.8359L48.2401 42.0464C48.3103 42.0464 50.2468 41.1764 52.8851 38.7206C55.6917 36.1525 57.8387 34.8334 58.9614 34.3844C59.8174 33.9914 60.8278 33.8231 60.8278 33.8231Z"/><path fill="#FFD8B3" d="M108.737 23.2703C108.737 23.2703 108.288 23.8316 107.727 24.449C106.478 25.7681 104.85 27.2556 103.461 28.7853C102.141 30.2447 100.654 31.3814 98.984 33.2899C97.3141 35.1984 95.3775 37.3174 94.8863 37.9348C94.4373 38.5523 94.0864 39.5627 94.0864 40.0819C93.8479 39.9135 93.5672 39.7311 93.5672 39.7311C93.5672 39.7311 93.7076 40.0117 93.9882 40.3485C94.339 40.8397 94.8863 41.4571 95.167 41.836C95.6161 42.4535 95.8546 43.1832 95.8967 43.4358C96.0651 43.4639 97.1457 43.6744 98.4928 41.4571C99.84 39.2399 101.608 36.8122 101.608 36.8122L104.415 32.6444L106.183 29.108L108.4 25.1507L108.737 23.2703Z"/><path fill="#FFD8B3" d="M111.614 20.4355C111.614 20.4355 109.916 21.8248 109.256 22.6527C108.597 23.4807 107.039 25.6698 107.039 25.6698L107.601 25.5997L110.449 23.0737L111.558 21.095L111.614 20.4355Z"/><path fill="#FFD8B3" d="M111.095 131.956C111.095 131.956 111.067 130.806 111.712 130.118C112.372 129.43 114.042 128.42 115.669 124.631C117.297 120.856 117.48 119.986 117.48 119.986C117.48 119.986 114.561 122.484 112.765 123.073C113.186 122.203 113.424 121.586 113.635 121.137C113.396 120.926 112.386 120.688 112.287 120.576C112.849 120.014 113.157 118.639 114.294 117.727C115.754 116.618 118.42 114.71 120.497 113.012C122.574 111.314 126.643 107.356 127.162 106.206C127.471 106.655 127.541 106.935 127.541 106.935C127.541 106.935 125.493 109.602 124.426 111.3C123.486 112.759 123.556 113.587 123.556 113.587L125.493 112.759C125.493 112.759 126.054 114.836 123.514 117.993C124.622 117.572 125.072 117.825 125.703 117.474C124.665 118.134 123.233 119.032 121.886 121.502C120.567 123.972 118.771 126.848 115.74 128.645C112.793 130.539 111.095 131.956 111.095 131.956Z"/><path fill="#FFD8B3" d="M103.489 37.1911C103.489 37.1911 102.338 39.5908 102.17 41.4572C102.142 41.9062 102.03 42.2571 102.03 42.7763C102.001 44.4462 102.128 46.3126 101.749 47.1827C101.609 46.8318 101.538 46.5933 101.398 46.4529C101.188 47.0423 100.809 48.8807 100.5 49.5683C100.36 49.1192 100.051 47.5616 100.079 45.7232C100.107 43.8849 100.149 43.5341 100.149 43.1552C100.079 43.7165 99.7 44.4743 99.5597 44.9233C99.3492 44.5444 99.1106 44.0533 98.83 43.6463C98.6616 43.927 98.4511 44.3339 98.2686 44.5444C98.2406 44.376 98.1704 43.927 98.1283 43.2955C98.1002 42.5658 98.0581 41.6256 98.1002 41.4291C98.1704 41.0502 98.7598 39.5627 100.009 38.2015C101.496 36.5737 103.026 33.4443 103.475 32.476C103.924 31.5077 105.832 27.4802 105.832 27.4802H107.292L105.173 32.3076C105.173 32.3076 103.896 34.9458 103.236 35.9141C102.577 36.8824 101.188 39.6609 100.57 40.7415C101.019 40.1521 101.398 39.8434 101.847 39.282C102.282 38.8891 103.489 37.1911 103.489 37.1911Z"/><path fill="#FFD8B3" d="M111.642 20.2531C111.642 20.2531 111.361 21.2634 110.533 22.2598C109.663 23.2982 107.797 24.6875 106.885 25.7961C106.057 26.8767 104.387 29.8236 105.144 33.3179C105.425 32.5601 105.944 31.0585 107.334 29.3605C108.723 27.6625 110.21 25.7119 110.94 24.1964C111.67 22.6667 111.768 21.4599 111.768 21.4599L112.049 21.1091L111.88 20.3092L111.642 20.2531Z"/><path fill="#FFD8B3" d="M140.059 113.335C140.059 113.335 139.497 111.805 139.329 110.416C139.16 109.026 139.609 108.746 139.09 107.16C138.782 106.192 138.22 106.332 138.08 106.192C137.94 106.051 137.841 104.592 137.869 103.792C137.897 102.992 137.841 101.954 137.701 101.505C137.49 101.336 137.35 101.196 137.041 100.157C136.691 99.119 136.522 98.5998 136.354 98.291C136.185 97.9823 135.694 97.7016 135.694 97.3929C135.694 96.7755 136.256 96.4527 136.256 96.2843C136.227 95.9335 135.806 96.2141 135.694 96.1159C135.554 95.9475 136.045 94.9371 135.863 94.7968C135.792 94.7266 135.301 95.316 135.175 95.1476C135.035 94.9792 134.866 93.3093 134.614 92.2007C134.375 91.1201 134.123 90.3343 134.094 90.0115C134.066 89.7028 132.158 84.2579 131.695 82.9388C131.246 81.6197 130.895 80.2024 130.755 79.5428C130.614 78.8833 130.516 77.5361 130.446 77.6764C130.376 77.8168 130.418 78.5044 130.306 78.4763C130.207 78.4482 129.856 76.0486 129.744 75.6697C129.646 75.2908 129.057 73.9998 128.916 73.0736C128.776 72.1334 128.467 69.6776 128.257 68.0076C128.046 66.3377 127.948 65.6501 127.948 65.2291C127.948 65.0186 128.018 63.8117 127.78 62.1699C127.499 60.4017 126.952 58.2546 126.46 57.0057C125.52 54.6481 123.022 48.6139 122.573 47.1124C122.573 46.7335 123.064 46.944 123.064 46.944C123.064 46.944 124.285 50.0032 125.183 52.3607C126.054 54.7183 126.881 56.7952 127.092 57.0057C127.26 57.2162 128.579 59.5316 129.169 63.3206C129.758 67.1095 129.969 70.6037 130.32 72.9332C130.488 74.0419 130.628 75.2206 130.979 76.3994C131.358 77.6764 131.947 78.9955 132.719 81.0163C133.379 82.7143 133.87 84.1316 134.137 85.3525C134.445 86.9102 134.445 88.089 134.628 88.8608C134.796 89.5203 135.049 90.8395 135.638 92.748C136.227 94.6565 137.098 97.1123 137.687 98.6419C138.838 101.701 139.357 104.255 139.525 105.616C139.68 107.02 140.199 111.875 140.059 113.335Z"/><path fill="#FFD8B3" d="M111.712 20.0846L111.642 20.2531C111.642 20.2531 111.852 20.3232 111.81 20.6039C111.81 20.7442 111.81 21.2915 111.74 21.7546C111.67 22.2457 111.529 22.6246 111.501 22.9334C111.501 23.5929 111.6 24.3507 110.673 26.2311C110.393 26.7504 110.224 27.1994 110.084 27.5082C109.733 28.2659 109.663 28.3782 109.354 28.729C109.845 28.4484 111.614 27.3398 112.512 27.5082C111.894 27.859 110.954 28.5466 110.365 29.4447C110.505 29.4728 111.094 29.585 112.035 29.4447C113.592 29.2062 115.332 28.6448 116.862 28.7571C118.532 28.8553 117.872 26.7504 117.872 26.7504L115.936 22.5124L112.287 19.9443L111.712 20.0846Z"/><path fill="#FFD8B3" d="M121.227 51.8275C121.227 51.8275 119.599 50.1997 118.939 44.6145C118.28 39.0013 118.42 30.7358 118.42 30.7358L117.101 27.5082C117.101 27.5082 116.82 25.3611 116.133 24.5612C115.445 23.7613 114.084 22.4142 113.466 21.7546C112.849 21.095 112.147 20.1969 111.726 20.0566C111.937 19.7058 112.877 17.7271 116.483 17.699C120.09 17.671 121.198 19.6777 121.577 20.4074C121.956 21.1371 123.654 24.2946 124.286 30.3008C124.875 36.3069 124.903 36.756 124.805 38.8329C124.735 39.9836 124.356 42.6499 123.696 45.4986C123.093 47.9123 122.433 50.6066 121.227 51.8275Z"/><path fill="#FFD8B3" d="M116.119 56.6128C116.119 56.6128 116.876 56.711 117.676 56.262C118.196 56.2339 120.076 56.4725 121.521 54.6341C121.62 55.0551 121.872 56.1918 121.213 57.2022C121.563 56.8514 122.083 56.711 122.153 56.6128C122.181 57.132 122.672 58.7318 120.595 62.619C121.156 62.0015 121.816 62.0296 122.405 61.9594C122.434 62.6891 122.826 65.1449 121.788 66.464C121.1 67.3621 119.978 67.0815 119.978 67.0815C119.978 67.0815 120.006 66.7728 119.978 66.4921C119.95 66.1132 119.809 65.7343 119.908 65.4817C119.767 65.4115 119.178 65.173 118.448 64.4713C117.227 63.3206 115.641 61.356 115.529 59.8965C115.389 58.2687 116.848 57.9179 116.848 57.9179C116.848 57.9179 116.68 57.7775 116.54 57.539C116.469 57.3004 116.399 56.9215 116.119 56.6128Z"/><path fill="#FFD8B3" d="M105.299 38.9592C105.299 38.9592 105.229 38.8609 104.85 39.31C104.92 38.8609 104.99 38.4399 105.018 38.033C105.159 37.7243 105.397 37.3454 105.706 36.9945C105.496 37.4155 105.355 37.7944 105.355 37.7944C105.355 37.7944 105.874 36.8261 106.632 36.2367C107.151 35.8158 107.811 35.6193 108.092 35.2264C108.4 34.8054 108.33 34.7352 108.4 34.665C108.4 34.665 109.088 34.216 110.141 32.8969C110.281 32.7285 110.491 32.546 110.632 32.3776C110.87 32.2794 111.432 32.0268 112.091 31.69C112.779 31.3111 113.551 30.7919 114.028 30.5814C114.968 30.1604 115.964 30.2025 116.427 29.543C116.778 29.4447 117.157 28.3922 117.087 27.4941C117.606 27.7046 120.272 29.3605 121.185 32.9811C121.844 35.5491 120.665 39.5065 120.174 41.415C119.683 43.3235 119.613 44.7408 118.925 45.6108C118.055 46.7616 115.249 48.3894 114.561 49.1893C113.972 49.8488 112.203 51.5188 112.274 52.7256C112.344 53.6237 113.452 54.1149 113.691 54.2833C113.929 54.4517 113.929 54.6622 114.379 54.564C114.828 54.4657 114.996 54.2552 115.178 54.2552C115.389 54.2833 115.389 54.3254 115.487 54.3254C115.585 54.3254 115.698 54.2973 115.698 54.2973C115.698 54.2973 115.627 55.5743 112.638 55.9673C112.428 55.9953 112.217 56.0655 111.951 56.1076C112.302 55.9392 112.512 55.9392 112.891 55.42C112.47 55.3498 111.263 55.2796 110.954 55.1814C111.053 55.013 111.375 54.564 111.642 54.3535C111.881 54.143 111.614 54.0728 111.403 54.1851C111.305 54.2552 110.842 54.564 110.365 54.985C110.014 55.2937 109.705 55.7147 109.144 56.0936C108.976 55.5322 109.004 54.4657 109.663 53.6939C109.495 53.722 109.172 54.2131 108.864 54.1149C108.835 53.9044 108.793 53.2168 108.962 52.5853C109.13 51.9538 110.042 50.8452 110.042 50.8452L114.449 42.9726L115.389 37.0086L105.299 38.9592Z"/><path fill="#FFD8B3" d="M105.06 39.2961C105.06 39.2961 104.822 39.4645 105.299 39.7872C105.229 39.8855 105.06 40.2363 104.85 40.4749C104.611 40.7555 104.359 40.9239 104.26 41.1625C104.05 41.6536 103.882 41.9904 103.882 42.2009C103.882 42.4114 103.811 43.7586 103.222 44.6287C103.012 44.9374 102.773 45.4566 102.605 45.8074C102.254 46.4249 101.945 46.916 101.875 47.1967C101.735 47.6879 101.636 49.035 101.636 49.035C101.636 49.035 101.945 48.6562 102.057 48.5158C101.889 48.8666 101.706 49.2455 101.44 49.5262C101.608 49.3859 102.099 49.035 102.927 48.3053C104.078 47.337 105.874 45.7092 108.063 44.4182C107.404 44.6567 106.843 44.6567 106.394 44.7269C106.744 44.3761 109.902 40.6713 111.558 40.3205C111.726 40.11 111.698 39.8714 111.698 39.8714L110.281 39.7311L107.404 40.3486L106.983 38.1313L105.06 39.2961Z"/><path fill="#FFD8B3" d="M109.635 51.9258C109.635 51.9258 109.257 52.3047 108.906 53.2449C108.808 53.1467 108.485 52.7958 108.218 52.3047C107.699 51.4346 106.899 50.326 105.033 50.9575C105.005 50.3681 104.962 50.0594 105.033 49.6384C105.341 49.5682 106.282 48.8104 107.222 47.7018C107.881 46.944 108.499 46.074 108.92 44.9654C109.2 44.7549 109.678 44.404 110.309 43.9971C111.207 43.3796 112.288 42.5376 112.456 41.5974C112.035 41.7658 111.137 42.1868 109.79 42.1167C110.309 41.8781 111.109 41.6255 111.011 40.587C111.221 40.4467 111.39 40.3485 111.39 40.3485C111.39 40.3485 111.221 40.2783 110.898 40.2783C110.87 40.1801 110.828 40.0398 110.59 40.1099C110.351 40.1801 110.309 40.1801 110.281 40.2783C110.183 40.3064 109.86 40.2783 109.621 40.4467C109.383 40.6151 108.723 41.1764 108.471 41.2747C108.569 41.1063 108.709 40.8537 108.709 40.8537C108.709 40.8537 108.022 40.9238 107.53 41.1343C106.632 41.4431 105.594 42.0044 104.541 42.5517C104.64 42.3833 104.682 42.271 104.752 42.243C104.822 42.2149 104.991 42.1728 104.991 42.1447C104.991 42.1167 104.92 41.8641 104.962 41.7658C104.99 41.6676 105.58 40.5169 106.071 39.8573C106.562 39.1978 106.66 38.2576 106.66 38.2576L108.808 37.177L114.842 35.7877L118.757 36.0263L118.266 38.7347L115.95 43.4638L113.972 47.772L111.712 50.4102L109.635 51.9258Z"/><path fill="#FFD8B3" d="M119.416 40.2082C119.416 40.2082 117.059 43.1271 116.399 43.5761C116.82 42.678 119.416 37.3314 120.356 35.8439C120.146 35.6755 119.865 35.6755 120.525 33.0654C119.963 34.3845 119.767 35.0721 119.304 35.4229C118.855 35.7737 118.785 35.6615 118.476 35.6615C118.574 35.4931 118.546 35.3106 118.546 35.3106C118.546 35.3106 116.567 35.0721 115.22 35.0721C113.873 35.0721 111.193 35.8018 109.705 36.3912C108.526 36.8824 107.867 36.8824 107.446 37.1911C107.025 37.5419 106.786 37.9208 106.576 38.019C106.407 38.1173 105.608 38.3699 105.425 38.6365C105.257 38.9172 104.976 39.2259 104.976 39.296C104.976 39.3662 104.906 39.4644 105.116 39.3943C105.187 39.3662 105.706 39.0855 106.295 38.7347C107.095 38.2857 108.063 37.7664 108.765 37.4577C110.772 36.6578 111.403 36.7982 112.301 36.6298C113.242 36.4614 114.589 36.0684 115.487 36.0684C116.385 36.0404 118.083 36.0684 118.476 36.1386C118.308 36.2789 118.167 36.4473 118.237 37.0367C118.237 37.2051 118.097 37.3875 117.957 37.7945C117.536 38.9452 116.736 40.8537 116.287 41.822C115.669 43.1411 114.968 44.2497 114.617 44.9373C114.266 45.625 113.508 47.4352 112.75 48.4035C111.993 49.3718 111.6 49.9612 111.361 50.1717C111.123 50.3822 109.425 51.6311 109.551 52.0802C109.86 51.982 111.81 51.2522 113.228 49.6525C114.645 48.0527 114.926 47.0844 116.034 46.2144C117.143 45.3443 118.013 43.8849 118.532 42.678C118.967 41.5554 118.869 41.2045 119.416 40.2082Z"/><path fill="#FFD8B3" d="M68.6026 61.9874C68.6026 61.9874 68.2939 63.2644 67.5923 63.8959C66.9046 64.5134 65.6838 65.0466 65.5434 66.0851C65.375 67.1235 66.7643 67.6428 66.7643 67.6428C66.7643 67.6428 66.0065 68.8917 66.0065 69.8319C66.0065 70.8002 65.9785 70.9826 66.0767 71.9088C65.9083 72.0071 65.796 72.1895 65.796 72.1895C65.796 72.1895 65.8662 73.0876 66.5538 73.6489C67.2414 74.2103 67.8308 74.5471 68.1817 74.4067C68.2518 74.5471 68.322 74.7575 68.322 74.7575C68.322 74.7575 68.8412 73.4384 69.192 72.2877C69.5429 71.1089 69.8516 71.2773 69.9919 69.6916C70.1323 68.0918 71.6619 65.3834 71.6619 65.3834L72.7003 63.054L71.0023 61.7348L68.6026 61.9874Z"/><path fill="#FFD8B3" d="M71.76 64.2749C71.76 64.2749 71.2408 64.7942 70.7917 65.4257C70.3427 66.0431 69.9919 66.6044 69.3323 66.843C68.6728 67.0816 68.2518 67.0816 68.2939 67.7411C68.336 68.4007 68.9534 68.6813 69.3042 69.0181C69.6831 69.369 69.9919 69.9583 69.8235 70.6179C70.034 70.5197 70.4129 70.4074 70.7637 69.6496C71.1145 68.8918 73.5703 64.2749 73.5703 64.2749H71.76Z"/><path fill="#FFD8B3" d="M81.4288 53.6238C81.4288 53.6238 81.6393 53.0625 81.4288 52.6555C81.2183 52.2345 79.9412 52.0942 79.3098 51.6171C78.6502 51.1259 77.8503 50.7891 77.1908 50.9996C77.289 50.761 77.6819 50.2418 77.3592 50.1295C77.0504 50.0313 75.8997 50.5505 75.591 50.7891C75.2823 51.0277 74.5806 51.3083 74.4403 51.4767C74.2999 51.6451 74.0614 51.9679 73.9211 51.8275C73.7807 51.7293 73.7106 51.4767 73.472 51.6171C73.2334 51.7574 72.0827 52.6976 71.8722 53.2449C71.6617 53.7922 71.1846 55.0131 69.7532 56.4023C68.3359 57.7916 67.7044 58.6897 68.1254 59.209C68.5464 59.7282 68.7428 59.3493 68.813 59.7983C68.8411 60.0088 68.8832 60.5561 68.7428 61.1175C68.5744 61.8472 68.2938 62.5348 68.6727 62.6751C69.641 62.9839 70.5812 62.3945 70.7917 62.5769C71.2127 62.9558 70.5531 64.317 71.5495 64.5836C72.5598 64.8643 73.5562 64.3451 73.5562 64.3451L77.2329 62.3664L80.7692 60.5L82.5795 56.9216L81.6112 53.9325L81.4288 53.6238Z"/><path fill="#FFD8B3" d="M77.9622 62.1698C77.9622 62.1698 77.3448 61.2296 78.1026 60.4017C78.8604 59.5737 79.9409 59.2229 80.3619 58.7037C80.2216 58.5353 80.0532 58.4932 80.0532 58.4932C80.0532 58.4932 80.4321 57.7354 81.2741 57.3424C81.0636 57.1319 80.7829 56.9635 80.4742 56.9635C79.7865 56.9635 79.3656 57.3845 78.7341 57.3845C78.1166 57.3845 78.0464 57.0758 78.0464 57.0758C78.0464 57.0758 79.0849 56.9776 78.9867 56.5145C78.8884 56.0233 78.706 56.0233 78.706 56.0233C78.706 56.0233 80.7127 55.1954 81.0636 54.7463C81.4144 54.2973 81.3723 53.778 81.4425 53.5675C81.681 53.5675 83.0703 52.8378 83.6316 53.1465C84.1929 53.4553 83.8 54.2973 83.8 54.2973C83.8 54.2973 85.498 53.0202 86.3681 51.7713C87.1259 51.8415 87.4767 51.2521 88.038 51.2521C88.7256 51.2521 89.8062 52.1923 90.0167 54.199C90.157 55.3497 90.3675 56.0093 90.157 58.0441C90.0588 59.1948 90.0868 61.6506 90.4377 62.8715C90.6762 63.8398 91.2375 63.7415 91.2375 63.7415C91.2375 63.7415 91.1393 64.1625 90.7464 64.4993C90.3675 64.8501 90.3254 65.7763 90.3675 66.1272C90.4377 66.478 90.578 66.8849 90.578 66.8849C90.578 66.8849 90.1289 67.4042 90.0167 67.755C89.9184 68.1058 89.4553 68.3444 89.1186 68.3444C88.7677 68.3444 88.9501 68.3163 88.5011 68.3444C88.052 68.3724 87.9117 68.4426 87.631 68.3444C87.3504 68.2461 87.1399 68.1339 87.2522 67.2358C87.3504 66.3376 83.786 64.2467 83.786 64.2467L77.9622 62.1698Z"/><path fill="#FFD8B3" d="M71.2684 71.0389C71.2684 71.0389 72.5454 72.7369 77.7938 72.7369C80.2917 72.7369 81.1618 72.4983 81.681 72.358C82.2423 72.2176 84.3473 71.3897 86.4663 68.8918C88.3748 66.6325 87.9538 65.7063 87.9538 65.7063L86.8452 65.5379L83.2386 66.029L72.5595 70.5758L71.2684 71.0389Z"/><path fill="#FFD8B3" d="M75.184 71.4599C75.184 71.4599 70.6373 72.4703 70.6373 69.5935C70.6373 66.7869 73.4439 63.8399 74.1456 63.3207C74.8753 62.8015 76.6154 62.2121 76.6154 62.2121H80.8113L81.6112 64.3311L81.2604 68.9059L75.184 71.4599Z"/><path fill="#FFD8B3" d="M79.38 63.068C79.38 63.068 78.5099 62.2681 76.5312 63.3486C74.5526 64.4292 72.9528 66.6745 72.8546 68.7233C72.7563 70.5336 74.3421 71.8807 76.8119 71.9509C78.6502 72.0211 79.7589 71.8106 80.3202 71.6702C80.1799 71.5018 79.4501 70.5897 79.4501 70.5897L79.38 63.068Z"/><path fill="#FFD8B3" d="M78.5237 63.5171C78.5237 63.5171 78.3132 63.3487 77.6958 63.6855C77.1766 63.9662 76.4188 64.6959 75.8294 65.2151C75.4505 65.5239 75.2119 65.6642 75.0014 65.9028C74.1314 66.9412 73.4017 68.6392 73.8226 69.4812C74.2436 70.3091 75.6329 71.2915 79.1693 70.6319L78.5237 63.5171Z"/><path fill="#FFD8B3" d="M77.3729 65.2572C77.3729 65.2572 76.8116 66.1272 76.8116 67.5165C76.8116 68.9338 77.6115 71.1932 80.5584 71.3616C82.8177 71.5019 84.3333 68.1059 85.9752 66.7868C87.2241 65.7764 87.9819 65.7483 87.9819 65.7483C87.9819 65.7483 86.7049 64.359 83.2949 62.5628C79.9269 60.7525 76.152 60.514 74.1032 63.2925C75.0715 63.2224 78.2009 62.4225 78.2009 62.4225L79.7305 62.9136L77.3729 65.2572Z"/><path fill="#FFD8B3" d="M81.7791 67.0955C81.6809 66.885 81.6107 66.6044 82.0177 66.5342C82.4386 66.464 82.607 66.5061 82.7474 66.8149C82.8877 67.1236 83.028 67.3762 82.8175 67.5025C82.607 67.6148 82.0598 67.5025 81.7791 67.0955ZM81.1195 65.1169C81.1195 65.1169 80.9792 65.2151 81.0494 65.0186C81.0774 64.7801 81.2599 64.3591 81.7089 64.4573C82.158 64.5555 82.0598 65.0467 81.9896 65.187C81.9194 65.3274 81.5405 65.5659 81.2599 65.4677C80.9792 65.3695 81.1195 65.1169 81.1195 65.1169Z"/><path fill="#FFD8B3" d="M43.1325 66.0149C43.1325 66.0149 44.2411 66.8429 45.5321 66.8148C46.8091 66.7867 48.451 65.4676 49.2088 64.6256C49.6578 64.1345 50.0367 63.6152 50.4577 63.2083C50.8086 62.8575 51.0471 62.6891 51.2155 62.4505C51.4541 62.1698 51.7067 61.6506 51.833 61.4822C51.5242 61.7208 51.0752 62.1418 50.6121 62.4224C50.163 62.7031 49.1947 63.2223 48.8018 63.3627C48.4229 63.503 44.4937 65.5799 44.4937 65.5799L43.1325 66.0149Z"/><path fill="#FFD8B3" d="M44.8303 55.6446C44.8303 55.6446 45.4478 55.2236 46.6406 54.9569C47.7913 54.6763 50.1067 54.4658 50.1067 54.4658L52.0152 55.2937L52.773 58.1705L51.3837 61.1596L49.6156 62.2682L47.6088 59.0406L44.8303 55.6446Z"/><path fill="#FFD8B3" d="M42.3326 58.2126L41.673 58.7038C41.673 58.7038 41.8414 58.3951 41.9817 57.4548C42.1221 56.5146 42.8518 54.2272 43.9183 52.9081C44.9848 51.589 44.9567 51.6592 44.9567 51.6592C44.9567 51.6592 44.648 51.589 44.3954 51.7995C44.5358 51.4908 45.4339 50.3822 46.332 49.8208C47.2301 49.2595 47.5809 49.0911 48.5212 49.5402C49.4614 49.9892 49.6999 50.2278 50.3876 50.1997C51.0752 50.1717 51.6646 49.4419 51.6646 49.4419C51.6646 49.4419 51.8049 49.891 51.2857 50.9295C50.7665 51.9679 48.7176 54.0869 48.7176 54.0869L44.4516 57.0058L42.3326 58.2126Z"/><path fill="#FFD8B3" d="M45.4898 55.2936C45.4898 55.2936 48.5771 55.7146 49.5173 54.8446C49.5454 54.9428 49.6577 54.9428 49.6577 55.013C49.6577 55.0832 49.5875 55.1533 49.5875 55.1533C49.5875 55.1533 49.7559 55.1253 49.8962 55.1253C50.0366 55.1533 50.1348 55.1954 50.2751 55.1954C50.4154 55.1954 50.5838 55.1674 50.5838 55.1674C50.5838 55.1674 50.5558 55.4059 50.3733 55.5182C50.5137 55.5182 50.654 55.5462 50.654 55.6585C50.654 55.7708 50.6821 56.1076 50.5137 56.1777C50.3032 56.2479 50.0927 56.1497 50.0927 56.1497C50.0927 56.1497 50.0927 56.5286 50.3032 56.9075C50.5838 57.4267 51.1732 58.0161 51.9731 57.8477C51.9731 57.8477 52.3941 58.8581 50.6259 61.1033C50.3874 61.4121 50.1348 61.8331 49.8261 62.1839C49.5875 62.7452 49.5454 63.0118 49.5454 63.0118C49.5454 63.0118 52.5344 61.8611 53.3905 59.2369C54.2605 56.5987 54.4289 54.0026 54.2605 51.5749C54.2324 50.8873 54.1202 50.3961 53.9518 50.0453C53.5308 49.1752 52.352 49.3156 51.8749 49.8067C51.1873 50.4943 50.0365 52.2064 48.4368 53.3852C46.8089 54.5639 46.7388 54.7744 45.4898 55.2936Z"/><path fill="#FFD8B3" d="M41.7854 59.0826C41.7854 59.0826 41.196 59.4335 40.8873 60.7526C40.5786 62.0998 41.1679 63.7416 41.5047 64.2609C41.8556 64.7801 42.6134 66.1974 44.2131 66.2676C44.564 66.2676 44.9709 66.1974 45.3638 66.029C45.9252 65.7905 46.4725 65.4116 46.9215 65.0607C47.6091 64.5415 48.1705 64.0925 48.1003 64.0504C47.9319 63.9802 43.8623 60.6123 43.8623 60.6123L42.3327 58.9002L41.7854 59.0826Z"/><path fill="#FFD8B3" d="M45.6304 64.6678C45.6304 64.6678 46.4584 64.5976 46.9495 64.2889C47.4407 63.9801 44.0727 60.6403 44.0727 60.6403L44.3113 64.2468L45.6304 64.6678Z"/><path fill="#FFD8B3" d="M42.0516 58.83C42.0516 58.83 41.6306 59.6299 41.6306 59.8404C41.5604 60.528 41.7709 62.6891 41.9393 63.3768C42.1077 64.1065 43.0199 65.2151 44.1987 65.2151C44.9284 65.2151 45.9388 64.766 45.9388 64.6538C45.9388 64.5134 44.9003 64.3731 44.6197 63.8539C44.4513 63.5732 44.3811 62.8856 44.339 62.1839C44.3109 61.7349 44.3109 61.2437 44.4793 61.0753C44.8582 60.6543 44.9284 59.4475 44.9284 59.4475L46.2756 56.9496H44.5074L42.3884 58.2687L42.0516 58.83Z"/><path fill="#FFD8B3" d="M41.5326 59.6019C41.5326 59.6019 42.9219 57.7635 44.1709 57.3426C45.4198 56.9216 45.9811 57.1742 45.9811 57.1742L45.2514 59.0406L44.213 60.1913L44.2831 60.7807C44.2831 60.7807 44.1147 62.3383 45.1532 63.4189C46.1916 64.4994 46.9634 64.4573 47.4125 64.4573C47.8616 64.4573 49.1526 64.0784 49.8122 62.5208C50.4015 61.0613 50.8927 59.1949 49.7139 57.3145C48.5632 55.4481 46.5284 55.3779 46.1355 55.3779C45.7426 55.392 42.6553 55.5323 41.5326 59.6019Z"/><path fill="#FFD8B3" d="M77.1625 65.8466C76.6432 65.608 77.1344 64.1486 77.6536 63.6995C78.1728 63.2505 78.8324 62.7312 79.9831 62.6611C80.4041 62.633 80.8111 62.8996 80.7409 63.1803C80.6427 63.6995 79.913 64.4292 79.2534 64.9485C78.3413 65.6641 77.7519 66.1132 77.1625 65.8466Z"/><path fill="#FFD8B3" d="M49.0963 57.8898C49.4752 57.8617 49.9663 58.1704 50.0645 58.5774C50.1628 59.0265 49.826 59.9246 49.0963 59.9246C48.5069 59.9246 48.1981 59.1949 48.1981 58.9844C48.1981 58.7739 48.2964 58.5634 48.3385 58.4932C48.3665 58.4511 48.4367 57.9599 49.0963 57.8898Z"/><path fill="#FFD8B3" d="M43.6233 58.2125C43.6233 58.2125 42.655 58.6616 42.2059 59.6018C41.7569 60.542 41.8551 61.4682 41.9253 61.819C41.9954 62.1699 42.3463 63.0399 42.5848 63.3487C42.8234 63.6574 43.1462 63.8679 43.3847 63.8398C43.6233 63.8118 44.1144 63.1803 44.1144 62.8014C44.1144 62.4225 44.1425 60.8227 44.6056 59.9526C45.0126 59.0826 43.6233 58.2125 43.6233 58.2125Z"/><path fill="#FFD8B3" d="M43.7637 58.1424C43.5953 58.2407 43.3146 58.381 43.3848 58.5634C43.455 58.7318 44.0444 58.8441 44.2549 59.2511C44.4934 59.6721 44.4934 60.1211 44.4232 60.3316C44.4934 60.3035 44.7039 60.1913 44.9144 59.9808C45.2231 59.63 45.602 59.1528 45.9248 59.1528C46.1353 59.1528 46.3458 59.2511 46.5422 59.2511C46.851 59.2511 47.1597 59.1528 47.2018 58.8301C47.272 58.4091 46.6124 58.0302 46.2335 58.1003C46.3037 57.8197 46.4019 57.4127 46.0932 57.1321C45.7845 56.8514 44.8162 57.3426 44.6057 57.4829C44.3811 57.6232 43.7637 58.1424 43.7637 58.1424Z"/><path fill="#FFD8B3" d="M66.0628 87.626L68.1397 87.0085L68.7291 87.4295C68.7291 87.4295 69.1501 88.3276 69.8096 88.4399C69.5991 88.8889 69.0519 89.2678 69.0799 89.5906C69.108 89.9133 69.3887 90.1519 69.3887 90.1519C69.3887 90.1519 67.5223 93.2392 71.1989 96.3545C70.3289 96.7054 69.2203 97.1825 68.6309 97.4631C69.0519 97.5614 69.95 97.7438 70.3289 98.0806C70.7078 98.4314 70.7078 98.5297 71.0586 98.7402C71.4094 98.9507 71.6199 99.2313 71.5498 99.3576C71.3112 99.2173 70.5113 98.7963 70.371 99.1892C70.2306 99.5681 66.9048 99.4278 66.9048 99.4278L61.2916 100.508C61.2916 100.508 61.5021 99.947 60.9127 99.4278C60.225 98.8103 59.3831 99.4558 58.4849 98.7682C57.3062 97.8701 57.2641 96.8317 56.8852 96.4387C57.2641 96.2002 58.0359 95.8493 59.8742 95.6108C59.8041 95.4704 59.5655 95.0495 59.7058 94.6706C59.8742 94.1794 60.5759 93.8707 60.3654 93.2813C60.6741 93.2111 60.8144 93.2111 61.5863 92.2428C62.316 91.2745 62.765 91.0641 63.3264 90.9939C63.8877 90.9237 64.2245 90.9939 65.2629 90.0256C65.9926 89.338 65.7541 88.7486 65.7541 88.7486C65.7541 88.7486 66.2312 88.5942 66.0628 87.626Z"/><path fill="#FFD8B3" d="M59.9296 87.9347C59.9577 87.7943 60.07 87.7242 60.8277 87.7943C61.5855 87.8645 66.3848 87.3453 67.6899 87.2751C69.009 87.1769 73.654 87.2471 75.9133 87.7242C78.1726 88.2013 80.46 88.7626 81.5687 89.0433C82.6773 89.352 83.0281 89.4643 82.986 89.6046C82.9579 89.7449 82.7053 89.8853 82.565 89.8432C82.4247 89.8151 78.748 88.6925 77.6113 88.4539C76.4746 88.2153 72.5454 87.5838 70.3983 87.6259C68.3916 87.654 67.5917 87.5979 65.8937 87.7943C64.1957 88.0048 61.3891 88.2855 60.5471 88.1732C59.7191 88.075 59.8875 88.075 59.9296 87.9347Z"/><path fill="#FFD8B3" d="M71.2266 98.9366C71.2266 98.9366 74.1034 100.494 75.1418 102.403C75.8996 103.82 74.6928 104.522 74.6928 104.522C74.6928 104.522 76.3206 104.522 76.1101 105.42C76.0119 105.981 73.3035 107.497 71.4932 108.297C69.6549 109.097 69.7251 109.055 68.827 109.195C67.9569 109.335 65.5713 108.914 65.0801 109.616C64.589 110.303 64.7995 111.033 64.9398 111.145C65.0801 111.244 66.2168 111.384 66.2168 111.384C66.2168 111.384 65.9782 112.044 63.6207 112.114C61.2631 112.184 60.6737 112.352 60.5334 112.605C60.3931 112.843 60.9825 112.703 62.063 112.886C63.1436 113.054 64.6591 113.166 64.6591 113.166C64.6591 113.166 64.168 113.587 62.891 113.924C61.4315 114.303 59.1441 114.654 58.4565 115.075C58.8073 115.313 59.3266 115.664 59.5651 115.692C58.9757 115.832 58.1478 116.141 58.0074 116.253C58.2179 116.394 58.4986 116.562 58.4986 116.562C58.4986 116.562 57.3198 117.98 56.6322 118.33C55.9446 118.681 51.9872 120.52 50.626 120.169C47.23 119.271 46.809 115.552 45.9811 115.271C44.7321 114.85 44.1427 115.692 43.0341 115.103C43.5253 114.752 43.7919 114.541 44.3111 114.303C43.7498 114.022 40.845 112.184 40.845 112.184C40.845 112.184 40.4941 111.384 39.8346 110.247C39.2733 109.279 38.4453 107.988 37.8279 106.851C36.4807 104.353 36.4105 103.203 35.1896 101.785C35.4001 101.505 36.1299 101.547 36.1299 101.547L46.36 104.915L64.5048 105.434L69.2199 98.6981L71.2266 98.9366Z"/><path fill="#FFD8B3" d="M44.3535 109.209C44.3535 109.209 44.4938 109.377 44.7324 109.518C45.0832 109.756 45.6024 110.037 45.9533 110.458C46.0936 110.247 46.4444 109.868 47.0619 110.458C47.6793 111.047 48.4511 110.626 48.9283 110.767C49.4194 110.935 49.4475 111.005 49.4475 111.005C49.4475 111.005 49.7282 110.767 50.3456 110.514C50.7245 110.374 51.1736 110.275 51.6647 110.135C52.1138 110.037 52.6049 109.896 52.9417 109.896C53.2505 110.107 54.3591 111.286 58.8076 109.546C63.0035 107.918 63.9717 107.735 64.6734 107.988C64.7436 107.82 64.8137 107.497 65.8943 107.539C65.8943 107.09 64.9962 105.56 64.9962 105.56L60.0425 103.862H57.3341L49.2089 105.35L44.7043 107.918L44.3535 109.209Z"/><path fill="#FFD8B3" d="M41.6446 106.36C41.6446 106.36 41.7428 107.118 42.8655 107.918C43.9741 108.718 44.3249 109.195 44.3249 109.195C44.3249 109.195 44.5354 108.914 44.7038 108.633C44.8722 108.325 45.0125 107.974 45.2932 107.876C45.8545 107.637 47.1315 108.086 47.4122 108.016C47.6507 107.946 47.5806 107.455 47.8332 107.455C48.4226 107.427 48.8015 107.834 49.012 107.834C49.2225 107.834 49.7417 107.806 49.8118 107.693C49.882 107.581 49.9101 106.416 50.71 105.855C51.58 105.237 52.6465 105.504 52.9272 105.644C52.9272 105.855 52.9553 106.374 53.5166 106.402C54.0779 106.43 54.134 106.332 54.6252 106.5C55.1163 106.669 55.7057 106.472 55.9724 107.3C56.2109 107.23 56.7723 107.16 56.6319 106.36C56.9126 106.15 57.1511 106.009 57.7405 105.181C57.8809 104.971 58.1194 104.732 58.3019 104.424C58.793 104.424 59.3824 104.325 60.1683 105.013C59.9297 105.181 59.7894 105.294 59.7192 105.462C59.7894 105.532 60.07 105.813 60.2805 106.122C60.491 106.402 60.6314 106.739 60.898 106.809C61.4874 106.978 62.4557 106.739 63.5362 106.809C64.5746 106.879 65.4447 107.258 65.8236 107.497C65.9639 107.427 65.9639 107.399 66.3148 107.469C66.6656 107.539 66.9322 107.567 66.5533 107.118C66.7638 107.216 67.0024 107.427 67.2129 107.216C67.4234 107.006 67.5918 106.697 68.1812 106.627C68.7705 106.557 68.981 106.655 69.2196 106.037C69.5283 105.28 68.4618 105.28 68.4618 105.28C68.4618 105.28 68.953 104.831 69.5003 104.241C70.1598 103.624 70.9176 102.824 71.1 101.841C71.4088 100.031 69.6406 99.7927 69.6406 99.7927L61.0664 102.431L50.5837 101.912L41.6446 106.36Z"/><path fill="#FFD8B3" d="M33.941 81.5917C33.941 81.5917 33.6603 81.9425 33.4919 82.7705C33.3235 83.5984 33.3937 83.5002 33.2534 84.0896C33.113 84.679 31.387 90.5448 32.0325 92.5235C32.678 94.5021 33.8006 95.2319 34.5023 96.8316C34.6426 97.1825 34.783 97.393 34.8531 97.7017C35.0917 98.7401 34.8812 99.54 35.1619 100.578C35.2601 100.929 35.5127 101.336 35.8916 101.757C36.7195 102.627 38.0807 103.455 38.6701 104.045C39.4981 104.915 40.6769 106.683 42.1784 106.851C42.9783 106.95 44.115 106.613 45.0552 106.051C45.8831 105.532 46.4024 104.802 47.2724 104.381C47.8899 104.073 48.5494 103.96 49.1388 103.82C50.3597 103.582 51.4683 103.539 52.1279 103.68C53.1382 103.89 55.5239 104.62 56.843 104.62C57.3622 104.62 58.5831 104.55 59.9022 104.199C61.9089 103.61 64.3366 102.599 65.9364 102.15C66.8766 101.87 67.6344 101.799 68.4062 101.631C69.7254 101.322 70.834 100.901 71.4655 100.101C71.0445 99.6102 70.5252 98.8524 67.7186 98.8805C64.5331 98.9506 60.8564 100.719 59.0462 100.999C57.2359 101.28 56.4501 101.519 54.4293 100.789C52.4506 100.059 52.3805 99.5681 52.3805 99.5681C52.3805 99.5681 50.3036 98.1087 49.4335 94.4039C48.5635 90.6852 49.4335 87.9908 51.6928 85.4227C52.2822 84.7632 52.1419 84.1738 52.1419 84.1738C52.1419 84.1738 53.6294 82.1671 53.2224 80.2866C52.7734 78.4202 49.8966 78.7991 49.8966 78.7991L33.941 81.5917Z"/><path fill="#FFD8B3" d="M36.3404 87.8364C36.3404 87.8364 36.1299 88.2153 36.172 88.5942C36.2001 88.9731 36.3124 89.4642 37.449 90.5728C38.4173 91.5411 38.2068 92.6217 38.2068 92.6217C38.2068 92.6217 38.698 92.7199 40.0171 92.1024C41.0555 91.6113 41.4064 92.4813 41.4064 92.4813C41.4064 92.4813 41.8274 92.2428 42.3747 92.1726C42.936 92.1024 43.2447 91.8919 43.2447 91.8919C43.2447 91.8919 44.4656 93.1409 45.5321 93.7303C46.5004 94.2495 47.0617 94.6003 47.5388 94.2495C47.9879 93.9408 47.9879 93.3093 47.9598 93.0286C47.9598 93.0286 47.8195 92.6778 47.5388 92.2989C47.2301 91.8498 46.739 91.3306 46.7109 90.9096C46.6407 89.9413 47.4406 88.7906 47.2722 88.51C47.1038 88.2293 46.4723 88.1592 44.9146 88.7205C43.3008 89.2537 36.3404 87.8364 36.3404 87.8364Z"/><path fill="#FFD8B3" d="M40.017 94.1092C40.017 94.1092 39.2171 93.3514 39.4977 89.6748C39.9187 89.6467 40.5081 89.773 40.5081 89.773C40.5081 89.773 40.9431 92.6217 40.017 94.1092Z"/><path fill="#FFD8B3" d="M34.3196 78.7851C34.3196 78.7851 34.46 78.6868 34.6284 78.5044C34.3477 79.0236 33.0707 81.1005 34.1091 84.3702C35.1476 87.6259 37.7577 90.0536 40.9713 90.1659C44.1849 90.2782 45.8689 88.7065 47.8054 86.3489C48.5632 85.4087 49.4333 84.2299 50.2051 83.43C51.3558 82.1811 52.2539 81.8303 52.2539 80.6234C52.2539 78.1536 49.728 77.045 46.0092 75.9364C42.2904 74.8278 38.9365 74.9681 37.1964 75.7259C35.4984 76.5538 34.7687 77.4239 34.3196 78.7851Z"/><path fill="#FFD8B3" d="M46.2613 95.2178L46.542 95.0774C46.542 95.0774 46.6121 93.9688 47.0612 93.9969C47.5103 94.0671 47.7208 94.6565 47.6787 94.867C47.6506 95.0774 47.5383 95.4283 47.0893 95.3862C46.4999 95.4002 46.2613 95.2178 46.2613 95.2178Z"/><path fill="#FFD8B3" d="M45.0124 90.5028C45.0124 90.5028 45.2931 90.4046 45.6299 90.7414C45.9106 90.7414 47.1174 90.601 47.4963 90.8396C47.8752 91.0781 47.9875 91.2886 47.9875 91.2886C47.9875 91.2886 46.5701 91.5974 45.7983 91.2886C45.0124 91.022 45.0124 90.5028 45.0124 90.5028Z"/><path fill="#FFD8B3" d="M51.2576 90.7132C51.2576 90.643 50.4998 90.1238 49.6999 89.9554C49.5596 89.9273 49.5315 90.0256 49.4192 90.0256C49.3491 89.9975 49.321 89.787 49.321 89.787L48.8719 90.0256C48.8719 90.0256 48.8018 90.1238 49.0403 90.3062C49.2508 90.4746 49.6017 90.615 49.6999 90.8956C49.7981 91.1763 49.7981 91.2745 49.8402 91.3166C49.8683 91.3447 50.3595 91.3166 50.598 91.1763C50.8366 91.0219 51.2856 90.8114 51.2576 90.7132Z"/><path fill="#FFD8B3" d="M44.1708 93.5619C44.1708 93.5619 44.3111 92.5936 45.2513 92.5515C46.2196 92.4814 46.402 93.4216 46.402 93.4216L45.8407 93.9829C45.8407 93.9689 45.4197 93.3795 44.1708 93.5619Z"/><path fill="#FFD8B3" d="M50.2752 89.394C50.2752 89.394 49.756 89.9554 48.6053 90.1238C48.507 89.9834 48.2965 89.7028 48.6053 89.2537C48.914 88.8046 49.2648 88.6643 49.6156 88.8046C49.9665 88.8748 50.205 89.1134 50.2752 89.394Z"/><path fill="#FFD8B3" d="M52.3945 90.0818C52.4225 89.9414 52.3243 89.9134 52.3945 89.8432C52.4646 89.773 52.8435 89.6327 52.9137 89.7029C52.9418 89.7309 52.9137 89.8432 52.9137 89.9835C52.9137 90.1239 52.9137 90.2642 52.8435 90.3624C52.7453 90.5028 52.4646 90.5729 52.3243 90.5308C52.184 90.5027 52.1559 90.2923 52.1559 90.2502C52.2261 90.2221 52.3945 90.1519 52.3945 90.0818ZM54.7941 88.5662C54.7941 88.496 55.0327 88.3557 55.173 88.3557C55.3835 88.3557 55.3835 88.5241 55.4116 88.5662C55.4818 88.5943 55.4818 88.5381 55.5519 88.6644C55.6221 88.8047 55.7203 89.0152 55.6502 89.1556C55.58 89.2959 55.2993 89.3941 55.2292 89.3661C55.1309 89.2959 54.8222 88.6644 54.7941 88.5662Z"/><path fill="#FFD8B3" d="M49.9668 90.4045C49.9668 90.4045 50.2755 90.4746 50.6965 90.8255C50.5561 90.9237 50.3456 91.036 50.3456 91.036C50.3456 91.036 50.3176 90.7132 49.9668 90.4045Z"/><path fill="#FFD8B3" d="M49.2788 87.3172C49.2087 87.247 49.4893 87.0786 49.6577 87.1067C49.8261 87.1348 49.8963 87.247 50.0787 87.2751C50.2611 87.3032 50.2892 87.2049 50.3594 87.1348C50.4295 87.0646 50.6681 87.1067 50.7102 87.1348C50.7383 87.1628 50.7804 87.233 50.7804 87.233C50.7804 87.233 50.7804 87.0646 50.9207 86.9523C51.061 86.8541 51.2014 86.8541 51.2996 86.8822C51.3277 86.9804 51.468 87.3312 51.4399 87.4014C51.4119 87.4716 50.9909 87.5698 50.9207 87.4996C50.9909 87.668 51.2996 88.0189 51.3417 88.089C51.3698 88.1592 51.033 88.3276 50.8926 88.2995C50.6962 88.2855 49.4893 87.5838 49.2788 87.3172ZM51.1172 84.9877C51.1172 84.9877 51.0891 84.8895 50.9768 84.8193C50.8786 84.7912 50.5558 84.8193 50.5558 84.9877C50.5558 85.1561 50.8365 86.0963 51.1452 86.5875C51.4961 87.0786 51.7346 87.4856 51.9732 87.5979C52.2117 87.6961 52.3521 87.5277 52.3942 87.4575C52.4222 87.3874 52.4924 86.8681 52.4643 85.6473C52.4363 84.4264 52.3942 83.2476 52.324 83.1774C52.2538 83.1073 51.9732 83.1073 51.8749 83.2476C51.7767 83.3879 51.1452 84.7772 51.1172 84.9877Z"/><path fill="#FFD8B3" d="M49.8679 92.1727C49.8679 92.1727 49.3768 91.8639 48.8997 92.0744C48.4506 92.2849 48.4787 93.1129 48.4787 93.1129C48.4787 93.1129 48.7874 93.2532 49.0961 93.0427C49.4048 92.8322 49.7978 92.4814 49.8679 92.1727Z"/><path fill="#FFD8B3" d="M50.7944 93.2813C50.7664 93.0006 50.5138 93.0006 50.5138 92.8603C50.5418 92.72 50.6822 92.6217 50.8225 92.6217C50.9628 92.6217 51.1031 92.7901 51.2715 92.9024C51.4399 93.0006 51.6925 93.1831 51.7206 93.3936C51.7487 93.6041 51.4399 94.1934 51.1031 94.1934C50.7663 94.1794 50.8646 93.562 50.7944 93.2813ZM53.5028 92.9024C53.5028 92.9024 52.9415 93.0708 52.9836 92.9024C53.0116 92.734 53.152 92.6919 53.3344 92.6919C53.4046 92.6217 53.5449 92.5235 53.6852 92.5235C53.8256 92.5235 53.8957 92.5937 53.8957 92.5937C53.8957 92.5937 54.2746 92.4253 54.3869 92.5235C54.4851 92.6217 54.415 92.6217 54.4851 92.734C54.5553 92.8322 54.6535 93.0427 54.6535 93.155C54.6535 93.2673 54.2325 93.5058 53.8957 93.4637C53.5028 93.3795 53.573 92.9726 53.5028 92.9024ZM56.7725 92.2709C56.7725 92.2709 56.9409 92.3691 56.8006 92.4814C56.7023 92.5796 56.2112 92.7621 55.7902 92.7901C55.3692 92.7901 54.9903 92.8603 54.9903 92.72C54.9903 92.5796 55.3411 92.299 55.5516 92.2288C55.6218 92.1306 55.7621 92.0604 55.9025 92.0604C56.0709 92.0604 56.7304 91.9902 56.9128 91.9622C57.0812 91.9341 57.2216 92.0323 57.1233 92.1727C57.0812 92.2709 56.7725 92.2709 56.7725 92.2709ZM57.7408 87.9347C57.7408 87.9347 57.5303 88.3837 57.2917 88.3837C57.0532 88.3557 57.0532 88.2855 57.0532 88.2154C57.0532 88.1171 57.2917 87.8645 57.2637 87.7944C57.1935 87.7944 57.0251 87.7944 57.0532 87.626C57.0532 87.4856 57.2917 87.3172 57.5022 87.3453C57.5724 87.2751 57.811 87.1348 58.0636 87.1348C58.3021 87.1348 58.5126 87.205 58.5126 87.3453C58.5126 87.4856 58.232 87.7944 58.1337 87.8645C58.0215 87.9768 57.8811 88.047 57.7408 87.9347ZM54.5412 96.2282C54.5412 96.2282 54.2606 96.2563 54.2606 96.3966C54.2606 96.4668 54.3308 96.4668 54.429 96.4247C54.4992 96.4247 54.5974 96.3966 54.5974 96.3966C54.6255 96.4247 54.6254 96.565 54.8359 96.565C54.9342 96.565 55.1447 96.4949 55.3271 96.3966C55.4955 96.3265 55.6358 96.2563 55.6358 96.116C55.5657 95.8774 55.4253 95.7652 55.2148 95.7652C55.0043 95.7652 54.9061 95.8353 54.9061 95.8353C54.9061 95.8353 54.8359 95.695 54.5974 95.8353C54.3588 95.9757 54.3869 95.9756 54.4571 96.0458C54.5834 96.1581 54.5412 96.2282 54.5412 96.2282ZM52.9555 97.6877C52.9555 97.6175 53.3063 97.4772 53.4046 97.5193C53.5028 97.5474 53.7835 98.0806 53.7835 98.1367C53.7835 98.2069 53.4326 98.3753 53.2923 98.3753C53.152 98.3753 52.9134 98.1367 52.9134 98.0946C52.9134 98.0666 53.0818 98.0245 53.0818 97.9964C53.1239 97.9262 52.9555 97.7579 52.9555 97.6877ZM51.8469 95.6389C51.9171 95.6108 51.9171 95.5406 52.0153 95.4705C52.1135 95.4003 52.2258 95.4424 52.2258 95.4424C52.2258 95.4424 52.296 95.3021 52.4644 95.274C52.6328 95.2459 52.7731 95.274 52.745 95.3442C52.745 95.5547 52.8853 95.695 52.8853 95.8634C52.8853 96.0318 52.7871 96.2423 52.4363 96.3826C52.0855 96.4808 51.6083 96.4808 51.5382 96.4528C51.468 96.4247 51.3978 96.144 51.468 96.0037C51.5241 95.8494 51.7346 95.709 51.8469 95.6389Z"/><path fill="#FFD8B3" d="M52.2961 95.737C52.2961 95.737 52.0575 95.8773 52.0575 95.9475C52.0295 96.0177 52.0295 96.1159 52.0295 96.158C52.0295 96.2001 52.3382 96.1299 52.3803 96.0878C52.3943 96.0598 52.2961 95.8072 52.2961 95.737Z"/><path fill="#FFD8B3" d="M50.2051 95.0774C50.3454 95.1055 50.584 95.0774 50.7664 95.1476C50.9067 95.2178 51.005 95.3581 50.8646 95.5265C50.7243 95.6949 50.584 95.9475 50.2752 95.9054C49.9244 95.8773 49.5876 95.6949 49.5876 95.5546C49.5596 95.3862 49.6578 95.1757 49.756 95.0634C49.8964 94.9512 49.9665 95.0213 50.2051 95.0774Z"/><path fill="#FFD8B3" d="M50.0366 95.2178C50.0366 95.2178 49.5875 95.5687 49.4752 95.7371C49.3349 95.9055 48.6473 96.7755 48.4368 96.9579C48.5069 96.8176 48.6753 96.6071 48.6753 96.6071C48.6753 96.6071 48.2543 96.8457 48.086 97.3649C47.9176 97.8841 49.0262 98.1648 49.7559 98.3753C50.4856 98.5858 50.7663 98.656 50.7663 98.656C50.7663 98.656 50.3453 98.0385 50.0787 97.3789C49.798 96.7194 49.6577 96.6492 49.8401 96.3405C49.9804 96.0318 50.1909 95.8213 50.1909 95.5827C50.1067 95.3582 50.0366 95.2178 50.0366 95.2178Z"/><path fill="#FFD8B3" d="M34.0388 96.3264C34.0388 96.3264 34.137 96.3545 34.3475 96.3264C34.558 96.2984 36.7472 95.4985 39.0346 95.6388C40.045 95.709 41.8412 95.8493 44.1005 96.4668C46.9773 97.2245 50.5557 98.7261 52.8712 99.5821C53.4886 99.8207 54.0921 100.242 54.5411 100.41C56.3093 101.098 56.3795 101.098 57.4179 101.28C58.6388 101.448 59.8877 101.042 61.1928 100.761C62.7926 100.41 65.529 100.242 67.9287 99.8908C69.1776 99.7224 70.2161 99.3716 70.2161 99.3716C70.2161 99.3716 68.3076 101.28 63.7328 101.968C61.4454 102.319 59.565 102.206 58.1476 102.038C56.6882 101.898 55.7199 101.687 54.9902 101.477C54.1622 101.238 52.4642 100.607 50.3733 100.087C48.9139 99.7084 47.286 99.4277 45.4196 99.0769C40.8168 98.2349 35.821 97.2666 34.0388 96.3264Z"/><path fill="#FFD8B3" d="M31.6531 78.5325L19.9636 67.6148Z"/><path fill="#FFD8B3" d="M31.6532 77.7046C31.162 77.2555 30.6428 76.8065 30.1657 76.3574C29.6745 75.9083 29.1974 75.4593 28.7062 75.0102L27.2468 73.621C27.0082 73.3824 26.7557 73.1719 26.5171 72.9333C26.2785 72.7228 25.9979 72.4843 25.7593 72.2738C23.8227 70.4354 21.8721 68.5971 19.9636 66.7588C21.9423 68.569 23.8789 70.3653 25.8575 72.2036L26.5452 72.8912C26.7837 73.1298 27.0363 73.3403 27.2749 73.5788L28.7343 74.926C29.2255 75.3751 29.7026 75.8241 30.1938 76.3153C30.6849 76.8065 31.162 77.2555 31.6532 77.7046ZM5.94458 77.4239C5.94458 77.4239 12.9892 78.1536 16.4273 78.6448C19.6128 79.0939 29.5763 80.6235 29.5763 80.6235L5.94458 77.4239ZM5.94458 77.4239C7.92325 77.5923 9.90191 77.8028 11.8806 78.0133C12.891 78.1115 13.8592 78.2238 14.8275 78.322L16.315 78.4904C16.8062 78.5606 17.2833 78.6308 17.7745 78.7009L23.6684 79.6411L26.6153 80.1323C27.5836 80.3007 28.5519 80.4831 29.5623 80.6515C28.594 80.5533 27.5836 80.413 26.6153 80.2726L23.6684 79.8516L17.7745 78.9816C17.2833 78.9114 16.8062 78.8132 16.315 78.743L14.8275 78.5746C13.8592 78.4764 12.8489 78.3361 11.8806 78.2238C9.90191 77.9852 7.92325 77.7326 5.94458 77.4239ZM28.8746 82.4618C28.8746 82.4618 21.3529 84.3703 18.8129 85.1C16.315 85.7876 8.7512 88.0891 8.7512 88.0891"/><path fill="#FFD8B3" d="M28.8746 82.4618C27.2047 82.953 25.5487 83.4301 23.8507 83.8791L18.8268 85.2263C17.1569 85.7175 15.501 86.1946 13.831 86.6858L11.3331 87.3734C10.5052 87.612 9.66321 87.8224 8.80719 88.061C9.63515 87.7803 10.4771 87.4997 11.3051 87.2611L13.803 86.4612C15.4729 85.942 17.1288 85.4508 18.7988 84.9316C20.4968 84.5106 22.1667 84.0616 23.8647 83.6546C25.4785 83.2477 27.1766 82.8407 28.8746 82.4618ZM9.80354 92.72C10.6315 92.4113 20.174 87.9628 22.3912 86.9243C23.4998 86.4051 26.7274 85.2544 26.7274 85.2544"/><path fill="#FFD8B3" d="M9.80354 92.72C10.5333 92.4393 11.2211 92.1024 11.9227 91.7797L13.9996 90.8114L18.1675 88.8047C19.5567 88.1451 20.9039 87.4154 22.3353 86.7979C23.065 86.4892 23.7947 86.2366 24.5245 85.998L25.6331 85.6472C26.012 85.549 26.3628 85.4367 26.7417 85.3385C25.3524 85.998 23.893 86.5594 22.5037 87.2049C21.1144 87.8925 19.6971 88.4538 18.2657 89.0713L14.0277 90.9377C12.6104 91.513 11.2209 92.1306 9.80354 92.72ZM10.7299 96.6071C10.7299 96.6071 19.3743 91.5411 22.3493 89.9133C23.907 89.0432 28.9449 86.5453 28.9449 86.5453"/><path fill="#FFD8B3" d="M10.7299 96.6071C12.1894 95.7089 13.6771 94.7969 15.1646 93.8707L17.3818 92.5235C18.1396 92.0744 18.8693 91.6534 19.6411 91.2044C20.3989 90.7553 21.1286 90.3063 21.9004 89.8853C22.2793 89.6467 22.6582 89.4643 23.0512 89.2959L24.2299 88.7065C25.7876 87.9487 27.3453 87.1769 28.9872 86.5173C27.4996 87.4575 25.97 88.2574 24.4404 89.0854C23.6826 89.5064 22.9108 89.8853 22.153 90.3063C21.3953 90.7273 20.6655 91.1763 19.8937 91.5833C19.1359 92.0323 18.4062 92.4533 17.6344 92.8603L15.347 94.1092C13.7893 94.9512 12.2595 95.7791 10.7299 96.6071ZM28.8749 87.654C28.8749 87.654 23.5002 91.7797 21.7601 93.0988C20.02 94.418 14.8979 98.1227 14.8979 98.1227"/><path fill="#FFD8B3" d="M28.8749 87.654C27.7663 88.5942 26.5872 89.4923 25.4365 90.3623L21.9703 93.0286C20.7915 93.8987 19.6408 94.7968 18.462 95.6669C17.2832 96.5369 16.1045 97.3649 14.8555 98.1647C15.9641 97.2245 17.1429 96.3545 18.3217 95.4985C19.5005 94.6424 20.7213 93.8004 21.858 92.9304L25.3242 90.2641C26.517 89.3941 27.668 88.496 28.8749 87.654ZM22.7421 97.4771C22.7421 97.4771 23.9911 96.4387 25.5487 94.9792C27.4853 93.169 29.8569 90.8535 30.6147 90.4325"/><path fill="#FFD8B3" d="M22.7421 97.4771C23.3596 96.8597 24.0191 96.2563 24.6786 95.6669L25.689 94.7968C25.9977 94.5162 26.3486 94.2074 26.6573 93.8987C27.2747 93.2813 27.8782 92.6217 28.4956 91.9902C28.8044 91.6815 29.1131 91.3728 29.4639 91.0921C29.6323 90.9518 29.8147 90.8114 30.0252 90.7132C30.1936 90.615 30.3761 90.4325 30.6146 90.4045C30.4743 90.615 30.3059 90.7132 30.1656 90.8956C29.9972 91.036 29.8568 91.2044 29.7165 91.3447C29.4078 91.6534 29.0569 91.9341 28.7482 92.2147C28.0887 92.7761 27.401 93.3234 26.7415 93.9127C26.0819 94.5021 25.4645 95.1336 24.8049 95.723C24.0892 96.3264 23.4297 96.9158 22.7421 97.4771ZM31.1338 91.8639C31.1338 91.8639 26.5591 96.3405 25.6188 97.0702Z"/><path fill="#FFD8B3" d="M31.1338 91.8639C30.7129 92.3551 30.2641 92.8041 29.8151 93.2111L28.4258 94.5302C27.9767 94.9793 27.5557 95.4283 27.0786 95.8774C26.5875 96.2984 26.1384 96.7053 25.6192 97.0983L26.9663 95.7791C27.4154 95.3301 27.9066 94.9512 28.3837 94.5021L29.7309 93.183C30.194 92.7199 30.6427 92.2709 31.1338 91.8639ZM31.3447 94.2916C31.3447 94.2916 30.8254 95.8212 29.8572 97.7297C28.6784 100.087 26.9102 103.034 26.1384 104.536"/><path fill="#FFD8B3" d="M31.3447 94.2916C31.3447 94.8109 31.2042 95.2599 31.0358 95.709C30.8674 96.158 30.6849 96.6071 30.4744 97.0281C30.2639 97.4491 30.0254 97.8981 29.7868 98.3051C29.5483 98.7261 29.2676 99.133 29.0571 99.554L27.6398 102.052C27.1486 102.88 26.6715 103.722 26.1523 104.522C26.5031 103.624 26.9802 102.782 27.4293 101.954C27.9204 101.126 28.3695 100.284 28.8185 99.4277C29.029 99.0067 29.2395 98.5577 29.4079 98.1086C29.6184 97.6596 29.8289 97.2386 29.9973 96.8316C30.2078 96.3826 30.3762 95.9616 30.5867 95.5546C30.8253 95.1196 31.0219 94.6986 31.3447 94.2916Z"/><path fill="#FFD8B3" d="M36.3401 105.799C36.3401 105.799 34.9508 107.637 35.0911 109.967C35.47 108.746 35.9471 106.879 36.3401 105.799ZM37.6592 107.637C37.6592 107.637 37.168 112.633 36.7611 115.089C37.3364 112.254 37.4487 112.493 37.6592 107.637ZM46.8509 115.383C46.8509 115.383 44.774 121.488 44.7319 123.186C45.1809 121.446 46.051 117.881 46.8509 115.383Z"/><path fill="#FFD8B3" d="M51.7064 105.42C51.7064 105.42 55.0743 110.977 57.6003 115.72C56.9126 113.335 55.3409 108.956 51.7064 105.42Z"/><path fill="#FFD8B3" d="M60.7583 113.601C60.7583 113.601 63.3965 118.148 65.754 123.691C65.4734 121.305 64.7156 117.222 60.7583 113.601Z"/><path fill="#FFD8B3" d="M87.3644 121.796C87.9257 121.446 89.0343 119.537 90.0026 119.06C90.9709 118.569 91.7006 118.471 92.5707 117.502C93.4407 116.492 93.6793 115.875 95.5878 115.075C98.2541 113.924 96.4157 112.436 96.4157 112.436C96.4157 112.436 96.8648 111.987 97.3559 111.637C98.0436 111.117 98.8435 110.486 98.7733 109.377C98.6751 107.511 98.3242 104.802 96.7946 103.231C98.2821 102.922 101.131 102.711 102.899 102.262C104.948 101.743 105.888 101.013 105.888 101.013C105.888 101.013 104.709 99.0068 106.618 96.986C108.526 94.9793 110.084 93.7584 111.235 91.499C109.916 91.3306 107.909 90.629 102.773 92.5796C103.152 92.748 103.573 93.0287 103.573 93.0287C103.573 93.0287 100.415 93.8987 99.2644 94.867C97.2577 96.565 97.0051 97.9543 94.83 98.9927C92.6408 100.031 90.4657 99.7505 88.6554 100.592C86.8452 101.42 86.5785 102.15 85.919 102.459C86.0593 102.627 85.8909 102.908 86.1575 103.147C85.9891 103.385 85.0068 104.985 84.0105 104.985C84.1087 105.364 84.9507 105.644 84.9507 105.644C84.9507 105.644 84.3332 106.093 82.7615 106.206C83.5614 107.034 84.3192 107.946 86.4101 109.265C86.2417 109.616 85.5401 110.135 85.8207 110.795C86.1295 111.454 86.9294 112.352 90.1289 113.082C88.5011 113.152 86.5926 113.531 84.0245 113.18C81.4565 112.871 81.0355 112.689 79.4497 113.082C79.6181 113.25 80.0672 113.25 80.4601 113.699C80.0391 113.727 77.4009 113.391 76.5028 114.569C75.5626 115.79 75.1556 117.797 75.2258 119.144C74.7346 119.383 74.2575 119.804 74.496 120.674C74.7346 121.544 75.9835 121.825 76.7834 122.372C77.5833 122.961 77.6535 123.172 78.4113 123.031C79.2112 122.863 80.3899 122.063 81.0776 122.063C81.7652 122.063 82.2563 122.582 82.2563 122.582C82.2563 122.582 84.1227 121.684 84.3052 121.853C84.4736 122.021 84.3332 123.102 84.5157 123.27C84.6981 123.396 86.8031 122.147 87.3644 121.796Z"/></g></svg>